<mxfile host="app.diagrams.net" modified="2023-08-01T12:53:35.227Z" agent="Mozilla/5.0 (Windows NT 10.0; Win64; x64) AppleWebKit/537.36 (KHTML, like Gecko) Chrome/115.0.0.0 Safari/537.36" etag="r_KeQvANFmkWlf11rwQn" version="21.6.6" type="device">
  <diagram id="iRDpKaRYNG6QSVBT32Gf" name="Página-1">
    <mxGraphModel dx="2327" dy="820" grid="1" gridSize="10" guides="1" tooltips="1" connect="1" arrows="1" fold="1" page="1" pageScale="1" pageWidth="827" pageHeight="1169" math="0" shadow="0">
      <root>
        <mxCell id="0" />
        <mxCell id="1" parent="0" />
        <mxCell id="-DYMCZbe94zQqvGmyOgs-1" value="Construa o Modelo Entidade Relacionamento considerando o seguinte cenário:&#xa;&#xa;- uma empresa possui vários veículos&#xa;- um veículo possui marca(gm, ford, fiat), modelo(onix, fiesta, argo) e placa&#xa;- um cliente (cpf, nome) alugado um ou mais veículos&#xa;&#xa;DML&#xa;&#xa;- um registro de aluguel deve conter qual cliente alugou, o veículo alugado, dados de retirada e dados de devolução&#xa;&#xa;&#xa;DQL&#xa;&#xa;- listar todos os alugueis mostrando como datas de início e fim, o nome do cliente que alugou e nome do modelo do carro&#xa;- listar os alugueis de um determinado cliente mostrando seu nome, as datas de início e fim e o nome do modelo do carro" style="text;whiteSpace=wrap;align=left;fontSize=13;labelBackgroundColor=none;fillColor=#d5e8d4;strokeColor=#82b366;dashed=1;gradientDirection=east;gradientColor=#FFFFFF;" parent="1" vertex="1">
          <mxGeometry x="94" y="230" width="640" height="300" as="geometry" />
        </mxCell>
        <mxCell id="-DYMCZbe94zQqvGmyOgs-3" value="" style="shape=image;verticalLabelPosition=bottom;labelBackgroundColor=default;verticalAlign=top;aspect=fixed;imageAspect=0;image=data:image/png,iVBORw0KGgoAAAANSUhEUgAAAT0AAAEFCAYAAACRsjBdAAAACXBIWXMAAAsTAAALEwEAmpwYAACfHUlEQVR4Xu29B5hk13UeeKvqVa7qPD05YQLCDHIGAeYsJtuSSFuSRQUq2bK067X92bv+dr9dfbZ2Vyvbn9Zr2UomLVkUZYlWsCkxgwRBkABI5DCDydM5VXfl+Pb/z3m3qrqn03QPZnqA+waF11X16r37zjv3vycfY9zmKOAo4CjgKOAo4CjgKOAo4CjgKOAo4CjgKOAo4CjgKOAo4CjgKOAo4CjgKOAo4CjgKOAo4CjgKOAo4CjgKOAo4CjgKOAo4CjgKOAo4CjgKOAo4CjgKOAo4CjgKOAo4CjgKOAo4CjgKOAo4CjgKOAo4CjgKOAo4CjgKOAo4CjgKOAo4CjgKOAo4CjgKOAo4CjgKOAo4CjgKOAo4CjgKOAo4CjgKOAo4CjgKOAo4CjgKOAo4CjgKOAo4CjgKOAo4CjgKOAo4CjgKOAo4CjgKOAo4CjgKOAo4CjgKOAo4CjgKOAo4CjgKOAo4CjgKOAo4CjgKOAo4CjgKOAo4CjgKOAo4CjgKOAo4CjgKOAo4CjgKOAo4CjgKOAo4CjgKOAo4CjgKOAo4CjgKOAo4CjgKOAo4CjgKOAo4CjgKOAo4CjgKOAo4CjgKOAo4CjgKOAo4CjgKOAo4CjgKOAo4CjgKOAo4CjgKOAo4CjgKOAo4CjgKOAo4CjgKOAo4CjgKOAo4CjgKOAo4CjgKOAo4CjgKOAo4CjgKOAo4CjgKOAo4CjgKOAo4CjgKOAo4CjgKOAo4CjgKOAo4CjgKOAo4CjgKOAo4CjgKOAo4CjgKOAo4CjgKOAo4CjgKOAo4CjgKOAo4CjgKOAo4CjgKOAo4CjgKOAo4CjgKOAo4CjgKOAo4CjgKOAo4CjgKOAo4CjgKOAo4CjgKOAo4CjgKOAo4CjgKOAo4CjgKOAo4CjgKOAo4CjgKOAo4CjgKOAo4CjgKOAo4CjgKOAo4CjgKOAo4CjgKOAo4CjgKOAo4CjgKOAo4CjgKOAo4CjgKOAo4CjgKOAo4CjgKOAo4CjgKOAo4ChwXVIgdF2O+joftO+PeqZVSzTqxVTZlOMNU/MajUak2WyGGq1WyPd93mErFAr5jUZL/saLH/ph+Uq3ljw9/T+3ML4P+fIyOE6OjESiJhwO+3iZkBfxQ5GwvMeXOH0o1DTNkB8ywTnC+C3PgmPkQxkIxoNjTDOM4YT4W+zxjR9q4RIhL1VvhXC1pm9wD+FatRFuNhoh05Rx81oyfJxLxxpq4YP2mGU8ONLeVfvu+CtupAGvxUvy2pFIhK8W/sbPws1Qy2tEvUTFi6QrsciBZoc67i9HgeUp4EDvKnJG0z/Z02gu9BUKs3sXclP78+W5vaVmfk8j3OjBxI63Wq0IXpzlLcAIUaMZjUarghr6AgIR0uyGNyEBEAFEATwCjQBeGCcyAM2GZ8I4LBRq4X9N/C3nwYEEHy9kWhGeFpAiIII/9Vp4j3OFCDIt04xhXDGeVEEo5Dd5Ofw/4oXrQCYip49jvFbLRAB4HiGYSGVwVZySw8KLwwPo6XtuQMNIPbi3buDjvcgxAtA+UJgvfV/HizSpGT+yEI32jMei6alEvHcsleydzKS2zfUmb89dxcfqLnWdUcCB3lV4YE3/fLZuZrbNF8bunZm58K653Phd5cr8UMOvZE2skfJDACbgCSUgkfJU1AOeYaaHCUQEOwU2keeC9wHgCdoFD9JKeYox/AGlpJD8DfAS2MEn9nAe1RRsasuJ8isCIDfIcJDUiIBN4HCLYwxFee5Qk5gHdAubqokAl0KhiEiFgEwCI/6IUEozBPEAr3X4irlybsKzj1vWvyx2czR8I5ImXsA70gXwiKsTqyFu4h5aOLWJ1Jt1rxyOJArRcGIqHut5uie77asDfXufG+zbP54I31S6Co/XXeI6o4ADvdfxgfn+WLxu5rcVKuO3z8yd+9h07vxb88XxAw1TjkVjxkQTYdPw60Q3AQkRfIgLqt5SSqLUJtvSB6XQoAAiv196nApGcl6qoXJcADWCr/xOrgVBjeBCnKFa26YHUAUHALTk903CUDgKwSyJI2L4BOOF4OiZPKSvhvyWaNrCmPkbvg/ANhij3FCg5urfCrQRhTgZb/BZsCfchnAdXB2IDbgjuAuYUr3GtbActHxYCnge/N1smoWwSZ7Kpnd8YXjw8H/r7zl4sj9x/9Tr+Ijdqa9DCkDCcNvrQQHfP9dbbYwdmcqd+9BcfuSjs/OjR8uNXCqcaJhYDBogwCbfqNAUJoJNIG4BRFTQE0DC3x7EGgtoHUCyI8bEF+Cj/LP0LhTYmjgXz0dgAXQI8BGMIJoJwFH8oyxF0AuLLMizAcQAaAb7MLANAifAGdeiUotDWiJmAbVxDzEPwMdj+RllOhEnccY2kOu4RJDjuQXhdMwqdvLaMhL9LNiL1VGsioGZDidWCTIYI64H+6dJpQDEuD6BsVmv91Sr83fWi/kdjVbxWL6Q+3Sx+b1vpSN3Tb4ez9id8/qkgAO9K/zcfH8c+DM3kMufeHhm/vyPTs5deEutWdhR88smHIdjIRaHS6BlirWmKVciJpEaIrS1gU0UWE7uQJlttBptALzUSh+Y+gAE7e8CCY86ILdoLCHA0lDlVkxsskHaU3xqyvl5NHVIWvBCpo6vq7oHqBEuCaohP4a/Ujg2CbxK4FwNgFwV9wNwDHkKbLASUjojWvKzBsWxrk2x2YIr8S+41yXPoQ30BOhgERDQDN63INaZUM2Uqw1ctwQpVMcaDdUh8c3vLNab76q3qj0XJxJmpvj4twfTD41f4UftTnedUsCB3hV8cA1/JNY0k0Ol6ujbp+Zf+/tjE6/dWTfVRCgGtTHimSrmer5MVTFqvETW9Az1wuOZFhVNrXWqFqrkBYDEKwGQtO8vHSqOD/wO1tanKqwCHpRjlfB4LlE5xRCmJkM1kKlqGPhPIyJV1QBaVXxaMpFQ2VTKOQAKASZiPC8Nya4f6mwvjsvgOIJaMZBSw7gOpS9cj9IggRvg1wpUaR27BTvdE0gjpI0A6vIPwqOoyXsJVH6q/vwbnm6crgz6zZsWTKIhr2hiAD4P7ha4jyGEljLN1sx9Fyae//tUoYuN576V9m5zEt8V5Pfr9VQO9K7Qk2v5o/Fya3Tv+PSLPzg9c/JHKrWZ436sCqCImipQp1yF3OSnTAySXW/vNhNL9gEYYB8DgIRDccADQAhSUQuoEcGkTiDUJB6LmSRAjzLZpeqrAke9VhHQCeM6Vm0lyFGt5d6LRU2l0TS1Ws1U65CCKDXRsQEQQ7yIqQAFPc8zMSCsXy3BhVE2qVjdNMoTZnL0JAAO42pASoXU1tu32+zYfiPCYAZNtRIHPifh1/AE7Jq4WB1jrwKM6rDrEfhErRYvLu1xFAMJuqIfy9gjdCZjbF4kZOCllnHQccJXFGDH39UxZu4jEvpC9ZnXajI8xvjNkplfGDHV2qSpVC6aUmUKi0vFxKKwOMZgiWxV0uFw4d6LUy/8bL3e9EvN5x9LRW6dvkKP3J3mOqWAA70r8OAq/tnsVOnU0ZnZEz80u3Dih8rVqRt8r4JwDkh3DUzwaA/UzEFM7iE4L3aYSHwQElBW7WKQmJqQ9HhYCEghGiJAIAxPB+JFxD/KTSUh6/kMBk27GcBKvKRU++RA/Eb8nfzMmBJOXIXkUweg1qiO8hCxlUEyAyDVAWo1SIaU0EKmaOKhItCoBpUVamsoI/Y7NbNxHCm8snjfg2MhoXLsuIcaLlRr1AF6uAZOBIUcx+F4nLsJgOP1grg/OZ84aiihCihSqqR5LyEqMdCb0GjqTYAlkZ5gJzE46ugRJwydL7zvcM0kkwmAcBanippWHS8cV2/lQNMa5FAC/Wy2Va08ODYTZsyin689++1s7HYn8V0Bvr9eT+FAbxNPbnz6ZDSeLg+NTj9/fHru9N/NFS/AjjS103gI4/CgrAL0ijXPJMKDJpE+AKlrF8BsOyYs1Fo/AaABHETgCeXkB+BR2osC6CIeXgC9MAN3JciX8pJuQUBye9QRACRBSdRavAhkVFvhigBohU25UQMoQTKihASgEf+p+AsU9JqeXp9AApiB+gpVEaGB4fAcjiN7KHgxVMVnuArAKRQi4KVxzR5TaUZxfgNwrwPw4EygeovrUlqjJMmwZgp5YqcUCQ82RPlMXA+4RwAY7IBhD+fFfatbBeMU3wikUEi8jMNRWyTBkidjuCEXgoaJJyFtQu2GNc80y4C5Bu4JC4UfyYtNMjuQQhx4tKdRzD80Ov1KqF6tRybnv/3EcO+Do5t49O6n1zEFHOht8OEVKudixfLk7pOnv/eOSmvyxyuNuTsaoXwPND4aqiBVhUylxriUIeDEHhNJ7sfE3gHQ6gPIpAEUkLIANhHEghB0IgQFzOQYQCgaDdMfoL5Mhn4EgMahWkeAxrZBvQW6ESxxAgkrofZY5+dUb/F5pRkRcKW1jqEnPqSpwEci9jxKUMQigkwEwBGBk4XY0wT4BjArO19QhuwSw+/gHIHU1zJxU67BCsjrQeJr8JqBhEmQE4gjTpEkeIkLBeeg7ZJ3RUkuBidIlKAHcNNwQl5Mw1i4qXe74/C1Uqdo6ARh3LeH72NxqNe8wwoOb+D3/hTGUjC5hbyYCIzXzJaL1YcnZhtRHweMzHz5W7sH3+2Ab4P8fz3/zIHeBp7eXPH76VprdM9c/vRb8+XTP+NHi7eaaD3uwZbUhHRTRZJDtRGDatVreoduMl78gPGju6Bs0XGREKlEJZoGJjU9n77xoNbhBHgB8CBciTpL/8Gi8Vn1VveSMgGUE4lM43kDoPFF6hK1lvY9fMEXw1T4EtsffiwWN2qMGAOVyih+H4OEFse+LrF/GBsOUN8wr0Mpjkfi3poAP5y7XIcUKUAHKBOcVK+wSJ0SKkNY5V0wRIZgxyhjSn6QBnGNeCLGFA4NHRSJU8N3RDIMQFwdLbw5npVwSUmRJwlkYC8JikKaFj2ZDhWo63WaBiaxL+O0NROP4F7i0VS9NnPfXCHUxLNqjM9/+fEdve+e2AALuJ9cxxRwoHeZD28q/1j/2OTLR8rV2R8YGXv1b2UHGzf6kYrHpNgqdLsaY9RgY4qmdpp4dKdJ9hyFhLcLk3EQUlkUEpFKTQQTpHhJRG0c0lcC6qwFPHkoVO8AAp6INIF8F2ReCL4Fkh5tXgIDATpS0rOG/jrCXXx4jQPxsH2ncjaOAcd6EPHoJY4DMBI4aRJSFy1jMaaYCVRSUQ5AljZAxtZBpKziXihZNnDPzCcROx2kLrXgAc6DoGaV7qxqqmotzXQE1yjGQICPSCBzgHmBDZG/EGkxiB3kwhDIvkG8HnGQ9lJ+6oGWaYAeTwJYhaRYkWfRMH39UHnh6PDhoIEGDXNCJV0qj98/PlNrlUql0IXJr39r7/DbHfBd5jy4ng93oHcZTy9X+c5gvjhy60Lx/Ce9WP3hVLZxyPcXaHbHRKMtCbFqiGGLRAdNMrvPxFNHABK78P2QOC1o+yJ8IF8eQMhg2yYmP4AGwBSHSovoDQEgxvqqSmgzMmyoh2ZGSKAJj8M1I/Ry4u8G9EDKZAShOiS8prpPoTaqdNcNfCp3wSOKH8LJKZJdAra8BE6awsWTBDdKfbySeD4IY7w/OiYYpuLBVqiOEtrtIBeqTVHuTyVCCmIi+AHUKZXJveB6Kk1SjceLnmGAruA6/1GyswHSckJNQhPc1J16nkUiVHU9gti8BhcD2BYjoSzGDpskr4d4PQ9SaLVahsTN0cPOiqBwSuO4cjbcyt9f9+crC/np0oXxJ57bu+MBp+pexly4ng91oLfOp3d+4is75+bP3Q6HxU+NTrz0tsFtqW2RWAkqK4xITPVCelYYHtlQaMD4kOyaZickjX6omWmILFAFFYMUDDBvMTUhaQFkYMtKEnCY1cW5zOOYfiYSEQ4OwjtkmMyaEK+FdWvQEQJZjHY8eGkr+KMC6YYSJ9VaelEZ+tH2wFJ6ov0wiM3jw49CoiPYJjGOGAYXBwDDjYIj8P8g3g+BNIF66UFSpeOCKjxVXSKzqsv00jJzg59JtgczSURS472Ie0UBD2OKg168ZpzeXYi+Ps7Ba6paC/UZEirv2wJgG+yCZyVmPpxX1G5JSVOgjcCWGk5EQUtcjcHKMDZOzcwBGGE3jMRxfBEAiFoFcO7gy96mH314dLJZrw1Uf+/C5Ff9vcPvHFsnO7jDrmMKONBbx8Nr+C8MnJt88f7Xzjz1C160eN/wrlhvvY5wL0hrsUQKAcchUy5BwkvsNJneW0y85wZM/iGATxJSCEo7EX4wEZkFC1HMhKqQsLw4wC5qegmCmvSgkowIOIIcYsRvMI4NUmCEJaEo3QAM6OkVQAEoVvAZs+qr+Lwqfk/EzdFzTDDCv2KVsYIAMngnxLUA6ccwnEMAzpjeNOQ5xLyFIB1S323CCdCM4kVJTjwIAAhKskDtCkDEqyAsBfdTicDDi3uQ2GiEi6jtD1IUEZ2b2NsUAAlKBNsY1PkU7jmBcfOeQ0RmemcpoYowS8lWxUR1VAQWPLEN2jQ0EQtlBRFa4XcEZ0qcUOZNTQAfflt4yFvxlhncmTS52VdNsXgW9F4A4OZxtVksLPNA/NZAK1p4x2Q+H637uz9zYfYvn9g78KGRdbCEO+Q6poADvTUeXsl/avuJC0+9e2zy1Z8LeYW7IvFGinFsHkCoDCmlVIR0ExkwiewepJQdMl7yAMBqGJMvBbsXPJUI3iUcRAAVzG1lkG0chqgkwCEJYABuChhaFwXTx2wgsjgqAFYMM5FUWMEFsXYJPPL7Cn5I4KvQjkZ7loAmwSCw8wFkWDggTKAEQoRpw6OUBcCL4w9lAAKIjoCSpqqxWjggJGloKkmp84W2PFwHXlcfBQhQoU/yaVkAQKxuBOVAA2VaGxV+eqJjALcEQE+uSawLJF/1XVjJNdi3iw+oRKdBzrrn4kEwF9VaLqR3QM9xgx5xnLfGuEcoukRkpv3FUzXE8AGs6yOsCGMSqGAYbi1g/SkjbjI0ANK8tVDzM+MzkejIzBe/sXvwvU7VvY5Bba2hO9BbgUIt/2I4Xxvde3H0xbdeGH3+F0ykcGcyG44Xyki7glCUSvWImb8GDIwn95psz0ETTe7DZ/2Q8JBfCxteBNIHpygT9SmSEFg46alCxkF5qnj0E2gq2KWbxuYSUFQQFF+BYA/PicmNCV7CZK5g7jMjgpkREt5MiTCwjXlEHIqMADvazyL4LccQAxjGrFRGsAqcDRLYTI9wADaB3BZAox0jxTgdM1Vagp5IeVQ5gxpQYnPEj6MiUYYh4eGeA5ulLVwlmRpim1u88ZpahECuoNe2nhrZ68uGuIh6D4IwI4Q0IfihtB+OQagKaJvJbgetq6Y4X0MGCxYsXDMKwG42CzwzgL3e16gW75uZuxjyq9Hm6OzXvrVr4B0O+NZCj+v0ewd6yzw4xHiFZ3Ov7R+bffkd40hhCkXm74hl4NDEDKUKxclUrCehOkJi6z0ESWI3six24xt6aJMSsxaCHQ8ZYJAuGPRLryVUYUp5mPz0kMZog+KUozQXGOntULqBpuPV1LlOCYcAWId4UmVYCgCqLmWdiDIKXjydRG/QA8vJL8CEkJQ24FHiUs+pFjxRAJEqJlSCRXWmbmndCIGA2QXOHAchnVVepKSoSGO03VHyY9yh2g8lnQ7nEScNL0Vnh0i3CordmwDlUgAMDhKNNvhSwm7wXqwCAnIAPAB7DepyjSlw9AaH6aqFBAyVPJPsNT19+7BWNEx+tmEKlUlZeBgTWalOmhQkv2i8lak2y/fPzJ9jdUB/fPYb39wx8Fbn1b1OgW21YTvQW0IdvzUZmZs/u29s/OV3Ts2/+rMmkrsjka5Gy3UYwWHeSmZ3YpJlTakEW5i3DTa849Cw4J01fZAcAHhQa32AooJOMDORQcCJn4SqSxVPACCY/HJc10xfCoBi07fH4GA6CqjCVSG1lWCLI6QyqESBi0ijgCBgKdHKrJDSAbwE1OWoVWsJMgJW1l5GXVMJIlIYxiyOieCzdoGCQMUWGYzfE/hERYZDAt8xzIZeaDouUrTfYS9aMjYGQVMFpldZtFqcZGnNwG4aUNKlqt4mEYVMC374OR04qFcPVRV2PJasZ2AzoZfpb4gUZ3WZCnwXoWgWWTGQxHFMHotSuT6HvxdArgUAZRXPB7F8SS9VaxXum1s486lYNFKamv/mU9t6H3Epa28w4HOg1/VAm/5YdGbuzP6x8VfelSuc+Rk/PHdrNFGNQv0B4DEfFYCGGLxyDdkIyKPdue8u5K5uh2TRh7Og1BJTtCA+qcNB/AXihWVoRgKfE3BiBBN8JzY6ogZEHrGFLWEsOYcFnEDC43G0/RPwynQsiL7bVYVEMI8eXus1ZUgIpBi5PmIBeX3G5/F6VJ0JpoH6aAt+WrVWsjcE0HSYDMlZbqP0K/Ih74lxhQxHwYvXJOgxYJj3JoVaiKn05l5yt537X7baig607RwRbZ22R3xUg3pPSZfqrVSV4V1Z1Icn2MPzKqGMV60WMplEDxapgwD0pMnnJhDOcsH0JKumWhoBOBZNNgUVPBNNVpGyNpc/W4cX+d8uFJ/4bk/6gZk32Lx/U9+OA73g8Vf9k9GJmZcPTEycfFe+cJ6AdzwWr0WrfglpTZBa4j2YUD2mWEkC8HaY3v7DJpE5KBJfE0n4THgXTYxqYnBOHx7RJAxZCVQQSQEBCAZIDAAAMK5MVcolmq38UiSfri8EfPBRFbOcgFcBkNUYHgLAQz13BVj8E/+sqLkM11VkowQmajXteAHgUQoT4MN56fwgnolQKk4JognOzxg35Lh5DOILtuVsj1rYM8ivxVkIdAS8JIOP+TevFTgthDyiNqv0SKnLFk/t2PAWz0cJN7SgHywEVqWlKssKMszvJSgzK4T3tLhAPT6LsDACAqqbXIXgUOmJQzrOoM4XQZKVq+HRxXOuIf84DpE0DFW3Was9kivWGmdGwrWLk198bs/we10F5jcIVDrQo7Tgn4jOFS4cvDjx/Pvnc6d/KhIt3xJP1L0WwzIAZnlax70eU0XcXRNxeLt3HTOp7AFzYQJVSTL9AA4AHqWYwCIvDghOeFjMKeHFYcNj1oVkvVKdZHcHqGH0okpXHOJAlz3Lts2xNnsUHFHHBVU12vFYt46oxRg84iPRRE5NmxolTaqrBEHGvamaSeCTn1AiaquX6nWVundS/ZjhMFARIbbVmMKGlwpZWsSge9PxBmhGVwxVWLmPAPgo5eElnTPEbigmwsATQzscQY9ZKUtO3HUR+SmBzkp5BDT8TZrRjifhKXSh8N41j02UbG7Wg1xHQGEGYTkebKzV8rypw9WdQlmvRCYl1WwWJiYR0rMNvypCzaVHt6Alr2IxeKr8t50bfdZHhstvzBYef3Yg85CT+N4AwPemB70KJLwL0y8eGB878ZFKbezHYz2lW0KRUrjuV8V2FkZZqHoV8FHfbvq23WRSvYeRrdBv5ooRk+nbCdVJAUFteJhynJVUaTHb6SxIIeqY1YgpPbERmKRc4WBr82OLx7DE4amEKH0fqCqKTsjJrABRAvCWIXIy4FhSy+R7lFGq1qXNY4RJ+0DHFqqd0I5FyY62u1QaQdMBctCzqvXqeA3WpYNECEmU55d6yUwpq7FnBsrYM7wlDk+MZE0oqEruLDVqSowiReI3jSquw+owcNAwf5gAi8PFUcMxAqEEhgKV1MZaazBxUC6KzoeW1s3jPWnWRQBcxMvAlslhMMywjAGzzh7LZTGwmdVjgkvgZwyS6dgheX+4JQyDFV1YujqC39MSCttmYtgM777LFOZeMYX8WdClbpIJxEXC09uqlaE2V/uS2Z63TS+cqNXONP/dyMxXn9s9+M7ZN8C8f1Pfwpsa9Gr++ej5yWcPzC2c/2C5OfXJZmThFhSdRAVz1JKjROEj9KTGtLJhFP+ElzZ5BAC3HZMtIZkJUuUYk1QS67Wok0hYDEdJ0EPLTIOgBLtIf52ZKUwnHtDAQyrpXooNbXWOpfRYRQWxzBgLQIqeSpaGZ0gG08tYcBSTWABIDG/MlyXgqv3QxuFJpoOAlbZl1OxYoonGu1GQparZglOA902bW5PISC+uIBalKfXQilgl+WZa4Vnj8Ki6I8ULGCbFoRT3BcCXswRadV2GEEw/LYCqNkm1yalUx8/E/Ck0wFjxhrUHG8zcIHhLDKEST6vGsElRsCgE5xZJGv/YxogWTR25hhDFYJONRIsAeAZgIwQJg262UAsRcYgeghkjkWp/0+TfUayM1Mcn4/9udO4bL+7qf2vuTY0a1/nNv2lBr9w8GZ2cO7F/ZOyVD9X9qZ9q+rlbjFcO1cDsBDEBPL8Xs2XYJDM3mlQGhQNiSC1DXB6LZkpJdsxISReDLQiIIVDCFKgkMhqo1tKGxsKgS0MxrHNApZ3AvmWlE072QJ3l5GZqGSci7Vf00qqVDnugE0GIhQqYoUH7ofXSEvDoKbY2PI2LIYYF1UlEE6RXVK/Na4iEyMwMfBiVWBatzGLLswvgiRjKiihapCCEv8VZgWMp1TLgWQKPVVMOgDXYByC/3HwJ2oZryEwAeOLstYCHP2nPJDhrHB6XGC4aWmhUnTAWynmjBP/l4FZziFklRmRb3hLT7pLwruNndQQ8NpCi1gDoxeB5AQmxGAAAY962RnXhXVO506iR6v82gO9lAN/cdT7337TDf1OCXst/NTw6e2rfuZEX31urj/+k7xVvCUcbIZSe0xQmn2XcYdKBFJDOHDbJ9GGs+nsQ5pCE55ZVVJB2heR1hl20IIqFBPCoUsKAj8+TUjxAA28JGtrTVXXV7nALsXNRkwsEKL6nOku5hbmtLL3O8lA8u9Q6EeBS2xztgip1sTwUJTEtDUXpznppqV6KlzawdwkwEFQDyYnAAe1Yqjs3YSskSrGAgdgKmXVhxU8Ro1SalQa0zHQg4OMTxh2yjwWvTcCz3lcZK4cXiHJLbYIy46R6ss49G24jEl5AE/HS4m8LdroAAKDFC0PcVplNhrcI5PiZSn90kHSurUDIb0OwqfI3VXzvxbfjmUEqx6tSqJoGmg0x1o/Vl+vNokmj7wa6vu2oFhY+MJs7A02g9Tvnc196aV/fe5yqex1C55sO9Gr+s+HJ/Im941OvvnO+cO5TSFG6ycRqYGTGe7HUODyxCHOIQKrzPJSHglobTrCAAGx7sJkRKNiPQu1ieEdjPCaIhKVAbEsy1YqTUaQv/c4qecH8DqqTBFqcSEUaxsFDJQ4PB9o4PBbllAaHEpBLCUyr00muB9VqBj8T8ETSsoCnbSNpX6SjQJvqdABPcnopzQJRygA9OkeIBF6g0rakSAHtbIHOreihAConhkpLqY5VWZB/S3CVwBmCN1Vljo+DhAVgSTO0S6aIOms064R/Ws+rBB7jM6qzUpmZjguMhwXvCUi0TUqZfBF7g2oNMswAZYMrUa5TO6KV/PR7hUXa9yCVx1CWKrpDHS1Q42sYuF+LwxY4K3J1A4tPzMOnqfCOsj/3/rk8UgqnK58+N/fnz+/v/4hzblxnwPemAr26/1Joav7k3pHxl98zn7/4s168CKdFFemvZGwk6tNOh0Y90fgugN0+TFqUhULgcR2VjlklGE5aOAz0Jc13ICYhTQOeWaR0wYZH1ZZxeNJ5jLopQzJkJnWkDS3HxMmtai+LeYrnN1DlbOAxG/ZQraXTQmPkgkwLxuEJhlFMVNDjeCS9DfoYK5dYLy1nO0NEJFc1ABHuxfPJfhYSxqHvWbnYF71UW4NL0QNWWQ4wRJrzEOwEcVmZmKlsVKFVwrNgF0TMaJYaQdwiveKmbDYYWd8FEhkBLJg8AsoYCr20HGedwE8wDUJTmJHB/F8OkTVhFsGcvOnIfbqgKMppIYfgIvInbHhYyMKwAXIR8aLb1JGBm2ZPuDo61yVgqqjV5jAeFCuIxpFfHd9Rq9bfl8vXY7Vq6Xenil9/elv67bnrbN6/qYf7pgK9qdzFvaMTJ98GwEMcXv54NFGLtRCUKiXT0fPBIGg1GhsGY++XPNpWGJVSWj2wdyEkBcFmrGpibXA+7V+YQEnY1BiAy5Qzm2mhUpYmxodtjirnXRfgtRi8hv84ZUNSky5ILZPAY8bhAQToOWVGguh8ChZWahPHSGCro5QZRyxgjIAcaHa8uvUIq6NFQZMSlKSwMdwDYNcKwb5Fj6lch44MKtPMlvCkQ5lIU7hYBEhkPb+spILeZbgeDP04ofhgqc7iRQAVjMHY6BXuwrygrwU+XCyMqQocHGj9JNpOkmEpzDohyBGAOS5Kuyx4oPQgUMqSYAFVYTWAeZ63XZFvUZ6vXWh82C8pQaJEDZ5fEpI6nn+SnnAkHKIWH1PswuirywOaLbTFRKB6LOztbNSr78wXG/ULIycKp0e+dPKG3U7VvV6QdDlr7/Uy9ssa53Th0Z1jUycemlu48LN+pHRbNN6It9CAu4Vaa/SEshN32KOUtwOhDLuRWbET82VQbHsNSAIECakGTKO/xK8xBk8LByQoaYGSotJxIooVnrNS1xSR7oK9HbSddFQl6zgUHSIl/q4c5NMyx1dCUwJpy2ZKiAFerXKEAulpQVsiAZd2Nb2yxulJYQIOiVIk1Wa5BkpQMQ4P3zCjg6Dqc5wEFQKVNPCGnEMHDe6PzYDYi4LHiS0PKBdl8VOcly+p/0eQJwkp9clxqlITbJdutMOJRBcsBiwJZeMAGY9Yp5kBLwSNSAxeFaDDPcNSbItLGRvPIaqxXqGzoAT0DhYY8eyyIRKlRLzscdaZFKIkh+dbRsZGGaFJTSx+7FwXjQ0A9PtNBQ8nGkuh6xobIQGA62i5iZS1aKy1I+rV3zM2cfrHp2fPHRmd/Ur/ZTGkO/iaUeBNIenl/ccGzl985p6x2ed/Jhat3RGK1uI19HKNIWi1Cm9dGGpLsQIFJ5Y1gwMISwnvNvOlFAJY+yQzgVMsLB24bCsd7cPKslBZhH5J1RBKOqJ24j/WswseqZUMrd+B6CfhE/QA402JgAfkYKCtACtAgT0nFAwIoHomiY0TDGHoiJ68Ba/xtj5UuqJzgZVcCD4cAuvLYc96xuIMkFg2lqECqCIejp3LqDr6sMexZ7aEs7TVWNgIWY24jvKoCHBjWEw2i1SuMkqJwrCfTlOcw+QHSrPqMrBCK8CIEU7HpVikgLts7DHDdCi18l4pGfI9T4vxSpYFx4iVg1VTKEK3S09xnHJWIpoSQe2ddv5cCrIdqTIYXHuEBEcAHm2GWA0GUigQgfPM53NYwXzcZ58pFFhGi1WiG5Boa2pHpeQrNf9pOvB3JVKNDy2UL0TPXMj/4anx//rioR0fc0UKrhmcre/Cb3jQq/hP971w+hsPjE688veT6eY9qYyXYkAtamuCqUvoVEa1ie0WscLDgcH2hk20Z6R9D/Mezowgt5XqYiDh0OAfY/VfTBI4apef2AH97VSjJCTe1GC+UgGjrUoqHEPq0YAXgqXmFEgXNHxPCU7mN+1zUp9OMzlYETmGCcnCBarq8oLqwBD7XyB12uLLxA/JguB8pfQmwdCQ5Pj7YFzMpvDYDQ3gLkouTuJ5KezpuIF0w4IJBCosAIzYoX1PHA9t0FnMdLaf2iWs2IVNLH0lcitBENeT8lhMKSNYi9QYKCOkB08kXuOOOqvSnz3hCgNZZS4gdrstNQptAG5cTPjipTXMR6VXzWom3ViinwTE0/UW9jb94kdKtcLQ5Ez9M6+N/fHTQwOHRvrid3Wj7PpmozvqqlDgDQ16841n+89PvnzbyOhZVEup3Z/JprPlygLyZUtoGchkdJV0TCMOAEkgLisu4asM/2BGLaUKZiioDMIcTapKWO/hveVvpRQ7RYW2XHfpM+uopZxAHdVPMiIYFoFCo8x5Fc8nTyXzlp3C1JtrbV1Uq1U2hF0RKhnMbZJxgQIhcrxM+wAQ2vaxQP2DoCIVSJjBIAkjYpvUElIcumAGy7kgC0WKBXIywxHj4xVFZWjodPib1VLYxQ00Qcn1Ro29FiEJkTZBcPBlcyzUyjCLpOL6DMKml5bjJPjQe8z7adc5CHAtHCCsvqVRNLjJy744BUysauJpR129oMJ13CtCfUdJ1gb65qKZEE0IdknqvoSuLVD1Y/htpDXcqBXeXqiUBloz5T9EcPOjudoT5/piD9AY6LYtRoE3LOhdnPt238Wxl288e+GZn4f97uFMT7q3AQmvWMwLqEVow+OclwqUFCtYBADxWbUFqcUWRwNpDzY1H2qw2M8g3VDoi8P+lYBeG6dEBNBjjTaVVYhQl+7ppGA2gzoraJfCJAfAMAOCIlIEk5tNEOnspQRHryQnFPvTSpkokYDwe7hINRaQDgSMAV4L5o6ym5lMygAdVOjpmGrLqA7DOL4QkI9dzqgm+7iQVD8mhALAm0000cF9oPsFMKSGBQBJW5jQcdxwGIG6TUg/jEWM4Z5h9pcG3B4yGCJRnhuSkYDeyve/HF3keNxXC8AnvXElwBvnZDwgpSubqRJIenTaiIOoq7I0bXXak0OB+3L3TaSdNZtVSK9lpNChGx1LwcThrPDzplKeMpXiNIARNjyuRlI3MKCtdU2DZjAYgA4cb7QPvHRPFSV35vI+jMLNL4zO//WZsN8zs6PvQdbcd9sWocAbEvRGck9kUCLqhqnZUz/ZMgvv6OuJDtQaOdilFlDxOGFisYSpVBB5D9tMFMHETKz3UTq8Xp1Fdd0LWPRRWQVODQ+NfhJwhxJ/POyjUgsPUhaAj/8kWIK2PhHTlp95YdEjmeRPyUCP0+R+pDvhXzQw0AsAi8BHB4ja9CzokVd4LVFrAXqMyWO5ej68MDJIJP0tiC2xaq7lr1IJkgimZhRfUNX1xaWraiTxPoK+iAQ4OkEiBPBWkdFrANeKSUfZXY0peRV1lngsSo9GO0zRglkghHQ9HwsJQ1nWuv/lvuf9VmpwWTDFTWryaZ9dOkO4oGh/DVVZNcCbJFQV3sK6OHwCQLpc0JMS9BGoskJDVsDB2VA3sYZae5XCiKmVp006VcV9araLbFLNhQ9KR9Cs06PLnGb0C4n4KcRmHi9Wmn3VWum26ZmLf3Xo4B3fni49OoMSV3m/GSv0p45L+UO3XTsKXL4R5NqNdV1Xni49m8jlzx+Ynnvt43ML534ylqjuiyPNCK3+oDbV4KgYFilrPlc0iUQCsVlwIECvqqHicSvch1k1AGTpQXByFt+xCCUmOCcisEIAB5IGK6QwZkLmurXerzA668nUUBNKbVqOnb1pJfiXHtZAWpFpxckucysAJ4bGYJLRfkbnCZvgEGTUusS9ziFr1rISnwWFYhnAJBpgkK8r8XCMewOgUbpEFzeOxQMYspuHaZYAkJSA5k2pMA41Gn9TmgON+gaQoZIchq0TpoBIH/wZgYd2FfVWOrqtsFGia0C6I40VhINy92IApUGNUrE6LizQtUFPBWWRVkW9JghtYM+CBfJsGBhIrzzGY5CF0QTw+c05+FFKeERQcyH9isTKvF4GbPrwXdMUgCZDIYAmloT25z5ys00rUfSbidFqxbySjA+8mEkPPptJDZ5Op/qn0+meQjbZDzdJohoOHXK2v3XN7Ct30BsK9GYrL0Zy+XP7p+dOfQAJ4j9fb84ei8TQ4R5VQ6hSMjk/BON/FR29yLjJZAITpoDgU6poMNij7hqb+bTgyAhFWBSUjkqodmzMTZULc8MD4FGqCiF7Q4BmcaTtsk/G9pzo/lKAj3ZDekN0OqmER7lN0sb0fZPGLk77IDhYVDx5iSFOX5R0JDerIwFZ8KNtTIAHgC2FlHGFViA1UWJpwWHDUxHQaR6r12DvZF9eqLm16hwkHXbTRtwgaBSLIkgb/WXrdcYE9pp8sQw1W/NYV9pscdLlvpdS8/AUN9lkiIuBSMyUpPTeOwY966AhuQNnQmDj0xCUjYGegCZyD1mlJjAkQpJn1CYBriKAbxDHiRBuoYHGBRLcpKyD8gOaRGmRA/VI03zBKEYew1Af7CvhUCwPUJzx/ciE3/ROQHp9LRyKnguHEhO9PcOQApMFxETWE4lUMxFPYZ8sx0yqjtyeejh0OLjTKzfp3+xnesOA3lTx+VCjlds9PvXKWyemX/2lppm7MxqvRtGU2xRLcyYeR7oUmLtURKFIpB0lUUV3IT+HPXJbocJF8JmHVwX11mhQZ/2QOlb9JMsrcTqyKbXY/YKJhxWfE46xbFriZOXNSndtLyAlGWz8nJKO2vrU4yq5BBb08A2BWpP9g25gtO/ZCU9AY3EAgmLwmX2gVh2kFCclnKCSa/AxHSj0SNIhg/61DMnBbxNRSCd0UlQqqsqzM2Qd9kx4SmD2gxCE3+APerTZIySFvhP5fAl0ZSfb1e9/JcoQrCSxDPsAh4O8W5oDgqorXfZJzWXW3GN7vxLAvUGbnoTMwJ4bjydVbWbangA/4jch8ca5IEHCU2la7Zb0n3PBJH90JFArxWslGokjDNLkWDpMnzXG2aLRMIxo+Eg+HPYAhNFcoxYdByDm8H4ev5kBGE6AT2dhc87BfrmQTvUWPC9WjcdS9VQq00gls/W4l6zCvIJAm3gjEjpCBnLbZVDgDQN6F+YeHZ6ePX3fdO61X2qZuQejiXK6gaKQYZYqFhsapwpLmnD1DVQUFosMFYPvOXUJZBLaKxNJDOqBNCXqlZ10YlcKQIrHXQbBFx/K83AsClw68RlIq0dZILCgtjgsRSWcpeEiVvBcquZy6nUDi0UKHx5Mjt+qjQRwsV8JqlgnDW9cPceUYLTCjBSR6ti6NkgDnmu5IqUKMN2Sawfouu2WFjA34shY+izahVFl6eHV6cDoAJ6OiTwkBbVUmiM/6dMKjlWnh7S5k72VyK2abyVYvgf9WvAG+Ujs1QvBFgHDqQljtUEaiO/N4zWLvxcAkPP4fBZhM1NYsBZwbAGgl9+z6/BM1EuXYrFYLR5P1ACWVXyPDMZIvSd2q3OgLMOXbwjQGy881jczd/623MLFXyhULr4vFMn3YXGERFMQ1VR5cinoqYSGOhtiQLcBsB1wULXRQlrHpqRMa6t3iHS2mZAN5vt2STNLQc9KNPbZ2bQ2+17tgXqP3cfa49pSYdeT5m/4fQvzzIf9zqqni0u26zmDTrqLwFXzIQIJc4NSnn0mkgJoY/G6GbQdq6Ifdkt38t6m9wVS4sZAj89YQ46W0tUudnZIGvcIaVmcGAQ9Aj8rZmtdRTmP4Fawb/+9RAq2nt/gxB3rSFtGD3iVoBpCXYgIJDro0Dg5wAwh4SjnbcIVaAYAy0g5N1fKRcKxHKTVGajHFyERTka95EwkEpuDWr0w0L8N6nWiEg5H0ZI+CltPpLIte9+bGgyve9Br+K8kzkw+f3x88tTPVhszH2ma2eEwFktPDPBYNNsbV2gLfF2Tti0qBcwp0lMX2InTQLc2KNCmxznAl4Be92y9jL+pqmEC6Xmtitc1jja08EJWjbWjYRbDYkmv27y4FCwX4UlbHVRgt6C9yPPbDToBqG4Y3FcjCW1hy4FeG206bYSWM5+K6UBAXJ/D0j0tbCt9rzGJgXnBgvcSsNXyCwQ4gV01P7RhmGOzARBW0uteLLsBT3/frsQg52HDFITyCUAG5w2uY6+p3utgoZWwJw1aDzbf8zy0S0HeDOpHwJJR8VsRvMIlgCXV6GKpWMvBFjuZSGTOQjXGq2csmcjkkFZXjkcyJdNIlVAqozTcd0/3ZLkMJr7+Dt3odN0Sd9r0L0Rmyy/fcGbk2R+dmRv5ibBX3osXnBAVqLW0ryAOTLx/ZFq1wbSN44HxO9SkIV5BR0WljnNAgC5gsHaM1tI7pzNglTi19rntNRbtiTmqHAuItiVGO1mCop/ta3YmRht0ZdIHksoyEqeUrApAbrmH1q1Cy/ftSR9MZntAgKJ6r3Z82hS8AwJWIV3/fjVHhwwnOL9IYhZ8OxDRuf4K3ltmT6zs1aX6HgSXd9Ouy9wgoNMFREutl23vdNdCqfSwR9pnpoDVDaACuGEGRlvBqxtQ9Vm0LH8ERSlEyxCeJD0QW4mUILUZ84WfsGoPnHXkd0h2zUQiTfUZWX2hIgIB8rBhzsPOOA+QhHs6PrZr8MhTkVDqAsK4piAtFmPRZCUWTZU9L17qT939hvQsX9egV2y+sP30hcc+PJF79Zdr9fljiRRnN4zQyCxgMLEoZ8xiX7TC2pWY38NJ0IQBX8qLa11iq85ZgLAVUBaroB2mVk/r+if5UhAkMKsdTcFLEVDLTqmDQ5O5tBJJZ1JYRwUDrbsn9dJJGZEQlUtHLycVNV0n46V2SVGvlvxyycKAb5n7qluwcFzWHqAj5oelo7bU74Be5/w6rG5nzmrXt0Hhy49PJUNL885V9S/JtBZx3tLd0lE1AZEguZ7KLFoCcm3JLaChLLqWTnbaMWid5jvri7h0OtqShpcsDgLy7FrHcBp1TEmvYgAeA7jFg4wx1JBRBDVXnHj2OzhNGnBuoZRCsgQfH+yEsVlIjGMAvjMAvdPxeHoE+/ORcDLX17s9D+/yQl/i/jeMJHjdgt5C6WTffOn8HWdGvvbPC/WLj3jRZjQO/KJK24THEQ9WPYAtMlvgLLBSCpmMIEfGYZVkmfiqniwGPavW6Ardlr94nuBcHeVr6ZRZ33vG+YkjwRq8l0h7Vj3rVn+oDmowsm1EpCOT/y+R9laSpNqqrO3ktmjiBpNTJmp7Vi8jCdMTvAkWwlhVkF4P6HXAxaqrFkRWU+VXfwo0LwRmj0DN18VHCKk/XQRW3Q4OBWupUrPoIksk5EXSXfeBukhITez2M7t06elI0svTyWPyd0A/SqXtGFCmEeJeoiimYcvpi0RIn14gPTOkJgr+hzrMz2grLNJJAg/yPABvCmB4NhrJfC+bGX4uk9p2MZ0cmtvW89DC+jh76x51XWZkVJvn4xOTY3tHp86+u9EqHkeNs6iHVCACSAM9DWxoCCuZiM0lkGZURLATLPCyMf+yLTpIFJswkRq2WTK8A3wd7ypBTyV/te5tdAOzsckPrqOQ2i1ZWSCzk8pKG2pX0sANCc2VbIW2XVFsZN3jWTq+LoDUOwyCl9VL2bFP8r4pgVhbqF5PxtnuVM6/NbZwo5s+H+sB7TpL8Jx4f3bTkQfVZ4IPJStmlUewGDSWjpKFDWje4KbPXhoNtWVjqpIqaYvdVYoO6BLFvWaM8POu+xdeW7rZRVKvE5xQ+bLFuD97A12gZ51TixYE/W23SaFcZCcTrXuo8ewsjMHS9/zbhs7oeQmIzD6xbQBCzMRBmp3kh5tWvNX04zhkgAsZiurCNhQvFkqRd1frC6cLxbnHMqnc4+fGv3w2Fs1O7Ry8f3ajz/xa/+66BL1aK7d9rnTxnvGZUx/rGaoPM2OCDWIYk8bmNlL8kpNDsuvxkpWNINW9F/YJwIYTvEt6W8R7WotNfs9TCcsHgbQCABuf8MrAMn0os8mZdaz8UycCC5fqH3ZiWBDmh1yhmYjFyWcPCwYZcJY01+7egvFanBepadHEsjfPe5MBdIFcl80zAEjSeK2slJWZnOe23y5Rj61dzaZ/BU9PaaHPQenUCVxe7jrSS2TFLcjGkFOKHqv7QIoWSdqOb5Ets+tx0LHQvcq0B9aRwHScbT0Bb/C3HNf1TNuLnr1Bfe72+YkZJFhcWNfQ2gfjMVT0lusH9tU2+9C2hzhQZJqo+tthai0GS0BHCHa1ICo6C1ywJBoBQYLXWy0UAG/19GZ6e1qt0u58oXJzbmHqnenE5Hey2W1fHZn58svbB24Y8UI3XHee4M2IKasw0+v31ULju0Mnzz337vHchV8Mefm7ouE5VDtCrJ1sS9UDSEAikFlg6l5x9VhPQEBVRbstIgpBaVkqqRq0qHnOMre9WhoWD6cBWpLKBE0vnaDL/b59vMyK1Sb1ep9DN90W26asIb1zpsU0Xvv+Vh8fW2jqoyMAEgyCfXDBbvpe+nTt81vvfS49bjHcy7dLHBqXPN8u8JKSXnb8lwxBQW95/rB3whUnMCEs+n2HZsv+3tKJnB0Uql18+WV+vwKf6PPTxd9CaWeP75jGgwpEbHqPsrlA0cgM0tZP9KR6/2rPrls+v3vwztdioZuuK3vfdSXpVVsvpsfnX7u5WJ/80ZaXuxUpZokWK3MsD1fKw2K86nZCtZfu4Fea17majrS8zUjruq0abqEjWHVGcrUVlUkOW98aJK6J9R26TjToPtli9awTHWFPtfTCa93fOiXhLidO96C7bZIrXWmjNj0tFbYKiWhzvCROpsM/SxzbS06kwLO8zTeQ4inYL5Egl47m0usHfNJOwVm9fkHn9yvcaCBRS/xhoODzCtZLz/zsKGseIo0TrT9DsUR6KNJo9ZarE9vPXGz2R0O9v52vvngmGz/GckTXxXbdgF7DPxOZyp3aOzl97mPlyty94XA1y/SgZdbqyyK82jNW3tYKqbisiy1z8Ot9/s2O7/X+/eo2t/VdfTO+lPVdYfWjVrv+ary1nmu/3vzRob+q9x2NR0ceQU42PLvIw0YRrWpRGqJHwlFY0JuHUJvywyOjp0eb22L/reqffDUeOnIl1I71kGVTx1w3oFeszw5P5y48mFsY+4GWyQ97aNCC0h9ckzZFgLUm3evNdJsa/Bvgx47+1/YhtunfduapfdDadKhJtRABIRoJpEv2CGGzAdrMU2nv8EJh4kcR0zedSMbo1R25tnezvqtfF6BX9E8kJmdfOThXGP3BWmPuBhQSwAqEkkQNemqXs4l03Xw7eHZ5gmjE/WrbGurZGudfSw/d8pN+k/fX9rCsROJNnl/Vsk1saz3+tfhnjeuvrkfQz7b6+DfNH+ui78qCA22KVfRWoO2StSgjqBheLKD2JCpPsOpOKFK8CemfPxKLRc8WGk/PZ7y7EW29tbfrAvTmilPbp+cuPlSqzdwR9qrRSJR1z9iohWEn3d7MS4n9ektqmz3/ppn6deavzd7ftf79Zslzrce/Wf5Ye/wEXa3qra5q+1Ig7O3tRbXxIqoPMQgawTGI+4vAxscWBCGW30qE46XC9O1z85H3D+aHz+EnDvQ2y3R5/3Tq7Pj3Ds/mxz7YMKXhJDpVsUhAC+WgwtIIVpzsG7oMva+SP77Kr1dbqe0avY6SeiteoTuUYLmDNlq2aUMEuRY/WlNQW/nptKvRbHDcm31+V+P6ry9/2MgFYp0Fu4CY8p5VrFF2DDUTm+iT0oDEV0P9Sf4qjlLbEhuLgquoibit1oi/Jbcw+oV8/amJbPSeLd0bZJ2utQ1y1RX4WcMUBkvlmXtK1dwR9BtF2wrWtsMyg74NSKzBarMxwOPQNgNW9tY2e47uGnvL/X0FSPiGPcVmab9ZHrga1399+SMI4VoUzsJIAs4pnVcTExOSw06JL5VGcV1ZKbSSTAM1B5HGizqUSPv0SvtKldmbSuX5zFZnuC2t3jb804nR+ZcPTUyceV/fQHxHE92pCoUF098TR0kJ5FGL51WiyTdM57VMOqudWHxdmznBhkd95X64WfXpyo1kY2faDPmvxPO71tffGNXsrzRMpbN1e3D18zR6ZLJ6OIP+ddOAcsb3Mce9id4y2cwA+ok0+6dnRu4e7Dv0ZRw0ublxvb6/3rKg5/snYWiYyYb82VsiocIhVCPxQsg+sHFHjCDX19K0q8sj2JK4+cv7sbLAdb6tqV9u6fu71s/vWl9/Uw/nEicK7T0WBJdy9tL3lBJZ2UVatAMAy5mWH9mP3Pc+3z+FqXlo45LIpm5q7R9vOdDza68gF6YIEflinzFzt1QL597brE3tKiPpooGuXE24zEvIGWyi4wrjh7RJ9sa2KxHftdHA2I2N+Mr/ai1D91qS4JUf0frPeK2f37W+/voptdqRy4CZPXzNbB9Wv69JKlut1gpVqma4VMr3102FCc1bNktjS4FeY/bbGTP/yl4TmbvNRPK31Uzh1nr53EOmPu2xkyFzYFvo0eqjmUsLrQMJenXkZmqHeyuqX/5eysJLutnl7W0m7vW8Zxmi1cav6vvm6Pt6//5yn5s9/kqN61pff+P3wUfbBXrLpAGuDqxot+BV0VMEnU5Qo6VSCffmC/MDhXIOpYsc6K25KOWnvp3Izb56yFRO/ELMm3vI9/LbauFKf8zUY+l42czXWNUCzWwQL1Rnf1IUF5CqRzIlL80avKz6bkxqX6EI5WqfawrRkkT56+y9SnLX+X1c6+d3ra+/4efHaclnH5g4tHjg6uEMi2YyCxogZxeRFKFWCipuI1mrVXqq1fKWEqaWgs+WGZzvF7KN+tgDreqZ95r65IFIDCkvqCiLYoYmGa2YfJXVIlICeuy3KlKf5EZqtYiNCiObVU/babtbWxhakT6LKtHYijRde5kOm6DvRp/Len93rZ/ftb7+eum07HFtNCDzdoWvyOfrsfVSENE4WXbcQ3UjqLUttpZbz4/XFIRerwO2DOgl4s1kK1a+u1HN7YxHZhAAiRL/qOdWb6bQY5XFMtlFHhVgPch+LJeDeAHGMElZIyk/xBVqA3u2UZS0m8BVfxl77cS1wetudLxX+nei3trE+0v3qt1ugK5Xepwrne9aP79rff3N0LkbVS4JQ7Bq72r4pRWbWVMwjBxdVGYOI4ODqu2W9u9tGdBDWlk87NUH0dQnHkKzlBBaM9Jb60GSwxdszigSHROg60hBYzVkLwZVF0GTG910lQ6cTCtU+VgszQfPsqtsu2BeUNNN0xe1wY/uaSPsfr/0+42OvPt3toKM3Xc7zSzvdfsYAwCTyjOsuRZE5AdFMlWdZ8S27ll9ulNXjwCoIQtbYa9SqNY5tEVd26Whlhrh5T0XtoBOUj2bJb06PXcv92nw2bcLXizln3W+71zfPrfFe+UvdapaPutgyuYiFxbdrx1vt41PDrBuwuXEfX6LWqMwNbVCTBiIhv1GNRtqOfV2XbxEqa1SL8ETVDRDfaiHy5UDBtJoBJJdqWLiUG3rePrFfAFNuFsmno6hITW+A+hpN7HuCc5Lrvf9CvkcQbHNkNRLI9ddunjZNZB7hRWG0AR1yUT9JugttZghnJqThU1feGapzGvPcOleC0SudD+UzIJy420aUN2wTWh4/u5RapiBMjKvjqUETqHO9S+17UkBLZH0NraX+9vE77UxzwrXl94SSIhvA1zAB0IzfV7t5yfSbBB0G+x5bz4aQ63GP6s+H1kcOs3Xuxm9Uwx5eaHHZnNI8PEqM4Saotx9wC9LA6I7S9x6+X3pcStdXM/c5p8O8loElgUEVj00fo+jJzzSQpvlcDbe7EuaYl+98JWcZ1K1BooVREKJRjh765YJYdkykl4omaym09l5v5qSfrVNGEibTdT4j8dNAqWvvar2R00C6Jh+VkVw8sLMgsnE011PbSMPfumz6GZS7TTVMWoRLxYzsX0nR0kVZEpPWsY9FPzWMqpt5mNL0Uu7wjWNMqsBeDfDLpnw7crDwQpt04xEfednduW251he0ugsCRv7Xiv+ctvo3koaK13fjn8p4OmTUUnV3m/3fQcilBy1Mt8sfv6XSjuLewXrWNoO70V4YqXtxfuVQoK6+/B284s9pY026Cypq9+H/m69gNcZeGd8gUQdVBDXSuJMQ4OUx6or6EuTiIbiiXDutlbl7H3V2tSehh9He8pwpBFOLeQufm6qFc7ODOz6wPwislyDN1sG9JrFcqRWb9WbEFwaUGkjKHOOJsZIdi6bfAmvomeqABO0/zHhFJKe0RDFa3W199sw8VY3P1zKlF0FSQEsi3rkWSmqq+T74nXcSqSda3ZAYfkbWD2OjtIXm00vnfg8v8oPKilyggefiXTSAfqQdIF7/bbNxvmtfv9WMiUdrHTHv7vpy9sPgK+dp43vA71RQ3ZW3tYe/3Kd5PR8i/ohr2AWWOn8tuHSYkm9kzqpzcaD+18znm7jz3e1+5dFnK0mGzATIFsqkwhHk4mZm6u10i83UZwFCQUgTiTih7P5Wj37XCi2548K01/6fmboPfmNj2jzv9wyoIdYn6bf8BbCfqIR8ROeB3temMAWz5psMmpKoF80lDR5rCxlxOiJJSqGEtZS7eEabe2y3V3A0j0Y6buxWHLsTMjgwCXl0S/vTqx0032NNahh1eB2fqVVeS/vyus/uo3I6/9J95GrlW6SSddd6bkb8CwdAkm9fVzQ+a5tqtrc+Gzzb23OpC2S2kvK0lNbMF60X6u17OLnSW2Hm21qvjGiXrlfoXMa1FfedNmkkzGTjM8NmPpIj9+qsEkN6rF4ptXINFuN4X1oWAR43HsORzvQ4yMImXgt3IrPR5rpRqRe9nyUjqpWIDbDF1QpscJDxHi9MZPAJKhUikh01j61nvT3fD02y7qrTYqVpIQlQGeH15ZArFSySTOHnG9p963uc1r7Xfc9WLAN7H7iCNjkOFYj/+YwRThj5W050G8Te8nPugHRPh/ct6yaG7x/6+zBEKVHLu253VrzsgNXgqwY6nKJI0FPsrTj3CIp8vVg/3WdExoZy4nivhswN8XCZZNES12/PBGJR1CKCp9FvATmam/Eb7b2RsJDt0VDpW04NYHvmm1bRtKLRTLVcLhvsh4aKKfC6EQCsZkeoVorYVqVeVMuSltO04wjbIVeNzo62NTk9dXO1vlggpl9yeTpAr9FgMfTbnCiLTcie+729Wm3Wwa0F02obtsST7q8zWnzn4sYsInzB7Xelh0f0aCLxsuBV9uj0KUKE0iturlJPcGe3mL7Sk2kLrWhEvkIukse6CVe1EBSXXJvV0hQXSd/r3yYNC7iesJSb5izaKEGL27ZJJCp4ZuyiUFIqSNVrRVpoLFbsycSamT9/NPRUPbujYddbHLUWwb0QjG02ywlCoWxZgUEQj9OmEo9ZGD0xEx/chh5GQ2RiedrWD0QquIhGJKVHzar2q5cHmipFLccSMFDu+gEdjTdxwafrRASoAUUNnkXbVXVgp31Una1MGyXA7cST7faZ729mwGn5UFT2ydt4rwCaqv9vhvgg/vuEqW0haKVCCnVBs6Mduri6jNoVZuixIkyQDdYxLrEt8WSXGf87Sdt2SKoW3fJKIITaD3HVeyOG5VS1wkcq90//coww5sk5mKTdmyAnteKoghBAqYoeHTrvEn8bZIm2sB7NNeAghZvRZrEHQd6ZqHVOn9iMvrat18OhyujyKstmBCAbhY1u7IHdpneg/uMl0AQJDwdEXZm96Km0kCtwtc5+Lvz0Jdr4hw4BhcxEBm8A2KXxHwuYdJNJfx3SwqX2OgUANrnt7bF7tADFmtYRD87ua7cvh0HKDSyNFz/Xg3pK40nkJbaUrO1T3Y8vRqyQokw8FqLN1knKPdrlnNfxaaoXtrgWmuuW8tL9lokFEsDdotV1kCWo4d0NWBbQR1eJ6atedhq/Mlm5wzQCiMHPkwBBbQOA+zCCC+jx5xz1RAE2aayCTMUXnBwsJ/u6t6jNUe1uQO2jKRnanETq2YqoXyqEa33mnQcdbwAeDFMymy430SxekTqLdgMUqaKjIxqkfaCmLjLN7MxfUbq8gWv7lXVPnB+Z/uPapNkDerl500UQFiJMfScCjy2Am63N0zPoY2X9VxMtYPpF0zEPd+vtYUjDO1BrBq4KRrzDHoVwOZZYh6kyWQyplQKitguyqvkhLLNo8l/a87YFYex2b6/a93f6t/zPpZKd1bKtSADmxMs7Wx6zSDaWCwhp2wiQ55N4RExsOoleH+WN7oLegpPyIvlzjo8wWMW/SbALss3tIEpBuu+gThTMdOwAbcsQsqL1ADkTnB9e10eL8FQ/D7gQfIIe98u5UHyNc+7meB9HedqRlnY1OFkLFTLJg6zUxU8WEGKaAa9MxoLKC4ayYK1otDiYaLyYxg5XBkQVsLsKXkNt60DehB/o41EK17rMVEEOsZQpCGMwNkoVkKvjtWjwYBl7VFLT5mAiXjvWMV14/YxNj0hw3SDmX0eXMS7iycKc9ILT0FBGNJH2ewE4ANm5mCl7t7TYchS23UwZrNeBVgDoLH6hbAqxvHw6X2uoHNy9/XJ5N0vAuDKmx7L6dECHep1TGzoDzWYAPh5ETYVDcmw6l2XqmdPugna8RRRmBpW29YD3Jvj/267KSU9e6/KEwQkAgxNT3AhoslNWSYyE+VrdeaLxle9fDeYdIOenBu0SyDdtMmsDlkYwQmB1SASAFEyngq+kwG0QcTG99EVQCAUsCQ7M74TTCT8CNKSP31JuWQMKKQqcZTo8SJZyegVdC1I2QX09aa9VRKaVPM5dsanSoyq7rU0OYQKOnj0u4i+NrHKbo5Z5NdbB/R8z/cAetFG2kRrZQwMwciQiKMeI70BemxDxzAWRsDzoQN8mI+72a0bVKxkJqtbEPeVyfQEIKSrbhMrGZmpCQbmfmJ8RofAFZoTgX+SDcmkeNBxTIoYoqsZtZ5KoGACY9hhB2nCHqkMrSuylRztKm7HtZYkxePo2ZPjyU24bjLBst6cFOhXCgC8JEymrS6yYEOXpLQBYqKqxqq/Wh20N3DBRT/hIrQEdLslE8Z1Atw0FhIAh8WG0l0EjR8EJECvchkOslVsZsuBXvcQKEkx3ZByGiU1ZnDweYpfE9eYn50XPqnXGnjV2vxjg4+FjwNNQMMJVTL1YNRGKis6kIFnsA/jMx/2SVHIAw2iBemVz5i3bCVCOzarnVDiuyqbZCBh0Q0jHQ3LrY/c+WiEMwHamAA2PgtXvVaI0svm5+1m7mnrgJ6Uy4vWws04wC9JaR8vqI4IUA6DseXBcg1heABf7Uj/zdw+c3lVvbXgYgGPzMtXDczK0JlyuSJdoThJCFa1agPSW8tksxDhyfDESTAl94DEQPJrmVwNhQDBd3GJOfRMOhE3yWzCZJIpkwBDl4IuU92rtAU+Kcm9KrCHRVLk8aLiYBxsxozEb7yH/QQAHYn0BATqCtOwJGNgMs+/iQDlKEwMq21rB/du4vmJXY5pbiuxcQtVetASHqosc0TZW6VQqOCWsRBgkjYgGWezvasOYDnThf2Mc7cBaZ+8GgIfycIF+qN0uvSHRai98AtZlZJls8bFThdLNeAx95egR6Ak4KlEF4b2x45jBLtyPie27GQyIYungBglPwK1CHeUZFXil3fBAmr/3gR1L+OnXc468BK642IglcBBzlkLJwYWeqhukFiYtudAT4mLVGU8cUQ0RmshiHhSGh7qbSjqifpIQtF+14RkIi95yEujly7jOQWHUt2JSAYIrknOEyaiFoppgkkyOj4tDNsAwFFNYt/PnnTGeD1kwKjJIRWODMhziKSFMzD9zIeqA6ucGewbhHqLHgOYBJVCyZQXoHLOICoR98Wskm27EbYUaYqkRoa2Eh8lCDLyqpISA7Zh46yj1mA8msLfCYAxJw9AD4xWxWxrVLrlTw7OSnZq9A+FKQVtnAlXsmfaJ/G6gp7ESqiEu3yKVcuU8gAfHJdMIVcbHbxakKyjiTTex8UWykVjtc0+j+5juu2/KUjVok6CXyhVV1A+uIy+sAS7Ro12RLbFlmg2LEbcx4xHyS7gtTCzigT8rHoMezUWWpHA8Ww4RrCZKSfqJobg30TSM3FoDXGkZ1JqpffU2oS7bY9iiuGTvQLa0Er00QQkXfDV7GTtqYx9BPgFkQmYPZbv6viIBF/NUHj5k/gyf7FlJL3QwT316U9/toRCoWVKLQw6bsAIyk3M7uy+RNtAGMQEn1Ca4iar42XedPfh0meDoBeoAXWAW7lUhQOgAomOwKOrt4+LcpVu1Cn5MTgQtsBm2PRkBkXFWlwNg4uwVlmZm56WajDxWBJgCVUlsHtw+ec9TU5MSfEEqjGWkTke2hLXtsmETCIOSQ4A25PZZgb6t2OMlPigUkczAECAIa7bVroF8MiAHQfAZkFprUllJ98mHtE6frqSzZLOHTQMreWhLgJM6gtmZPS0KVcW8IwJUIgjg/S92raUPva9BZhGHXINFiiCXKlYgZRXA/iBbwCCPpyUjF2DbiqLqrxo2Bd1FiDIRSucVP4iRwPgmrD5elJIAfwDJ5UPbYfLPc9bQc+EEoCb4Cf8AgCMAQBpA7T8a50ovKerQXtqsILPAnz2OXAh4osCrf2b5qlwCa8y2G9tD906nvpGD9kyoCfgFjEFzPe5UCQMpyZYQ+xiwg4AO0p4AAKufnwFi4UnVUI2vsXgaLBd3LlSlwh4YN4KgK0G0KMU5UGFi8dSUDHS8jdXN9r0/EbILMyxbwerdUCloSeNEAPVJEo1Aww60LMdY8doEbxZw8RoQdXi6kxJFvFKpuGVTakWFi9rMpkUjysZen22GKi3UKWKhYbpzcRMJjWMCRSXyiHJRJ9pQi1i0YZ29WepNEJ+05WYEkaLIVNL7WKXQU6q7KttHUfQZZx0vYfyXlBoViRVUXG7bXwa3xcB37SwoCVBCzFZ+HAstEqS1+2hnaiI9euwMVmw67a9EqymZ2dFC6jDBEKwE78aluwkHFwsgxaHJC5OFIAjTSJ1SH8ESdEccKwXguRPFZ1jgN2O9rxYwoNEhyB8AHYNlYcoKTUBoGyVUBcVuWbqZUiDkAkyvYiDg9pL3rGawlL73nrJebnHEehgeRfAC4MW1NDCLVStIaa10OZGqpdhkKiqjNqixVArPg1T1Rzs85sLubjcgS45fkuBXi0SLlSjkTFkW8yGvehgLYp6ebCTMaoHkIe5262KqbrZjrldVkUL7FjLxTIFjE41uQYbXSFfgs0OK3UJYASVhOphysuC8VDcAH/TRtaAzX6hUDXTUzNmCq/CfNHMTMA4jXmHU4CZlbrQOiCBgaGBj0PbUqanJ2W27xjC330miXZ5aazg0laPxt0YromGyZUFSAgAr0YF99gP8y+dEYEXr/3MFt0HDfGBAwOTn2p3PAGnC0J/qlgI/GZSpFQECXRsK7hnMiQdLFLHDZNTikAuqgeo2uIlkmvg21n8OSYiJRo5fvkeI8yeWb2HhHr91ne9JePCIkipVn9PFxHVRNyPuBT0vGGcGCnvYtur0baHcWK9kk08jCyPJOO3hQO6Q8gCb2RgSuFv5CeB7ZQsV5ovC7+gSga+U4dbJAzAI8/g/eToPBbQusnDrDE/lze5XA58Q8kQPwHPwGeHZ6A8gygtk8lGTN9An+kfyIJXYmZ4e594+WNQZ70oB84FH3ZcRAI08ZqtodJQTxLgiesm1HlGEWuRhLqU/9sgz2M3FzIHZyzuW6U630ckAxaVOgKSIWPLucljDT9brJuBMxG/5/FWKz3t9dxzTfOothboxeOFWRP+Jrhy/3BvYq7ie71T1VJvpJVEdBVrv4EJoV6q3UwZm6J/ENEkDzuoPiZhLZztISZEQ70g34qnDSCaSLA8FZm/boqIJ6pWKmYODNmqwfMZ68VEhoRUi6DQwRAKmPaaCTDuhTPjZnRkysxOLYCBuarL5RCLREO+2jVUGdcZRdN5BdJU7hwKonqIN4xPm3TWMwPbBsye/bvMgQP7zNCOhCnWR1GLbBxpO1kYrmG7mS+Y8dK06e3PYLUH8ELySwR2oxKqzXD1jGN20FlRqSM/uZE3sRRS9sBqhVIRcYw4TziO6tLsS6oTmzXPBOxwlExughxWZdnb8AIBAQsG699LvbnAoK4SEw3snT3jEG0Pk2X3AjpKs8u+Pn8jIKfefN1z4ne/Z5wbFgJ4mauglwcAwaoA2hUQLwZTiYhm5BWqnaxY0+XYEscCJXikWOHvdIKV0CMmN1eAV3bBVIpNUU/rWKiacErGQPtEtM/UkSc+PwOemimZ7z91AppDAy+EEWGqi2dW+JGeZSxKPiQiSKl10KA+3zSF8YYZCy/gzuZEu9mzr8/0DSbMgRt2mt37BsFHvilU5uQ+46kEbgXqOxbLseIYmnFHzdDwAKQ+3C9BkfOFCxvte1gIJYMJ9wsBVO5LnDtSz3FjwCcLCMhXq0BEwApfC2VNqdVTQi3RyVa0r5Rv+M1oJFP3w5nz9XDfE5HQti8mTHpOuevabVsK9LLbdsz1HTjwpepUYrQWK+0rVHJ37jl6fFd0W+32ulceYgwW1Us+pygYVFpAQmLSSabxejb9R0ICwKDsUayrXhCTRWcf3tMbW4d4lssVUNAAMYFYlQlgjVIYidM9YJW4mTpfNC8996Ip5OpmYbYGOxC7PtG2B5sjnQV4ETzUEK0PUUuDBm+oQmLCiOqLgqg5/D4/N2umxyrm9KtTJgVz3LHbtpn+bf1iF6lCxY3FejA+XC9Xlrg7MX5jUtJoreEp6mkmw5KXEQIg4K5l6znxycQ8TquJdADFAovSBZUKg98F9qMNAJ4Cld5rW8Kwksa69+sH2EuBkffL+1bpTr/n/SkAdj7nBFfbkrWg63i5ZNLhRJsaiQkwElUfv2V4CG1SWCgZPuLhPUGjvFCESQOSOQCvVYeTDRM/E+uHXbYHi2fYjJ9fMK+dGDNnX5sw05M105fpg0MDdrc6pDGoLBGcPwrg4zMMQ0Jk4K71PvuQXIV3pDAsIxfq5uTzOZMALp55ddwMbk+aw0d3m0NH90IiZMP7PIAc4CZB0sxxBZhzYbRaD9BNBAQ6UegNkbAaOsdo74NGg3un+WYzxQvi8CpDvxYho9pMNkrN/ueTPYOfS8XSp0NNr9aoo0hcqGc62siMRKJDc5nhDyCc4dpuWwr0hh65v1Z97IUTsVD1nOlhrf3xP7ow88yxkdLJT83VL36kgRwXMmgDwcs+DL4+Vm0+cFFv2gb6AHykQ5VKHIzGZ+FR2u9o3C1Dt2AFZgkMbiZMAUycweqYTg3CPgaJCfaS2fG8ef77J8zcFOwpUENaCGT1UAchhgfMxGBhJKi8VaqjIukpqHRyTRX64hijABPlLXSEp1RZqULNgbQQigEIZ0bNbXcfMUNQY2KJLFSVmFkozZgSjNbpVMbk82iQhNU5lYV3FsBHTapJfZpXEtQj4NJITHsVXxoGITotI/dtzcF2SCbBIDAuC0pQUtvYSq+Tq6tyM4FEEvnXuZfr89qbYMOlaXSLPLnUCLStp9KFe1XHKNXxvcAmRGJbd5CSkK32TLKI91Vi4XxRTxdmwDcAPFgJsTjCMdVImNJC2IzOTZjRi3Pm4tlZMzWBBRXYE4PdsFxgqAwXLi6UDCYGmEomHMObbG602vUFkCXQl1BFT68P51Q/NIW6qZYLANIyNI3XcP6CueHwXtMzAH7MYpFEeEgdUmOlXDJzs1g4wd+08aWzkL6gkngEWS6TYnNWs5BW+NZ7VZ69/M3HSp0vAZTRvMtHAkGp1MpFw/HHhwePfCmb3HW+VkEPCC/RDIUzjXjfg9fUedF9d5vgtssn0np+EX/4OGcSlyu+THHsP8fPnxr7TnE+9HAqmdwZg3HXL2F1gpobhnEYSzCAgFCoyq5d5TRAneI3sxWC4NHAK8p4uwLCR5pQZyM+JDy/Hww6AAbuNXOTo+bUqyNm4kLOjJxvmZ4k2AQreogGWg+GOgAGnQP0tBFU2axI9TKb48nrKhORmeh10+BSHAG1M4YJ1PBpk6GEUjNnT8L7VztldiB05dCNuwF6g1CpG6ZCrx0cHGUYEinNMqK9pycD1YRSTZCJwQKigQSjQLaEeUXiIeB2+bcJchJqoJ+J6rPRuCnbVEikk4CnL2tPz3gwnvUwx7LHLHVkWRqoI6OjM3d5FgNpWIZtJdJF52bQtsjvUrm7CV7L5/JmZmoedlcEnHs9CBHqgXQO210zY8ZGx8wLz79mzpyuYjGFPRePIoWwmDhqQZbzTFNkyfRgqjEdjmoleZKOADizLL+oxKXVt1V7wCIHZxoqbyAcKYvHWzKTY01IkONmarRoDt60y9xw87BJ9NJhgkB0qLql+Tx4u2p6ezGGZA8ACVIYU7/Ad9RQqGMz4kE0CFxQ/Fxt+fdyHwIkRdgXCXotPMdaOTLfbPU9G4vtuRhJfWT+cs92tY7fcqC39MYrkHxyobqXk8A1gg+ZBeZrSfPBg+b8lR8FamWgtuiqSShiOArVExYzbJpSAYAHFYU1+jw/ifchM5jZBwAMm9deHTMvPX/GnDmJcvWA3L50Ep+DRLDXUF2kV1R8n1BzJKYX52fMldgOrd4U3IBOOa6o9GZZ2IGSRaAU9ZNqaswMZCJm7FzOzICRC3nGaPlm78FtpjftQbIYh6kJAEuQDBfEIE/vLm0yjAPEf/iDoBuoZEuJZ21rogJ2g0H330sGflmcZxfvLlC9nN+LNKoT/KpsQgN9XkIzkbSwcNARRJkv8OBoGJSmg1EqY6zf3HQRtjOmnQ1AKxgwzYoHs0fLvPz9FwFAC2ZsDJ55OLp6UyiGEUbuaSVkZkt5HAvThXiNeTmeT/4QzYPFN8XTKTUNrbzFsZF3dGoykoDmHHpzU6msifUynAp23wtVMzd/WoLbdx/oMzv39IM3kJeO7KV8aQq8VIVjqyDB89BvJPWRUh5TJ8m4GkOndvGNxj8w04I2Uh/zq46bq7ciC344PReODawe/HhVHvbKF9nSoFf1n/Ry/sVwKxlNhZOxEMs4VbDyeUCcGLyVtKcwFU0Bjo/PTm5yk6qbDBpWNRC/hWpJdbGClVBUDABSJj4E0TxtTr502jz5xPNQZzXuKBHBKu73YoUF0AUpS3IeMW6rHYyrZ4vS5nKTFh/TrhjBKsuxtJgrDKlTgnnlRekTnmF4vJJAsRoaIr320pR4hu9+6EZz4/G9MJwPIIF7BmANIzziyvJQqzmGJAzYNnTi0hajgcop7EwG5/gCd6VQhH9b+lhbKOmmY7qsvZxPJ+nGNqWn9lvYxPXb98VbCwYjVat5/yQD9900CKQ+eW6q3qm0oy9mOIjTB0JyCV79Bdh9q3BGRMNZFMJAMHktAa/srBmBKvvkty6CB/Qy8TjM9HBkEEir4NUmbMRUp2k002FxGcQ/KQZAuxoFL0aTU9WkFBY8MwEjjUwY7NuO4GTYkaGair0OTpk0VNcm1NbCzIx5+vHzcMLNIQTGmAOHh6HSbpNjy9U5k5vNc8k3jSSkUzhAuNEZKGlyQUwdw1M3/vjoJGHRD04vKOUxuNAAzjHED27lbcuMrlm/GKmVK5j/SMKN1uH5L8EsW07kilOHm6HafnikUmgTCU8ZK7KCJRmCgPSDFkFFnhonUDC9bVoVmKlUrUj8EkMrivMl2F+QHgN1ARY6qCbwgqKv7kvPnjHPPP2imRmj5GZMFmDD8IPiQgN2Nai0DMtgMLH9xzQmjC6C0BNKmwKA7aesf9kp1gBI87fiTGEIBeu7MY1IqmhEsCrXsYJTvU6Y+cqkmRqrmaefeFVSp266fR8cNkhzw1LfaFYwduaJcrJA3WF8HEE/uC4lBoIxzNmivrTBrT0Sy9oEA6p9+p5ePDm23f82UAvX9Z6zaDM2OQvQm72+HXPHvGEJo4YP2G7Fg03vpXr4GbIjGA8vtwKiKpXi0QyeF7UK2vGqsOGFEYpBKa9Z8vCMcuaVly7Aoz9tUgj+DgHcWEWJ5pICzBnCDwA+FqOgCilgE4CwpIkxFIkZR4H0J9eWfG/iXgC8Ar6aG+zBvEJFpwg7L7cUJLokVGfaeCfnR8zFU3lc+yxs3U1z8Og2SHi98AbDwQFHXaMKLsO8idKpQZ4LGJOgx0iGiuQeb2yTkCDEP6qzkPnCfn+9OXdsJnfyXLn+1ZEmimCiukoLpoCaH/Jqiejh7pVnYxe9Ar+65qCXKz/ZWynndz3z4leGR0dG9lSrpW1+uJZphMsJP1ZNtbzCvpGJ1+5Dkb1BOopqC3mTBOOUYEegXS4E50QzSLkRb5yd8IHzIAZ7Gh94E97TImPhqng4qEHvRcCsyPE9c3ICq/VzcCwYs32o3zTKETE+s3pGDBU4fBRC7KgEDIEhuAB4qDLjxRQ1srX+v7NZEEykaO+gOkyg0d+K2iSHYsUHABNDK1C9e7ODxks1zARCY56snUYIAkIVjgzjYlRh85gAOQAeVGCs3KwnaIXbjkOBYMwK07Q3MkBUVSpFNysBBeqkbXEpw94oL/Iu1Su4sY1GdUrNGw3b0pAkvT8LeIGEZwfEocE8oAF2FMl4LXu/mreqUqY+RXkyDPWgBkE7FeI2/QZS2CDlRRBwW8g1AXYz5typSTN50Tf9UGdZJ46noW8UeiROpQUHpBiA2CCCS/BrUSsl3BgLMe1r9nl0KGiXJ6EqeJs2aD7H3myfLHYEQKa7MYVwx7bdJpcfhx16ATx2zqSR9bN9TwaA2wu1swyzySzi/VDNJ4kgZwZqy3DAu4GNUdtnbuz5k2wNKbdPGtBTvLCzmCv+yNjY2Zujkex5tMgowhBVzGQHZzLZbVMnL35+dMeOGy5mvdtzG+OXK/OrxTP1ypxz3Wd5+dznDz77wqP3XRw59QPzs3MHkrHoQDIaTVdrxWizVQlHUGM1EmumUbkhTQ+V2F4CjU14R6wUlM+7mh4H4StMV+PDjEF0K0JFScczUIkzADR4ccHArVoMdpEF89d//qJBjzqcI4gmh4RHKU/eB84Ben2ZRVFvQL1AVWfa2JgbSQ8ZU9IW9U0NbGdW7aR3LIY6d2TaGqRUgh/fM/2NEfoReAAlXAKZBaxQ4UfgYEGFCoYvMFniQx+73Qzv6YVZsYSCBXBwtGBvhDS3b/9u8UZ7YDhOzoG+nWb78D4ANSRDjN2Dek76MHVOQaEb9JR28vFSY+S6n56eA9FiPMuKv1o9TQ2LwCZzfzue32DyXqLOU/Xi80KxgeKcmZw6h3jGGbwHvZkVQ3e4QJ1mqoTBYCxMkIfdtziPbJsag9LZm6Uf9tg+89jXnzHf+dYF04PYSErhdUzrFjJyGDvJXGyaUNDiSjN3yIGSP62xilwwE3j2DeiidUjy1ECYmeGJo4HFIjgUPBcsphI0Ljm9ahJpBHUbyTu0KVMaZbgI1/tcfhqLPyuKI0Rme8y89Z13w8Gx3VycfBWAB9m/lcf1ufA22vUEGblA/uVnq22rpSmqEGvto2oyULU5tID/seIAShhSL4M/uWTy/f27zw4P3/DlYzff9+Vbj95/KhQ6ek08utdM0jtx7gsHHn/yCx84N/70j7VM4cZkj9ebijWwNiJFCOWkmKZFzbUKexaZUAz/wdziChPwansua9Ct8G9gx+Fe034SDCqFE4TpYmmoBbThXbg4gRi8C8z1lxg9aWUXhH3IowwwQlLUwKCVaglBqhVN+4FKU4SbbnxyEh7VPgWUJRKVrPpc+xYQbg01Igl7TxJB0VR3ymhsxE1qrbG+Hm1KVBU4STAGltKijy8Chn/26VPm3tgxFCbow6SdNQnEgzUxYUfOjSNaf0ikAN7j9NScGR+H44P3yYwSCbRVsNUtUAHbHG6ls42t8vac7RaKK4SqaN9ZSlOBGrlkr172jY4BdLNFeLtiNbvPx9hGTmyWk6o3iiY3P4E9eAyByQJIdDRJ6SNNzaONi+/rWMwYmuJDteyBM6I0FzZnL1yELQ95vHyyMI0wAyeb7jULMJtQDU0gI0LDirScFevs0ZFAabJcgQpKwxtMIrTvMniY4TFJ9G2uQ41u4hnSFkcgpBTG0mMMN2G1FQYzi8cVCMcKJi1IxzTtEDhjKDSBDoLwGCPdLVQ081NF8+Kzp6UwwcD2nSjwOYl7hX3aQx4H5hLvmTUEE3GYfOhUaXvgLX8s3muzcz6fS78XB0jQWL4d9qLe+x78pkfXQvA1zUAsCteauQFhqkdffLF+YyIe+i18+UKbHa/iH9cE9GbyTye/+a2/Ovjyq099vG979bZYrJGCqRYesXlJ6I+AKbhOon8wpDLimIrl8MhLw2+xQpGgeEnJrmBbDHw60ZjAHUcduwYCg1lMIJXMmjykvdMnps3Jl/Mmy2BnptHQoC17ezL+nsUNyMjo1Q5GaRIYccEaQkgi+Gxwx7DmtnI8bfsMbUhkB/WJDeEYlqJifF4Ty10CIRCZHvAEtiYzRES96wIkkS4ZuEp2qWKc9MCdNwNDd4H5UUQAWRfxNDx0xQV4FHOSVcK4wxIqeyzM5yA9cvIwJCEIRrWhEktBb5Fhf6Mcp7awdcflLQU/PsJ2kdMNjIELnY1JlDxcq7p2mILn14nONAQAGWIkKVWzEIGAHiRVdS6xAKtK8MyZZQZDswEJDK94pNeMTE0ibvOUmYanFgl/YpZgQQcfkaNSOJZVdfBCVWCAHoOFcR7kXo+OXzTZnnRQUh2AyCrOXIggsUWwEBagPofBg/SCRoPiF6QE2tmLlBenNM+SZZD+uBH2YihgEcNvKOGzPBaS1CT3lSWcuAi++tIEMnpS5oFtx3Bb+M4jP6CSD5iKjaW5EBKcyTfsNaP8F6jZS/b6fILJdsmeI9Lft0GP/NslbasnnMANObde6q00wunTc3Nx5BGfrLWePBcL34sHcnW3awJ6E5OjvafPvvwO5KceQnZtql5FSg8qC2NBgAqKjAiIeHSz09OklUYgN4HumtIUmF+ETmqHEXbAd+r8okTBPYnPrykWIgUNRmYPoMao+QtnxxFEOifAYhA7JylIgTerQ34wriKPmUcgM1tOJjOwBeIhF+BF44QZQPDw+PiIVEeJoxgB9xxrhSCHsAKCXQ+KkHoIF0gj1IRBonXYYmZhQJRVHUNNpzEhAlVdr02PNCBf7EKwR5oCJNIxpK1Nm0O37DQTMzm5r0EEreZRay2JyHyqO2EezwmLJHpKNbyWCnmBlCXOCitRbdyOs4g9GUhL0F6lHt/qpacC9XijcYLkEVmoeG+qni72VmtIhthd8SwZK4mCTNhDmmYkEm1qWEmpltLeJ2oj/4m3FSYCBKPHkZZYzjcQszltRpFtEQIfJSBdMcQpihMuzAEEgzJPBBPa2wgsjH/0oPIO7dwm0hsdaiUsfFoRGc+KEig+jyLonCBLfqJ3tgotgKOOwWNLezClxAYBlcAKFbeBggOUXqkmc4shdpQ25zodKJAKEx5MLsUy7I5TZtfeCSzM1CZQ2ALlqsI4Zwi2YxY0DcehtoMuCnrWPHHpvqMp2IWkay+hWh3Hi6paGmeogQDkD3zEWFk8Io4z2xPzEHKz/cL5E/dNTlz4K3z75gC9SrUQxYTd2d+fSTeqkFYoOYERUqi3T/tHHRkXNU5k+lhtXTCx3enzYUiJDTuzamhnMhIdLfARCAh0OBe8o0mEEyxMlc0rL14wM+N1M9i7HY4LMlRXpJKcmA4RPWMcdo9sP1RK/Csy4n0BZYkAXH0D/WZgeKf5xI990qSxkg8MDKkqg1HnAZJzM7OwJebN177ydXPq1ElzcWIcAJiRWnxJRNF7AKkMJLaF+dlOGhCuzYR10QgDtSEDlXhyfsY8/8yrZte+AZyj1xSrEybWpyDKIGfaUehUAelE9KXgQkAlk2luabfpRA3p1vC/uDHQIkhbxxuAxCLHwKU/IRivvFGM582udswqP5dF0E7Cbkmv46igKscJyLg4joXZDuJkkGwVzdQQOYWIyMKr4gehqYOmAQSTw0Z6Gk6Ls6ehFsOs3BPvFY2AXnmGjpQK8yaL58qVi5VyeH7m19ZBdxY4mC/kRSsgCPYNbTe3HDtmjtx0oxkeZngJ8qqh3vIZMPZuenLKXDh31pw5dRrXe81Mjk+Y/j7wHrSfJM4RY+aD2HWwsUUqAIze+qgUjFUlNAXzRxhglkNc4cuIOX1k221gBuRi11DFB1Ij/hMJjxV+JDCmHb+5PJ1XLz1GHUyCRfU56sA0QkjAjxIv4hGZVE6bJT/HAoOA7yjGm8oXCxsNEVwHb658yDWR9LLZZK2vPz3XqBcaKRS+bIYyEoBJQGP6FUV0rmaZDIpiIr1G0oUCSUyEFfyPUiEfM0mrXjfSm6RW+5huKnYzh7UHgZ0ebB8Xz180FxEMzEyuKK7b8MHJXSpyxx7EChvGXBg9C1VhEKdCbiHOs2v3PnPHnXeaO++51xy84QZTQr4RMy5ojJZyUJxEKI+Q7RkQprzvgYehbrxovvHoo0g+f9LMzs+bFCQD1gbMIdYrC8+asEub+TAhWUZITGHM6KigbFTCnHkth/O8Zh58602mkZuFajtl0r1JlB5SycRWf5ZMERZbheTC+44yiyRwWnTAzkpEXYyxkTi5ILxiCQEXcdvqNQFtGpY+u0A8WP+ez7pdQVvNEQrw9vnT6M/CEnyv2Sss9qlrHOnGck1MUQzsjaSUVJ3WmoRosgxzgm9OvHQW1XRgVmB2Ax1HBB7OYGwsBsHnXobNl3mwqUxaJDmmhNVhd2NQ8I3Hjpvjt95q9t1wyOzevcf09CH+E2oOK6dMT9PmC0BE/vW+QwfNnXffiRqLE1iYXwLYnjTPf+8ZM1ucEaBOp1jaDEVLgcxcNJvgPUqH2TTUXRYUJSdJo40Ygpqr5gKk02lkkQztpnNOAY5plAQ9q+KuhR5r1VsUOU9MCwQ+Xby6c3klApHpn0zFgzlgAYsA2LK6fXj32Uymjw6Pq75dE9AbHBpYOHb85m98+5unPxiLtIbwyOCdZM8ITFSsuDGU8E7C9Z7ASsrKxBLkyxxTkEfiTWUlUcZuLzCLSEcJQm1N9KLBJIywlaiZn8wjGfwMGBKR89lhrNJcKa0E2Y18QWMTnPPo0cOomZbDwyqavftvMO95/wfM3ffeD7U0izCTuuntGxJHB1XZIutLYay0lyRQDp77c2fPIWj0RjD7fnPwwCHz7W9+w4yPjUhmCSuoaD0Wq2Bw3GQcTDyqM/irVisC9JCDi6IIr7x80tx863aoykmTn7poMvQwszAl4sSQ1h14Yun5C0qYY7+o8nJbe7HGac3D1G15Q/bqn/MBkIVWltRWV29FrOI02dj1MXbGmulmJUae00pDBAD1fkpALlVLyTWl4EG11lZltFIxl0hKzPTcQ22E6WNmOg/wYM088Ewyg6wMVlZhdkRGTBR8xlRNqdbynGIrQzUXclZvLzIl9u0x9z/wkLnrvvsg6W0TlZITf3ohJwt9b28WWTjIBQd/cZxp2Pl27N5thga3mbvvvttksVg/9d0noZlMSekzCS4mzwJMWcCUTg4tPgGtiCYepjfSucMYP9iuX33llBnYeRyHQ9rDuBjobGkhHuM1Ou6t9vxkxtBpQ2aV+RZ4goMwGGtuwrpD6DNR2NOLyBSBUWd834Gjjw4MbZ+76oi3Kre+jqMZSL61fPTw7WdbzdjL8IRW41zB8LA9qCIsoJnOZCHBNMx5eMs4J0k8WcAE5DqqmZUwFglqMm4yBtVjxrMhtxaqbQiJ4TMTJdjyAIDgtm39OwB+kt67wqYlmM6NjJoqmPoYpLsf/DufMO963/tNpq8f5X1QbgiMt1AsSYwd8xvZ8yIBsObqXsNyli8UUBrogHjxklBl3vHed5v3ffjDpn/7djMvKgaM5YFqp1VRKOFZ8OE9cPyIy0KAKTLiwPgGjo1RqDo9KHuFAFTYZrRSLl9UK7THAiUPTj4pkMqwDL5wnL66/+Zkt/aWDezhMJHSTgQfrOTL7VuwmYk9Z9k9J50GzG5sHN2d47rui6ZYvoQ2yh06edWraj8XMJSeEyopS542FiO2KaDXjN34mI1RzNF2xjCguFTnoTSYxLPWBlFQY6XSCfN0IYXBPlcCbxDRhnbsNJ/8qZ8x97/lLZD+42ZiatrMzCOeDk82CdBMYeGch1rboncfEmIM0l8NAy/CvEM+iOP7v/vTP2Pe8vZ3wnu/G6ZntFnkOGlEwd8J2JGTWajHuDO2JJDSurg/CV6HPZIC2JmTGHwVmT8IjaKTS+ybEmiqdJE5JX8E9QSX7LXAaeCcW7LXCtA8AnsKy/KePGhfamNG7K20JY2iTSRCqcqJePaFnTsOnEx796/eVep1wqANGlM2P5q+zI0TRw498BdzlepkHpVsUQsWj4wFOVFhGOotOAkpPZBgaI8RSSAoFY/VhA6GFhPyWTo+WEUkXi+QVjQrAb0FwABVrI6D2Z1IPYubZ588j3pzME7DG7cA21wCFWcZqsDYLFGVwXCs4MJJmIDHt8YJAGP0bqix7/voR8y9b3/YlFFyZS4/JzXsbJs7qVjH1R6GCmE+gIwwIBhrHs6GBrhvFr9hz4oH3/aI+cgP/ZDZe+NRUwCwCzRDsmCoSp02GgY/477qTTArEswjuF9KqVFEAKCIrrlwCl7bcRiEk7s0LxgbslhktSegab8EUACgq1vgtGgHoQZ2NMk9JbtqQ6ENvdrhDF0Lkb3OOved6idqxlj6kgfc9aJBo/1iPcD2BNN0MqqlnZdKodRe6eVu4NmwTBTDQEgrAToCCLUBgG8aUhWLQpTQPCgWQTHMcss8/vUXoD4yWxrVVJC+mEn3CSCV2KZUejPTE8r6hViYINlNzs6ZEuzR9z38FvNz/+AXTaoP9fVAJ445iuO5GImkxTAZxmyyag95gCQED9Opwhp3NcZx4rh5OEDe8aEPmg//nR82LbQVmEPoS6IvDWkSYFwt4FpwgIBEDfBAE3MCHCwUYgZJpJExrWLYfP87p0zaG4QU2YdYUcwrAOU8vP/aXkQX9428xHxEZwYWvAgWCL7CKLUWQbB2hMVU8TnTOQuoETnUPyR1Bwu58siRQ8f/YteOQ0j4vDbbNQO9ZGxw7tDhO15qhRLn2QCYer94zfCw6RXzIYonAXo2Xch6HlXqU0eDvNQi1tlE9+VDZ9AwhGpKIpCvq0jmb1TpsmPtLwb0ak06Wfk1CEa8e7SNcAxszsK43iQcD2Tg/UcOmVkUHM1jxWKDY46BAcvWenSpmq3fsHQ8PXVU18tg4Bzi+w7ddNTc//BDJoZ0Ika8KNgxJ5OABQCjpxFgR/CWCcuDwEQMkyjBClJE4jtLG1G1tTmdHTvWSoxkR8rv+divxKv7Wvb8l7dXk0Wg1i+3X3WcS+91uXuyxwTgbxeBYDkQW6gY37U3LulC4CPP5FH+S/1AnNy6QEjQCM2H+F0DfxDE6JmlVE2Jj6e46fhxc+udd0FSywiY6JUXTzXtKaFjs5qKxpnqcRaEyvS24sA9Bw6aex68F1pGr8lBNY4gbCVKSZ4OKwEtlqSyiw/PzRAsqOgIri7mGHPIRV0rBNmGU9RA9GLLS3lrfa5m2AD4AuePOoH0OdAsxcU3C4mV9tNaqVnp7Rl6eee2fc8m4wO5lTj19f78moFeNLy9ceTwTeN9PdufazXiCxD4ZYX2WWdfotHBYt2Nru2EIPOIJZoMqLavDqsH9fqFofTWJJod6DU3x7LdsIkE6k636mP/pueNjMSNx1J9veX4MfPAAw+Ybdugki5gEkjlZThYAIpBiN6qz8g2+WFYA/8uQOXdDvX2wQcfNLfccouAGoNQrZ2F6pLaoCQEVvZS8RkIz7/nUTpoDjZGVSquifPr9ebJq3f+IIhYc22p+lH6AxfCEUWeGR+bVq8oJqwEWQf8RLRSMwGkcKikVTw/qm50EJA3yC933XWXeG2lwCe9mEteWsdaTRKrvaxZgjzzyCOPmBugddB+bDugKUgG0rClXNdcYcYHCxJQs+EmKjnujSmW7f4lFiwvdy9nVBt0ZxYGnwmCMz++IdJxFV35yqXm2K6dh75wYN/NY+nY7dckG8OO+Oox2ZIrZdID00eP3PoFxM6NVMpQExBVrnZV1g/Thj2LNwIeZXIAEysWt0NNeFzHsmdXUF2F6NSDejk9g9g5lOkJvFji9BMXKXtEiLVHrkd7HN/XwO19UE3e8Y53mJ7+Pgk9EEMznAr8GUuPr26k15HzGElNwrlpr+R7eqd57re97W0S5mKZj7YiBT01NstKy9gvROuTgeiUYa20WTh31A52zR7dG+bCquBqQQgBGKaQwXbXQM712Oi02gbhraXtUiZ2INJboNRqKeptL8M0swu2t5uwmPWgoJ00Wt/kxoWfPEO+2Lt3r7kVXuAeBLfz3Jc2XQok5i6pkrw0j14uXCzp7KBwJ/F5VOklRXGzTGTNJUs0Lt43aMVFg3nuqDpejYQzJ/fvPfrU8ND+6U2SZVM/v2aSHkcdCx+qHD9+35lwuOdUoejXI2hbWAeD1cF4cQRmsgcEBW9WJRZpjlIdmE9fzJXV7AXRQSTBnmqgrpz0JmngJBnGhxcONjU4BDSMRR++RGy1e83ChgJwJE9LiAMYbe/+feboTTdJ/FUeMXcSLApVguWtpLkzG4Uv86y7n4g19hL4uDHfkefi+2OI2dqNSWLLRGn+pWVClV/VAcCVHOoM7JHQpISBWX5etZNr+gg3xXxb4ce0CRLAbOI/JT3I+xLMPo2YToIetQ+tv6el+3U1U/MI7biU8qjaUjM4dtutZnjHdnjbi7Jwts2RxIBlXmvRgLxM6ZFSJHn15ptvNjt2wAkH/lFNqBvorM6jUhYvTnAj67GkmqjusBla+2EnnGip6r/e96rmWxMBY/LsYmA/Zz1J0rJWCc0MDex+es/eGyfCoSPXTMrbEjNmx+ANZ/bsPvLFcCg5QQmOrfl0JdKcSVmJliaRd6u6wjVtq4gwozzywGYi3nSQmMZUnk4CUwl8oi5a+wm9T0xZ66z4tNEcOXJExlGH2hPBnvYbSmmU8uhpW09fUU4SAp30VwDj8ry27ST3R48eDe5V65yp+q12I9kT6CEBKg5T7adND+XBEa6geZFu2zgFaMcVQ5o4RDSEg3wAaQiSXrHArwh2msdsFxh1nuhbqrZMPePzpQR287FbJEODCyVBSpwlgcOEMuVa6uzS7ynR2TYHvAYBb+fOncKr5KuVNwVAjoHSFgsoEMCjyNgQIBdw3zz/aEGuYA4GgepqW2SuvGonVWgqsWj6wv59R7+ybWjP7Maf15X55RYQE+KVO29/4Ns9meFX0cO1mUA1FD7cumRpUP0k8Fnw61ZjA1sGvm3XR+Pfi+JXqJZQSmJfDNprVBWxkhVXPUqBVp3UlVjDRqJYXffBeEyAI9hJIrnYYVRlXStos/vx8NjunqQaIwZvLaQDAisnSWfVVeCzEh+vpSCpYRgEQ1bIoMprK3lcGVZ4c55FrAh4spLoj3hH8ghj8tipjHv1BGtuttrPrK1YYyEZDkS+IW/0Dw7A9stYPObTshnPYk1gUfjVGhqCfRo2tY2LrwU6gh75saPeBuMStUP5XVUQ9cqTd4oIraJTgUH01jQi6XeyrVeyW+44OlDUeShGIqZudgWIU4hBqmAeDoxX9h04cjGbuINLyTXdrjnohUKHmrDrvQqifBNNdqYYKsKJTWMtk8JFipOI7yC3UiQ/VQG16csy9As8SvLwacMjbFLK46kC9URTk1S6o6JiQcl+T6YaGEDfjCDglGoMgYjl2smAVl1d6+lJlRbeC87HPFuu3JT4LHDSQK1SrcbY2U1VEE2jI7ipQVtv1nrgIvDerqlfrzXAN/n3bX4IApg1Xo+LjtJapenlbGUaaWClc/5tecM+727SLmcG6c5cWOkxSN4upEbr0OD7oSG0JsVCSTPJWuYNiZ3ErTDwnxqUNpGHmCBFKVYPLF8Xa7Q9xjYbRgUUe28haesQncz0DD02NLhzbl3nfJ0Puuagx/ur1UK1W47d8Y1EMnN2BjmrNPhb9UDb4QUrDNUKOv8ZkiLxbFqBWNUNZcLOS6PvGZycg+eW5g8+bwtYCjoQuyFFWbWTn5GReH06Gsi8ZBROAgVjVMZF4VJKWVwlGZV/6XUXj4OTiGoIwZVeNNpnemHk1sofCJ0BU3LicFxSJTdY0bulSWkPEtj6Uil0S0PfXVnR3bZpCvAZEwj4DMhzSQT8JhBPNwsPORtwWxuwBcdOkLcGPkuoSuBUYD6tVUVtpMBa/LHW95Z37HU4VvIPeWKxemvNQItJwuPJ97xPemzJy5RouVcA1Hvc2Ev7+LKPdCTG8vY0A1E7YzN72tq5mIeQchR95fixO7830L/DgZ59PMn47dUd2/de6O/b/n0YjXNRJFZnUZ1EvV8BLgfA1ymFzpV4Oc9TYKcLTs7YNynRgs3W0xSpjj4QG61P/wc9twA9CzpUHXgcmY0bk765SYoZgIvH2TCA1WYeGdN6b8msUjgS5yYIMnzFGtB5Ditt2r8XZQ6IWq5jtry6Hu/xplHhTXKCReaKIOBZIwlW927yd5S6+CwILNzb1LTukKvlNJJLi2VcSmxr0+vWQCRGUJpTdaubqz8oa1/kUR2+UTPNZl4E3xoaqfOlIT9UoTT6gnUn4cCYAth9b3Bgx3QifBtX62u+bQlJj1TYuWP/6PbhPX9VqbQuVJGYTNteqciy54HXLFBZbXiB9dZaO5wEc0L6UcNqZ+Wim55SGQGDPCKgwZaMAEL2k+V7jYVj1QmtU9ZEbBFLQDE/lswqKjCj5wF0mrmpAMUHvtZmV3wLnrlcTpwhBEO+yNTWgcJJYp0jlkk5PqtGcS/jEBwOqv0uq9+vNarO95th+PXYNV/v8691p2tdX51GGhKitNdUNZYDU+E6MKe0M1rsFXXqkAdY847lWRZy88HzgR2LObLUPLrML2JSCV7rfWwcl1Tu7pL2yT82tnPx/XfbvPUbvX9drJtBFoqVLjXKYaNSXuAoYQUZlsrCHOI8k9qAiDKIhFFJOpxCrdPwmeHtB7+xbXDflpDySJMtA3pe6HgJ5c5PRL3M9wv5+iyEZonb0xaHFMtY6oeG/OVWp+7PCGbs58m9Oh7oeeWD4d9MESPnMci4DTaMmg+yIqwkxlWbqq4wDXsm4GVXcObsSiU4qZ+3+kYGpS2Pm+11YB0jPDdDaQi4QSuF9ipMtUH726qNREIrJNWMlaBZK1Anp9s2R4FutZUZOZrHDKCJa69iNa10V27pXI9xoA2YOrg4WvNFGQ4DPl9u1jkl8BCA3eWO1jreLMhxPzU1JaCnC6m1cXdJpIH3lNeyZhE01mov3h0w7DILcTknSF/OHsdWkdbGAGTJA0e4WQupaJDuYCpA3GLRzIXC2We2De4/l43fTwPklti2DOiRGsPb90/s3nXD5/1m4kS96uWjkR48NRb5RFqQxOQxLQ17AT4LdAQ3etEU7PgiOGoUlaYWkQlVBbFSW2Bs7Vr5yBxcmbXGGFZw9K8YvTiGHEyI6RK9zu5Z8OrS6UCAxBiYLrfWik3pjdemxEemouOCNkPaEQmCZ86caasFNhvDSlDWSK7vdTLyr0yWKWgWELcEH12ng7BeTuUnCVkRb2wTzwg52kyLbTcT6ngoVVZQTymfP/mBrUaLqKM4g5p4fM/GUpT+xLHJV/sXi/9ei3DkGeulpaOEPDM2hrZ9PF/b8RVcpCvFTs9Le7SmMjIIXo+36ZdBPGu3k8ZKfevdc7awFBdi8aIeCiYgzjaCnr+mhVCaViIf8nte2T50+AtDA/uveZhKN523FOjt2/HeuUMHb3m2J7vts6Wi/2yp4I+FQ+lSCHXwEMcnoQOdlzoqWN5BxfWgbBAfLMsHyXeU+KAOooFKpgf19ICf0sZRWldhleNKzqoU9JMGDMQOVSzXQ4Z99dVXxbidYvUMMDKlvziYOYmKGfyNqrerk9CqqaqWMgaxYajiEsiyKAjKa6iKzTxFMqj2tRAQxqllWF2VZfhZTw8bfvPLleyaa00l972lgIYraeEGGxxO6ZoLSwZNdUTKW1SKPvhlkObIRY3PNI0+LKx9eOq110weNROTsPteCZsrF0KenwsnzSGjo6MCetY00qmG3f1MO3xBXqITj445m93R7TwR7alLgFB1uCNQrP4ehTnQ5wUxeNpdEOE9zbpXb9Qjk8ZPPhOP9n32yKHbXzx64EMzW4njrkk9vdUIcPjQsYvV+sJfjo+fPD+bizwUCbVuRinY7QCnBFQP+IhaHh5EhFkaaMKNghRowyINPSWAVAOqQg1AQivCpOtWvdVIJxI1rHTZRGKht4VqUhqBr94rmwAhUhWAzZbjpkJz8tUT5qUXXjR3PnifMhkqa/hwskiRSXp/6fwIehesdk9URWx1jelp5HOCkcmEZzBBzp49K8xIiZLxdyxBxGrIEusFFZcVpdURQ0+1lFFDihM6u6FcOBPRN7tdiYm52hjWOv9aPujN3uFq1xfHkIQ06SKpIUzIdIA0lEYtrwxKuc9OMpPBOgws4HFhpZSIytpB8Hoa9RPnoc+98MIL5qbbjpvDN4FtYYoQ+FnmJmy9xPU44RW4PJHynnvuOQE+OsVqKBTKYhbt8dniuQEgi1kEw4zFwmXw22g87oWanpeCNpRCJWmwsddiA/quzQqkyz1SNZ93XrQHgpVRgL7RQkADyrMivRZ589NeJP1ytnfXl3YO3/jUwf23TGyWR6/077cc6O3d+QMUn049/dxv5kbHz7xw9syJfvhdB1DeO4mHjz7tzRhKQHmI+gbwNcNwRrAyFPIT4hTfKLtRtk5BxoN+AbZrhQteZNtkLDn5Li869y4kPu+TZDMAiYIeleAgZo+FedgmD5Idu1GNT4ya5575nrn9njsglaXMDFo5lcHYsvICdDwJWF5sV1saj8UUJenFEMR0UULcsXOXlLD6o//8B2Z2bholyFFwFFUzymwSQ4yj8wQzJQKEY3FQ6U3KoE+WfsP3qKPWDEfjkRC63bM71loexivNNFfyfJcNapf9g5VHK9k6YtKge4oVrNmnFgHFWGxikNyi0BB8dBhrofsc0x5ZyZoOM11rFCxoG24g5zYT7zENVD85B3MFy7wfRqaNABtTKKXSCo/vaAWSWRggPs0m9tul/EO1WQuHtswM6vG9gircMzMz5qb9B8wU7IfSVkDOwyyjznTW9DeO18t70cypZHLbb3nh2CxK1w6HW6XtUHJTqGaMvBMBMp6Bc8e+lluLrHGTDK8v1G8DD85Dy1oIR5plLxLNoRryDIqIzBzYf/PcHcd+Ajm2v3Il2eWKnGuthfaKXGQzJzlx6utQStmM1paTaNHywlPSHysGXax6DIH34RDAgq3106AeQlAK+7FwFAWZ4uGF2VL2l37+l37lycef+pu3HLkpcw59CHZu3yXS1VKBSRmGkiSdx575xI/+GHqJvtOU4JafRw5j/+CQlMIi87E8uG33JxUsmNPBjAuswGy6wrCWYZSbb0B1nUdp8F4USKV6/OhXv2Y++wefwbUrqDvG6jC0D2pZnnbZITorEPvko31fJOab2cJsc9/R/vGH3nH3dLoXjQKT5Yzv5dLozkDLOdYEmY2I2bb2GrFhhiBl+pKOxCakeAXGcRxnU/EWscGiN/jdKjCDznAIsoTTBbTn/IHkE4/Df4QC4rgOpBN+bh8/8EVP3S19dXuAu75vX9PGK2IP0URyk0N88dyohuLD5ECxyx5/yVi7ytXb++q+Pz0Xg8wATUi+AcG8OgqzIz0+Xq4WI63f/90vHsomY14VpZniHuxi6JHcROWSPhSSXUBqo2gI+DUFJgEy6BhD23eY93zg/eZjP/iDaBOK7EraUQCOzClnkx8Nj8LzZnxmsCiK3Y42QNCIQCexp7ibecR2Ht6/Hw6vafP5P/4c6vs9yoqh0jOjAEdbDOXrGURfKCyYQrkg4VRcaJlZVG7U/Fx+dvQnPvXJf/ITP/tjX+0d6pnPl+ZRhBzTAmENKHjro5WprPnBq1vSEzpxPHyW5AM+A9ITtOcz9kulSgjVmzEhvQY+a8B8U4f9u7Zr+11rhzVsBhQ2+dstJ+ktvZ+jh97O+tJ8bWorz45Vjt96139+7umXHkbFlFS2tz/MRj+ApiXnteK+5vCyv+1T3/mW6Uf3sTvuRfluNF4ZBSOzrFQfmC2PxjAEONrroihKyhprDVbTBRhXwNw0ILMfbRSr7i5MBnr6nnn6e+bp73wXRSmLKAfOXGAiOJmc4GeN5FyCwbiIpB+CKjwxN2IWymZ2cHjnXw4O7fmvaPzo1RrhQcgffaEwql9K7IX8mAmfVIiFgUWVb5FJwbz1ugemjbTAvTJZMUtb7Gmpm2X4RSpO7dJSLouABaeBEI7p2WxEBGwj8Qr2YdhGYw0I4gHCyISRKBudSB2dSuvV28/b6pM9huMNwnaaGDeqmzc9AESkDk9OA93P6/Ugfic4R3Av7THiPq0kYyd3N/hRSYi2fETU+rCaNABpfmImHE6PIvSijBYZO244sucTp16+eCd6FCeSkP7mZ9H3FoZ79qmVij2SKkkdQz2hDQDX/OyMeRU9Lh4b+ro5dOQoCn6iSC4cYexAlkyg+x16ztLjWYZzq4FgdwKV9NpA31ztd4uqPKzGjUX96MGDKFd/1nz3scdxzhfRyIpBxho4lcDimY6lTA6FS+meyGb7xXHBqt1Revj9cD6T7X/57nsffnbfzY+o98Ntl8z4NyxJkgM7K1/8kz88/bUvfv3FidGR4b079mRyyP6gSaTd2LtLBtAuWcYMoBrus99/Bk2iodZilb7vgbeY7ZD0Fli1AoxJJwclS1FDWbRUJD3tlSsbEjhTCBfog4QXxrx/8rtPmM9/7r+Ys1CDBgBmTZTSllkjeKU19NrFG8HKDGeJQf1t+eHc4cO7v/Xxj//4//fIO99ystwsIEqgijrA4o7R3CKV8hat1uoQ0XxeAHEYgCE6lo0HFIdP2wZ0qYWJUmIXUyyWpIBdKAMO05DkhRJIfUxeATRKft3B1oEUt0iC43FLYv3a0qAFQt5PAHoCiDhvmPdBSYPSR5BbveIYO1kHy7B2CCjXLEY8Npz1UWcb5mGUWa8n4j11CEN+sx7KRGo7zp959fd+tVmL3xhJ9gCMkBOOjA0Y7IXsIlzTPky1V4rAtkxxIW9efP4FtAotmU/ClBFHAVmaR7ggstw8Uxq5SPZCS2BUAAGrzgBfOrSoZLPfBRZQRp7mIOl959tPmK9/+StmCottErFwhDxKhuwcGIt7MJGU4WlOiJ23VGKDcLVPglZzwzt3fPvY8eNbzq52LYFmy0t6V5I4d99178hdd93zmc+fOXsfyntnuLrSeWE3KxN0G57JgPz81IlXzZ/9yZ/CM5c3d9//gOlD86Ii1Am2HmdP0TLUOHatZ1mqCBo309smcVRY+fvR8rGE3z0G6e5rX/yyee3kSZTRRg8LnLtKlZYGZ5sk3gEgUeLZqHw2t+BDqpu+8+4HPnP/A28/NTB8v23uEXRiuZJUcufqokDxmW9+5Zlvff3Z7zz3vWd3JsLVHvR3wAKnYEcHCOzKkqfLfwSaOBL6KeXnkcZ2unnS/OFnft8cu+M2c+/9D5odu3aacrIm6YjsAYNWWKL21ijxAcSSWECpGXARLUMLmIeN8Ct//UU4014QwEsAzMC0ApDicINNmaFQDIEiLzO6gABK50qlVl0AL174wAc+8KcHb7/rmpVm34rc9KYCvcGDh0uf/c1//8Kjjz76wtTsbHqwtzdDTyk3212NipZtsEXwm4PxeHhoUFJrRs5dMH/6uT82p0+fRmXcexBXuB1OiWE2x1U7FQOegyY9ck58Njo1ak69+Ir5/tNPm2eefNqUEMu1Z/tOREHQMD1jMmiKZHvciuG73QOW9jz0xoU0ODI5Nje4fccLjzzynpd2HLif7kS3XSUK3H77QyNvfdt7Pvf8My+/ZWY217MbJooGGtP7YA7G9El1xiCWju5LeEiloxnbDWClMk9863EUIx0102MT5vidt6Nyzw1YMFE+nXbAoJRZGuAlKY8ATNpAL6CDHoHu1KnXzFNPfIfyJHqiQJKjNgH1lbY+Zgcxor0G8wdDstS+XQErIga0Vm0tlIsz+284+IW/9UMfP/+Pf/X/ukrUuj4u86YCPT6SBx56cOz+Bx/63Ue/8tU91Vr9MHM1xBxECUtMTfTOEXDUugtLjqyq9AtzpV2YmTPf+tqj5vypc2b/wQPm8OEbZHXuQ1khZl5wpZ2HgXkhSDc7ceKEOQ8mHjl3XpqYZ1m4AKt8ExJmmmAZSHadPEy9NjdoWyxtVYP+OHbvg2/5g4ceeZezy1zleRXqSdaf+so3Xvzal7786AvPPdvT8mvbWtIbRR2YbG1A76yEuzMfFk2dGGZEAGPs6CByyGfGJ81Xv/Rl8zzCTQ4dPmoOHLpBmn2zxalU2AF41pD2mMvNmRF03zt9+hR4Br12pyap/wtfxcB7zPaQxt+wDfL8UlwWw5CcX1xTymOx5mN+Poeeuiff9d73/Nmhu+/eUoHBV/nxLXu5bk/WVhjPVRnDFz77x/v/n1/7tf957Ny5D6ci0R3sdq+g091mSG3t2V4wLby0dChIgDO6V9FWwyrLjL2rocMWmZJxU2z+Q/tTAfFU9KzZElIETUboM5arCeBj5H4Cqu/g4KAUd2xvbHiEN+IX0DAwNiK6eMPRo//tF/7BL/7fH/2RHzl1VQjkLnIJBX7zX/zK7b//nz796/mZmXsS0WiPSlwME0GMFGyumniPbmvIPaVXVtK/AES02dGWV6d7F5IavbWswE2VlOYP7hswi9CptYDOeYU8qvigj3IMUQO00UnrSZ4P/FaroiQZJEz5jKmV7OmL4xjsnurplRp+iN0qF2uVE8dvv+N/+1//j//9q7c88OCCe5yLKfCmk/R4+2975zsu/MVf/MVvjl64eBRmfvjMWn0q49F0vLi/Gj1j9JIx8rxOdQI2lDjT2pDe0cAKHUWLO6oxsxNTbdVWwg6w6qaQvkZmTSWZPgdjNXumQh3qB0Ay9ornZvMYu7Xo4LShMrIPz8IBev6u++/57Xe//73nHPNeOwo88s63nv36o1/+9JOj5w4m0n1RGGOTDEmqFbVXii3qKY4Z1j5krxPs0yhVJV04AFZ0hLHzHe27ZTSZ0iIYmjtLlZU8kwYohqGu0nMr3nAcX4Hayvh7Zn3wWtQYKgBA4THwJrULLri1Rr2Rn18Y79829N/vuOfu7znAW55ftlQa2tVi6dTwUOt//Mf/5LXjd9z+r0uV8jkwS5HgE4YDggzKldoWF7DJ48y+sF1iyczskctgD0mMwwpO9SMJMExh9Y7jPAiEwvdodkS1A3u6V/kZj4WbkPKceHjp7YshMBlBHpAGELOXQF849DdFycfCfCk39sDDD/76p37+UyfTg9uc0+JqMcgy1zn2wFvnP/WzP/+1G285/h8ujE7mKw2/wiadzNSlhEVBzhbppJTmsVk3JDKx/7GJFJ45eSAOoCKfJNh+AC/G2/GVgFQXZQYOpTfWd2euN+KiGJ7C73hOm55I8wdcztA6wCfkQYAhr79QKk+U640X3/OBD372537h7124huTa0pd+U4Ien8jh248tfPKnP/UE+oh+BqlfZ8v1WimPpghlBCtL8hDByQaZadBvO57Dtp3URHINIu1+Rbh4d39GKTIIqrBhtPY9ww4Y0oxMHnmVUIhgHiNBYsDpvm2Df/Azv/Bz37nh5tvntzQXvUkG966/+fELH/87n/yjg4eP/YdcvjIFtClFADwlSP/shEZ7Gr32BKd2Fg5ZKeAF2ZOPAl5gKqV67vUzrHudv0XzUC+ueGWx0FrQI3+y6RBNLjn0Ys72D/iFcmm8VKk9+9Z3vuPXPvCRD53p37t3cXjRm+QZrec237SgR+J88If+xvgv/aN/+IcHjxz+nZmF3Hgo6hW27dohdpdCpdzuWargp1VO1MsrljfJa7RguDSytx0shwlAO4zNkli0D9oPFtBt3oO0t2vvHvZRha9kbubA4cO/9U/+2T/9/be/76MX1/Mg3TFXhwI//ov/4MyHPvq3f3dw+OBnpmeL59M9A8UIVEx67Ql8XLRoBrG1Edu5Iu16fKrOttPYRB3Wl7Y/CLr4BZ+xknMazbI99OLVZDSWvIK3ly0EwH/w6jcnZmbH8Tp51733/quf/Omffv6Bd71ny5RxujpP5fKu8qZ0ZCwl0e/969/Y/Z9+7z9+4vSpkz8Ne93OfpQ/IXvRuMyqKnZlUAbWdwwjlb2Nb1mB7gS87m1RyhuDe2G0lrQhqMFIG5rHxDm7a//eT0MK/dOf/Hu/7Ox4l8fPV+3of/lPf/XAH/7Bf/xEeX7yR3uzqf2Iu8zUKJHRwcXCtZKqQmyjnTZIUeNbxp7zFYyUZpIOV3WGTz6RCAIWQQgkRwY1S2gLOvExRrDmNxsAw7GLo6PP3X3PPb/+y//oHz73zo997Jr2lL1qD2ATF3KgFxDvv//h53b9q1//tQ898eR3/9nebUPp3Tu2D87P5ZBUCstNwKGMx+rKXpBfdieO8/3SPN61SoKjFowZHBryRybHp89OTBTvu/feX/mlf/Q/felDP/zx85t4ru6nV4EC//J/+ZUDn/73v/G3/Vb9o8lo7AiCiweYbkjgI99QxY0FVXgsn6h3vqvYABO8u7al/CK5y7bSDkuosQgFbcGtUAES5djU9NzX3//hH/idT/7ET7z0lg++z0l463juDvS6iPT1v/zLbZD4bnnsG1/7eygXf18mmdiOrImEBTKxuzBMwdbe62Jee5qloLdU0ut+Jhpm5VfLtfqYl0h8974HH/qtH/3kT7z49o9+0MXjrYN5t8Ihn/l/f2PnX/7Xzx97/LFv/XM8zqPbewcGUUsPUcYMMWHoCVuK6khF4lsCetKtr0sZWAp61CToKGF+N215aDTfgjYwBR486cXjf/bQw2//q1/6H3755M0P3L3p/PStQM+rMQYHekuo/NJ3v5v8vd/+9/sf+9qjP5hfyP3NaMjsBiP2ISYrJsUXu0DPMjJ5dikhLSMvyS3tvloDkwClfsIj8XT6C29529s/95M/8/OnbnrwzmveF/RqMN4b6Rpf+pPPZT//x/9l/3PPPPvx+amZjyImc2cyFu2vV6uAvA5nLAd6Nji949xYbGZnjJ9aVaB0tJrzxWplJp5MfOfI0Rs/feMtx5771d/8t+NvJFpejXtxoLcClf/89//Tjs/87u/c8urLr/wwiHQnPLJ7AXo9kPTSlxamDHJnaaC2mR3BnpVMxHDd+byIWDwEjIZH8dWzR2+55U9+8OOfeOEDP/DhC+k9w87jdjW4/nW6xm/+n/9i7x/8x9+/f3J05Iez6cyNKEixHTa4NAAtYxdI2Xdd307AjrTXAT0eB6CswVObx99zUG1fgj3vqzcfu+UrP/yJT5z7gR/5EafObuBZOtBbhWgL4xPe5z77R9see/QbB5/89hPvReXaR2C32Qnj8gCi4pPZdNqrl0uIDm0xFE/YmUUpxbMr5euRbdby6/gTeULhUrVaQYZaYSaVTT92//0P/PUDb3no9Ec/8fGJ4QP7Kxt4du4nW5ACJ773vdSXv/jX2//iz/786LPf//5H+rO9R6Ap7EI7gn4AYAbxe6yFFUUICsq6oEYfNGE6OyjPYTFltVlUJms2KqgqgBTEAtIbp3Lz8y9Duvvru++794WP/Y2/cfGjP/ZJl1q2iWfvQG8dxDv13Evhbz/++OD3n3p62yuvvLL/wrnzDyI17eZmtbKjN53x4IvIIFUoDsCT7snSO63VqkI1KcOYjdpLkXGU635x/4EDL9x+++1n7rr3nsk777xzfM/xY526cusYhzvk+qHAK997Ojo2Mjr4G//m3+woLOR35KZn7kS2xC3NWn17NOKxwk8P0tCiCFaPoFCAX6pWkMVWK0GNzaOAwEw6kzkPoHsFIUwn4Zk9+573v2/63R/9W870cQVYwIHeZRLxe994PHLx3Pm+U6dOpUYunk+99Ozz2UazlsG6nEBmB3tC+ghSrSNItRKOeqXbbrttYefuXcXDhw+X9x04kLvj4Ye3dFXZyySHO3wdFDj17LORV156qfeF555PnT75Wmp8bKwH7UV7AHKJcrkUhebQROZPFalkBeRjL+zeu7eAYhblweFt5R/7uV9wKuw6aOwOcRRwFLhOKADH2Zs6QeA6eUxumI4CjgKOAo4CjgKOAo4CjgKOAo4CjgKOAo4CjgKOAo4CjgKOAo4CjgKOAo4CjgKOAo4CjgKOAo4CjgKOAo4CjgKOAo4CjgKOAo4CjgKOAo4CjgKOAo4CjgKOAo4CjgKOAo4CjgKOAo4CjgKOAo4CjgKOAo4CjgKOAo4CjgKOAo4CjgKOAo4CjgKOAo4CjgKOAo4CjgKOAo4CjgKOAo4CjgKOAo4CjgKOAo4CjgKOAo4CjgKOAo4CjgKOAo4CjgKOAo4CjgKOAo4CjgKOAo4CjgKOAo4CjgKOAo4CjgKOAo4CjgKOAo4CjgKOAo4CjgKOAo4CjgKOAo4CjgKOAo4CjgKOAo4CjgKOAo4CjgKOAo4CjgKOAo4CjgKOAo4CjgKOAo4CjgKOAo4CjgKOAo4CjgKOAo4CjgKOAo4CjgKOAo4CjgKOAo4CjgKOAo4CjgKOAo4CjgKOAo4CjgKOAo4CjgKOAo4CjgKOAo4CjgKOAo4CjgKOAo4CjgKOAo4CjgKOAo4CjgKOAo4CjgKOAo4CjgKOAo4CjgKOAo4CjgKOAo4CjgKOAo4CjgKOAo4CjgKOAo4CjgKOAo4CjgKOAo4CjgKOAo4CjgKOAo4CjgKOAo4CjgKOAo4CjgKOAo4CjgKOAo4CjgKOAo4CjgKOAo4CjgKOAo4CjgKOAo4CjgKOAo4CjgKOAo4CjgKOAo4CjgKOAo4CjgKOAo4CjgKOAo4CjgKOAo4CjgKOAo4CjgKOAo4CjgKOAo4CjgKOAo4CjgKOAo4CjgKOAo4CjgKOAo4CjgKOAo4CjgKOAo4CjgKOAo4CjgKOAo4CjgKOAo4CjgKOAo4CjgKOAo4CjgKOAluBAv8/JcstY8P0LSgAAAAASUVORK5CYII=;" parent="1" vertex="1">
          <mxGeometry x="560" y="140" width="183.4" height="151" as="geometry" />
        </mxCell>
        <mxCell id="-DYMCZbe94zQqvGmyOgs-4" value="&lt;font style=&quot;font-size: 14px;&quot;&gt;&lt;font style=&quot;vertical-align: inherit;&quot;&gt;&lt;font style=&quot;vertical-align: inherit;&quot;&gt;Empresa&lt;/font&gt;&lt;/font&gt;&lt;/font&gt;" style="rounded=0;whiteSpace=wrap;html=1;labelBackgroundColor=none;fontSize=14;fillColor=#d5e8d4;strokeColor=#82b366;gradientDirection=east;gradientColor=#FFFFFF;" parent="1" vertex="1">
          <mxGeometry x="-167" y="620" width="160" height="85" as="geometry" />
        </mxCell>
        <mxCell id="-DYMCZbe94zQqvGmyOgs-5" value="Possui" style="rhombus;whiteSpace=wrap;html=1;labelBackgroundColor=none;fillColor=#d5e8d4;fontSize=14;strokeColor=#82b366;gradientColor=#FFFFFF;gradientDirection=east;" parent="1" vertex="1">
          <mxGeometry x="-187" y="750" width="200" height="110" as="geometry" />
        </mxCell>
        <mxCell id="R59Xm1KbqaUH1rGVfLYs-21" style="edgeStyle=orthogonalEdgeStyle;rounded=0;orthogonalLoop=1;jettySize=auto;html=1;entryX=1;entryY=0.5;entryDx=0;entryDy=0;endArrow=none;endFill=0;" parent="1" source="-DYMCZbe94zQqvGmyOgs-7" target="R59Xm1KbqaUH1rGVfLYs-20" edge="1">
          <mxGeometry relative="1" as="geometry" />
        </mxCell>
        <mxCell id="-DYMCZbe94zQqvGmyOgs-7" value="&lt;font style=&quot;font-size: 14px;&quot;&gt;&lt;font style=&quot;vertical-align: inherit;&quot;&gt;&lt;font style=&quot;vertical-align: inherit;&quot;&gt;Veiculo&lt;/font&gt;&lt;/font&gt;&lt;/font&gt;" style="rounded=0;whiteSpace=wrap;html=1;labelBackgroundColor=none;fontSize=14;fillColor=#d5e8d4;strokeColor=#82b366;gradientDirection=east;gradientColor=#FFFFFF;" parent="1" vertex="1">
          <mxGeometry x="-167" y="910" width="160" height="85" as="geometry" />
        </mxCell>
        <mxCell id="-DYMCZbe94zQqvGmyOgs-10" value="Possui" style="rhombus;whiteSpace=wrap;html=1;labelBackgroundColor=none;fillColor=#d5e8d4;fontSize=14;strokeColor=#82b366;gradientColor=#FFFFFF;gradientDirection=east;" parent="1" vertex="1">
          <mxGeometry x="-187" y="1050" width="200" height="110" as="geometry" />
        </mxCell>
        <mxCell id="-DYMCZbe94zQqvGmyOgs-11" value="Possui" style="rhombus;whiteSpace=wrap;html=1;labelBackgroundColor=none;fillColor=#d5e8d4;fontSize=14;strokeColor=#82b366;gradientColor=#FFFFFF;gradientDirection=east;" parent="1" vertex="1">
          <mxGeometry x="69" y="840" width="200" height="110" as="geometry" />
        </mxCell>
        <mxCell id="-DYMCZbe94zQqvGmyOgs-12" value="Possui" style="rhombus;whiteSpace=wrap;html=1;labelBackgroundColor=none;fillColor=#d5e8d4;fontSize=14;strokeColor=#82b366;gradientColor=#FFFFFF;gradientDirection=east;" parent="1" vertex="1">
          <mxGeometry x="69" y="960" width="200" height="110" as="geometry" />
        </mxCell>
        <mxCell id="-DYMCZbe94zQqvGmyOgs-14" value="&lt;font style=&quot;font-size: 14px;&quot;&gt;&lt;font style=&quot;vertical-align: inherit;&quot;&gt;&lt;font style=&quot;vertical-align: inherit;&quot;&gt;&lt;font style=&quot;vertical-align: inherit;&quot;&gt;&lt;font style=&quot;vertical-align: inherit;&quot;&gt;Aluguel&lt;/font&gt;&lt;/font&gt;&lt;/font&gt;&lt;/font&gt;&lt;/font&gt;" style="rounded=0;whiteSpace=wrap;html=1;labelBackgroundColor=none;fontSize=14;fillColor=#d5e8d4;strokeColor=#82b366;gradientDirection=east;gradientColor=#FFFFFF;" parent="1" vertex="1">
          <mxGeometry x="359" y="852.5" width="160" height="85" as="geometry" />
        </mxCell>
        <mxCell id="-DYMCZbe94zQqvGmyOgs-15" value="&lt;font style=&quot;font-size: 14px;&quot;&gt;&lt;font style=&quot;vertical-align: inherit;&quot;&gt;&lt;font style=&quot;vertical-align: inherit;&quot;&gt;Modelo&lt;/font&gt;&lt;/font&gt;&lt;/font&gt;" style="rounded=0;whiteSpace=wrap;html=1;labelBackgroundColor=none;fontSize=14;fillColor=#d5e8d4;strokeColor=#82b366;gradientDirection=east;gradientColor=#FFFFFF;" parent="1" vertex="1">
          <mxGeometry x="359" y="972.5" width="160" height="85" as="geometry" />
        </mxCell>
        <mxCell id="-DYMCZbe94zQqvGmyOgs-16" value="Possui" style="rhombus;whiteSpace=wrap;html=1;labelBackgroundColor=none;fillColor=#d5e8d4;fontSize=14;strokeColor=#82b366;gradientColor=#FFFFFF;gradientDirection=east;" parent="1" vertex="1">
          <mxGeometry x="579" y="840" width="200" height="110" as="geometry" />
        </mxCell>
        <mxCell id="-DYMCZbe94zQqvGmyOgs-17" value="&lt;font style=&quot;font-size: 14px;&quot;&gt;&lt;font style=&quot;vertical-align: inherit;&quot;&gt;&lt;font style=&quot;vertical-align: inherit;&quot;&gt;Cliente&lt;/font&gt;&lt;/font&gt;&lt;/font&gt;" style="rounded=0;whiteSpace=wrap;html=1;labelBackgroundColor=none;fontSize=14;fillColor=#d5e8d4;strokeColor=#82b366;gradientDirection=east;gradientColor=#FFFFFF;" parent="1" vertex="1">
          <mxGeometry x="849" y="852.5" width="160" height="85" as="geometry" />
        </mxCell>
        <mxCell id="R59Xm1KbqaUH1rGVfLYs-1" value="&lt;font style=&quot;font-size: 14px;&quot;&gt;&lt;font style=&quot;vertical-align: inherit;&quot;&gt;&lt;font style=&quot;vertical-align: inherit;&quot;&gt;&lt;font style=&quot;vertical-align: inherit;&quot;&gt;&lt;font style=&quot;vertical-align: inherit;&quot;&gt;Marca&lt;/font&gt;&lt;/font&gt;&lt;/font&gt;&lt;/font&gt;&lt;/font&gt;" style="rounded=0;whiteSpace=wrap;html=1;labelBackgroundColor=none;fontSize=14;fillColor=#d5e8d4;strokeColor=#82b366;gradientDirection=east;gradientColor=#FFFFFF;" parent="1" vertex="1">
          <mxGeometry x="-167" y="1220" width="160" height="85" as="geometry" />
        </mxCell>
        <mxCell id="R59Xm1KbqaUH1rGVfLYs-2" value="" style="endArrow=none;html=1;rounded=0;entryX=0.5;entryY=0;entryDx=0;entryDy=0;exitX=0.5;exitY=1;exitDx=0;exitDy=0;" parent="1" source="-DYMCZbe94zQqvGmyOgs-4" target="-DYMCZbe94zQqvGmyOgs-5" edge="1">
          <mxGeometry width="50" height="50" relative="1" as="geometry">
            <mxPoint x="-87.44999999999999" y="705" as="sourcePoint" />
            <mxPoint x="-87.44999999999999" y="760" as="targetPoint" />
          </mxGeometry>
        </mxCell>
        <mxCell id="R59Xm1KbqaUH1rGVfLYs-3" value="" style="endArrow=none;html=1;rounded=0;entryX=0.5;entryY=0;entryDx=0;entryDy=0;exitX=0.5;exitY=1;exitDx=0;exitDy=0;" parent="1" source="-DYMCZbe94zQqvGmyOgs-5" target="-DYMCZbe94zQqvGmyOgs-7" edge="1">
          <mxGeometry width="50" height="50" relative="1" as="geometry">
            <mxPoint x="-201" y="835" as="sourcePoint" />
            <mxPoint x="-201" y="890" as="targetPoint" />
          </mxGeometry>
        </mxCell>
        <mxCell id="R59Xm1KbqaUH1rGVfLYs-4" value="" style="endArrow=none;html=1;rounded=0;entryX=0.5;entryY=0;entryDx=0;entryDy=0;exitX=0.5;exitY=1;exitDx=0;exitDy=0;" parent="1" target="-DYMCZbe94zQqvGmyOgs-10" edge="1">
          <mxGeometry width="50" height="50" relative="1" as="geometry">
            <mxPoint x="-87" y="995" as="sourcePoint" />
            <mxPoint x="-87" y="1045" as="targetPoint" />
          </mxGeometry>
        </mxCell>
        <mxCell id="R59Xm1KbqaUH1rGVfLYs-5" value="" style="endArrow=none;html=1;rounded=0;entryX=0.5;entryY=0;entryDx=0;entryDy=0;exitX=0.5;exitY=1;exitDx=0;exitDy=0;" parent="1" target="R59Xm1KbqaUH1rGVfLYs-1" edge="1">
          <mxGeometry width="50" height="50" relative="1" as="geometry">
            <mxPoint x="-87" y="1160" as="sourcePoint" />
            <mxPoint x="-87" y="1210" as="targetPoint" />
          </mxGeometry>
        </mxCell>
        <mxCell id="R59Xm1KbqaUH1rGVfLYs-6" value="" style="endArrow=none;html=1;rounded=0;entryX=1;entryY=0.5;entryDx=0;entryDy=0;exitX=0;exitY=0.5;exitDx=0;exitDy=0;" parent="1" source="-DYMCZbe94zQqvGmyOgs-11" target="-DYMCZbe94zQqvGmyOgs-7" edge="1">
          <mxGeometry width="50" height="50" relative="1" as="geometry">
            <mxPoint x="39" y="952.5" as="sourcePoint" />
            <mxPoint x="39" y="1007.5" as="targetPoint" />
          </mxGeometry>
        </mxCell>
        <mxCell id="R59Xm1KbqaUH1rGVfLYs-7" value="" style="endArrow=none;html=1;rounded=0;entryX=1;entryY=0.5;entryDx=0;entryDy=0;exitX=0;exitY=0.5;exitDx=0;exitDy=0;" parent="1" source="-DYMCZbe94zQqvGmyOgs-12" target="-DYMCZbe94zQqvGmyOgs-7" edge="1">
          <mxGeometry width="50" height="50" relative="1" as="geometry">
            <mxPoint x="69" y="893" as="sourcePoint" />
            <mxPoint x="3" y="963" as="targetPoint" />
          </mxGeometry>
        </mxCell>
        <mxCell id="R59Xm1KbqaUH1rGVfLYs-10" value="" style="endArrow=none;html=1;rounded=0;entryX=1;entryY=0.5;entryDx=0;entryDy=0;exitX=0;exitY=0.5;exitDx=0;exitDy=0;" parent="1" source="-DYMCZbe94zQqvGmyOgs-14" target="-DYMCZbe94zQqvGmyOgs-11" edge="1">
          <mxGeometry width="50" height="50" relative="1" as="geometry">
            <mxPoint x="335" y="892" as="sourcePoint" />
            <mxPoint x="259" y="950" as="targetPoint" />
          </mxGeometry>
        </mxCell>
        <mxCell id="R59Xm1KbqaUH1rGVfLYs-11" value="" style="endArrow=none;html=1;rounded=0;entryX=1;entryY=0.5;entryDx=0;entryDy=0;exitX=0;exitY=0.5;exitDx=0;exitDy=0;" parent="1" source="-DYMCZbe94zQqvGmyOgs-16" target="-DYMCZbe94zQqvGmyOgs-14" edge="1">
          <mxGeometry width="50" height="50" relative="1" as="geometry">
            <mxPoint x="595" y="902" as="sourcePoint" />
            <mxPoint x="519" y="960" as="targetPoint" />
          </mxGeometry>
        </mxCell>
        <mxCell id="R59Xm1KbqaUH1rGVfLYs-12" value="" style="endArrow=none;html=1;rounded=0;exitX=0;exitY=0.5;exitDx=0;exitDy=0;" parent="1" source="-DYMCZbe94zQqvGmyOgs-15" target="-DYMCZbe94zQqvGmyOgs-12" edge="1">
          <mxGeometry width="50" height="50" relative="1" as="geometry">
            <mxPoint x="359" y="1014.52" as="sourcePoint" />
            <mxPoint x="269" y="1014.52" as="targetPoint" />
          </mxGeometry>
        </mxCell>
        <mxCell id="R59Xm1KbqaUH1rGVfLYs-14" value="" style="endArrow=none;html=1;rounded=0;entryX=1;entryY=0.5;entryDx=0;entryDy=0;exitX=0;exitY=0.5;exitDx=0;exitDy=0;" parent="1" source="-DYMCZbe94zQqvGmyOgs-17" edge="1">
          <mxGeometry width="50" height="50" relative="1" as="geometry">
            <mxPoint x="839" y="894.6" as="sourcePoint" />
            <mxPoint x="779" y="894.6" as="targetPoint" />
          </mxGeometry>
        </mxCell>
        <mxCell id="R59Xm1KbqaUH1rGVfLYs-18" style="edgeStyle=orthogonalEdgeStyle;rounded=0;orthogonalLoop=1;jettySize=auto;html=1;exitX=0;exitY=0.5;exitDx=0;exitDy=0;entryX=1;entryY=0.5;entryDx=0;entryDy=0;endArrow=none;endFill=0;" parent="1" source="R59Xm1KbqaUH1rGVfLYs-15" target="-DYMCZbe94zQqvGmyOgs-17" edge="1">
          <mxGeometry relative="1" as="geometry" />
        </mxCell>
        <mxCell id="R59Xm1KbqaUH1rGVfLYs-15" value="&lt;font style=&quot;vertical-align: inherit;&quot;&gt;&lt;font style=&quot;vertical-align: inherit;&quot;&gt;CPF&lt;/font&gt;&lt;/font&gt;" style="ellipse;whiteSpace=wrap;html=1;fillColor=#d5e8d4;strokeColor=#82b366;" parent="1" vertex="1">
          <mxGeometry x="1049" y="852.5" width="100" height="30" as="geometry" />
        </mxCell>
        <mxCell id="R59Xm1KbqaUH1rGVfLYs-19" style="edgeStyle=orthogonalEdgeStyle;rounded=0;orthogonalLoop=1;jettySize=auto;html=1;endArrow=none;endFill=0;" parent="1" source="R59Xm1KbqaUH1rGVfLYs-16" edge="1">
          <mxGeometry relative="1" as="geometry">
            <mxPoint x="1029" y="890" as="targetPoint" />
          </mxGeometry>
        </mxCell>
        <mxCell id="R59Xm1KbqaUH1rGVfLYs-16" value="&lt;font style=&quot;vertical-align: inherit;&quot;&gt;&lt;font style=&quot;vertical-align: inherit;&quot;&gt;Nome&lt;/font&gt;&lt;/font&gt;" style="ellipse;whiteSpace=wrap;html=1;fillColor=#d5e8d4;strokeColor=#82b366;" parent="1" vertex="1">
          <mxGeometry x="1049" y="907.5" width="100" height="30" as="geometry" />
        </mxCell>
        <mxCell id="R59Xm1KbqaUH1rGVfLYs-20" value="&lt;font style=&quot;vertical-align: inherit;&quot;&gt;&lt;font style=&quot;vertical-align: inherit;&quot;&gt;&lt;font style=&quot;vertical-align: inherit;&quot;&gt;&lt;font style=&quot;vertical-align: inherit;&quot;&gt;Placa&lt;/font&gt;&lt;/font&gt;&lt;/font&gt;&lt;/font&gt;" style="ellipse;whiteSpace=wrap;html=1;fillColor=#d5e8d4;strokeColor=#82b366;" parent="1" vertex="1">
          <mxGeometry x="-321" y="937.5" width="100" height="30" as="geometry" />
        </mxCell>
        <mxCell id="R59Xm1KbqaUH1rGVfLYs-22" value="&lt;font style=&quot;vertical-align: inherit;&quot;&gt;&lt;font style=&quot;vertical-align: inherit;&quot;&gt;1&lt;/font&gt;&lt;/font&gt;" style="text;html=1;align=center;verticalAlign=middle;resizable=0;points=[];autosize=1;strokeColor=none;fillColor=none;fontStyle=1;fontSize=14;" parent="1" vertex="1">
          <mxGeometry x="-87" y="705" width="30" height="30" as="geometry" />
        </mxCell>
        <mxCell id="R59Xm1KbqaUH1rGVfLYs-23" value="&lt;font style=&quot;vertical-align: inherit;&quot;&gt;&lt;font style=&quot;vertical-align: inherit;&quot;&gt;&lt;font style=&quot;vertical-align: inherit;&quot;&gt;&lt;font style=&quot;vertical-align: inherit;&quot;&gt;N&lt;/font&gt;&lt;/font&gt;&lt;/font&gt;&lt;/font&gt;" style="text;html=1;align=center;verticalAlign=middle;resizable=0;points=[];autosize=1;strokeColor=none;fillColor=none;fontStyle=1;fontSize=14;" parent="1" vertex="1">
          <mxGeometry x="-87" y="882.5" width="30" height="30" as="geometry" />
        </mxCell>
        <mxCell id="R59Xm1KbqaUH1rGVfLYs-24" value="N" style="text;html=1;align=center;verticalAlign=middle;resizable=0;points=[];autosize=1;strokeColor=none;fillColor=none;fontStyle=1;fontSize=14;" parent="1" vertex="1">
          <mxGeometry x="-87" y="995" width="30" height="30" as="geometry" />
        </mxCell>
        <mxCell id="R59Xm1KbqaUH1rGVfLYs-25" value="&lt;font style=&quot;vertical-align: inherit;&quot;&gt;&lt;font style=&quot;vertical-align: inherit;&quot;&gt;1&lt;/font&gt;&lt;/font&gt;" style="text;html=1;align=center;verticalAlign=middle;resizable=0;points=[];autosize=1;strokeColor=none;fillColor=none;fontStyle=1;fontSize=14;" parent="1" vertex="1">
          <mxGeometry x="-87" y="1190" width="30" height="30" as="geometry" />
        </mxCell>
        <mxCell id="R59Xm1KbqaUH1rGVfLYs-26" value="&lt;font style=&quot;vertical-align: inherit;&quot;&gt;&lt;font style=&quot;vertical-align: inherit;&quot;&gt;1&lt;/font&gt;&lt;/font&gt;" style="text;html=1;align=center;verticalAlign=middle;resizable=0;points=[];autosize=1;strokeColor=none;fillColor=none;fontStyle=1;fontSize=14;" parent="1" vertex="1">
          <mxGeometry x="-7" y="907.5" width="30" height="30" as="geometry" />
        </mxCell>
        <mxCell id="R59Xm1KbqaUH1rGVfLYs-27" value="N" style="text;html=1;align=center;verticalAlign=middle;resizable=0;points=[];autosize=1;strokeColor=none;fillColor=none;fontStyle=1;fontSize=14;" parent="1" vertex="1">
          <mxGeometry x="329" y="860" width="30" height="30" as="geometry" />
        </mxCell>
        <mxCell id="3gb6UnEHEgKPLNusINSU-1" value="N" style="text;html=1;align=center;verticalAlign=middle;resizable=0;points=[];autosize=1;strokeColor=none;fillColor=none;fontStyle=1;fontSize=14;" parent="1" vertex="1">
          <mxGeometry x="519" y="860" width="30" height="30" as="geometry" />
        </mxCell>
        <mxCell id="3gb6UnEHEgKPLNusINSU-2" value="1" style="text;html=1;align=center;verticalAlign=middle;resizable=0;points=[];autosize=1;strokeColor=none;fillColor=none;fontStyle=1;fontSize=14;" parent="1" vertex="1">
          <mxGeometry x="819" y="860" width="30" height="30" as="geometry" />
        </mxCell>
        <mxCell id="3gb6UnEHEgKPLNusINSU-3" value="N" style="text;html=1;align=center;verticalAlign=middle;resizable=0;points=[];autosize=1;strokeColor=none;fillColor=none;fontStyle=1;fontSize=14;" parent="1" vertex="1">
          <mxGeometry x="-7" y="972.5" width="30" height="30" as="geometry" />
        </mxCell>
        <mxCell id="3gb6UnEHEgKPLNusINSU-4" value="1" style="text;html=1;align=center;verticalAlign=middle;resizable=0;points=[];autosize=1;strokeColor=none;fillColor=none;fontStyle=1;fontSize=14;" parent="1" vertex="1">
          <mxGeometry x="329" y="980" width="30" height="30" as="geometry" />
        </mxCell>
        <mxCell id="WK9p7y6N7hUQHeRrj1zA-1" value="Empresa" style="shape=table;startSize=30;container=1;collapsible=1;childLayout=tableLayout;fixedRows=1;rowLines=0;fontStyle=1;align=center;resizeLast=1;html=1;fillColor=#d5e8d4;strokeColor=#82b366;" parent="1" vertex="1">
          <mxGeometry x="220" y="1650" width="180" height="150" as="geometry" />
        </mxCell>
        <mxCell id="WK9p7y6N7hUQHeRrj1zA-2" value="" style="shape=tableRow;horizontal=0;startSize=0;swimlaneHead=0;swimlaneBody=0;fillColor=none;collapsible=0;dropTarget=0;points=[[0,0.5],[1,0.5]];portConstraint=eastwest;top=0;left=0;right=0;bottom=1;" parent="WK9p7y6N7hUQHeRrj1zA-1" vertex="1">
          <mxGeometry y="30" width="180" height="30" as="geometry" />
        </mxCell>
        <mxCell id="WK9p7y6N7hUQHeRrj1zA-3" value="PK" style="shape=partialRectangle;connectable=0;fillColor=none;top=0;left=0;bottom=0;right=0;fontStyle=1;overflow=hidden;whiteSpace=wrap;html=1;" parent="WK9p7y6N7hUQHeRrj1zA-2" vertex="1">
          <mxGeometry width="30" height="30" as="geometry">
            <mxRectangle width="30" height="30" as="alternateBounds" />
          </mxGeometry>
        </mxCell>
        <mxCell id="WK9p7y6N7hUQHeRrj1zA-4" value="IdEmpresa" style="shape=partialRectangle;connectable=0;fillColor=none;top=0;left=0;bottom=0;right=0;align=left;spacingLeft=6;fontStyle=5;overflow=hidden;whiteSpace=wrap;html=1;" parent="WK9p7y6N7hUQHeRrj1zA-2" vertex="1">
          <mxGeometry x="30" width="150" height="30" as="geometry">
            <mxRectangle width="150" height="30" as="alternateBounds" />
          </mxGeometry>
        </mxCell>
        <mxCell id="WK9p7y6N7hUQHeRrj1zA-5" value="" style="shape=tableRow;horizontal=0;startSize=0;swimlaneHead=0;swimlaneBody=0;fillColor=none;collapsible=0;dropTarget=0;points=[[0,0.5],[1,0.5]];portConstraint=eastwest;top=0;left=0;right=0;bottom=0;" parent="WK9p7y6N7hUQHeRrj1zA-1" vertex="1">
          <mxGeometry y="60" width="180" height="30" as="geometry" />
        </mxCell>
        <mxCell id="WK9p7y6N7hUQHeRrj1zA-6" value="" style="shape=partialRectangle;connectable=0;fillColor=none;top=0;left=0;bottom=0;right=0;editable=1;overflow=hidden;whiteSpace=wrap;html=1;" parent="WK9p7y6N7hUQHeRrj1zA-5" vertex="1">
          <mxGeometry width="30" height="30" as="geometry">
            <mxRectangle width="30" height="30" as="alternateBounds" />
          </mxGeometry>
        </mxCell>
        <mxCell id="WK9p7y6N7hUQHeRrj1zA-7" value="Rua" style="shape=partialRectangle;connectable=0;fillColor=none;top=0;left=0;bottom=0;right=0;align=left;spacingLeft=6;overflow=hidden;whiteSpace=wrap;html=1;" parent="WK9p7y6N7hUQHeRrj1zA-5" vertex="1">
          <mxGeometry x="30" width="150" height="30" as="geometry">
            <mxRectangle width="150" height="30" as="alternateBounds" />
          </mxGeometry>
        </mxCell>
        <mxCell id="WK9p7y6N7hUQHeRrj1zA-8" value="" style="shape=tableRow;horizontal=0;startSize=0;swimlaneHead=0;swimlaneBody=0;fillColor=none;collapsible=0;dropTarget=0;points=[[0,0.5],[1,0.5]];portConstraint=eastwest;top=0;left=0;right=0;bottom=0;" parent="WK9p7y6N7hUQHeRrj1zA-1" vertex="1">
          <mxGeometry y="90" width="180" height="30" as="geometry" />
        </mxCell>
        <mxCell id="WK9p7y6N7hUQHeRrj1zA-9" value="" style="shape=partialRectangle;connectable=0;fillColor=none;top=0;left=0;bottom=0;right=0;editable=1;overflow=hidden;whiteSpace=wrap;html=1;" parent="WK9p7y6N7hUQHeRrj1zA-8" vertex="1">
          <mxGeometry width="30" height="30" as="geometry">
            <mxRectangle width="30" height="30" as="alternateBounds" />
          </mxGeometry>
        </mxCell>
        <mxCell id="WK9p7y6N7hUQHeRrj1zA-10" value="Bairro" style="shape=partialRectangle;connectable=0;fillColor=none;top=0;left=0;bottom=0;right=0;align=left;spacingLeft=6;overflow=hidden;whiteSpace=wrap;html=1;" parent="WK9p7y6N7hUQHeRrj1zA-8" vertex="1">
          <mxGeometry x="30" width="150" height="30" as="geometry">
            <mxRectangle width="150" height="30" as="alternateBounds" />
          </mxGeometry>
        </mxCell>
        <mxCell id="WK9p7y6N7hUQHeRrj1zA-11" value="" style="shape=tableRow;horizontal=0;startSize=0;swimlaneHead=0;swimlaneBody=0;fillColor=none;collapsible=0;dropTarget=0;points=[[0,0.5],[1,0.5]];portConstraint=eastwest;top=0;left=0;right=0;bottom=0;" parent="WK9p7y6N7hUQHeRrj1zA-1" vertex="1">
          <mxGeometry y="120" width="180" height="30" as="geometry" />
        </mxCell>
        <mxCell id="WK9p7y6N7hUQHeRrj1zA-12" value="" style="shape=partialRectangle;connectable=0;fillColor=none;top=0;left=0;bottom=0;right=0;editable=1;overflow=hidden;whiteSpace=wrap;html=1;" parent="WK9p7y6N7hUQHeRrj1zA-11" vertex="1">
          <mxGeometry width="30" height="30" as="geometry">
            <mxRectangle width="30" height="30" as="alternateBounds" />
          </mxGeometry>
        </mxCell>
        <mxCell id="WK9p7y6N7hUQHeRrj1zA-13" value="Cep" style="shape=partialRectangle;connectable=0;fillColor=none;top=0;left=0;bottom=0;right=0;align=left;spacingLeft=6;overflow=hidden;whiteSpace=wrap;html=1;" parent="WK9p7y6N7hUQHeRrj1zA-11" vertex="1">
          <mxGeometry x="30" width="150" height="30" as="geometry">
            <mxRectangle width="150" height="30" as="alternateBounds" />
          </mxGeometry>
        </mxCell>
        <mxCell id="WK9p7y6N7hUQHeRrj1zA-28" value="Veiculo" style="shape=table;startSize=30;container=1;collapsible=1;childLayout=tableLayout;fixedRows=1;rowLines=0;fontStyle=1;align=center;resizeLast=1;html=1;whiteSpace=wrap;fillColor=#d5e8d4;strokeColor=#82b366;" parent="1" vertex="1">
          <mxGeometry x="524" y="1500" width="180" height="180" as="geometry" />
        </mxCell>
        <mxCell id="V3oC7tbzpYfJNnkAoJJA-26" style="shape=tableRow;horizontal=0;startSize=0;swimlaneHead=0;swimlaneBody=0;fillColor=none;collapsible=0;dropTarget=0;points=[[0,0.5],[1,0.5]];portConstraint=eastwest;top=0;left=0;right=0;bottom=0;html=1;" parent="WK9p7y6N7hUQHeRrj1zA-28" vertex="1">
          <mxGeometry y="30" width="180" height="30" as="geometry" />
        </mxCell>
        <mxCell id="V3oC7tbzpYfJNnkAoJJA-27" value="PK" style="shape=partialRectangle;connectable=0;fillColor=none;top=0;left=0;bottom=0;right=0;fontStyle=1;overflow=hidden;html=1;whiteSpace=wrap;" parent="V3oC7tbzpYfJNnkAoJJA-26" vertex="1">
          <mxGeometry width="60" height="30" as="geometry">
            <mxRectangle width="60" height="30" as="alternateBounds" />
          </mxGeometry>
        </mxCell>
        <mxCell id="V3oC7tbzpYfJNnkAoJJA-28" value="IdVeiculo" style="shape=partialRectangle;connectable=0;fillColor=none;top=0;left=0;bottom=0;right=0;align=left;spacingLeft=6;fontStyle=5;overflow=hidden;html=1;whiteSpace=wrap;" parent="V3oC7tbzpYfJNnkAoJJA-26" vertex="1">
          <mxGeometry x="60" width="120" height="30" as="geometry">
            <mxRectangle width="120" height="30" as="alternateBounds" />
          </mxGeometry>
        </mxCell>
        <mxCell id="V3oC7tbzpYfJNnkAoJJA-19" style="shape=tableRow;horizontal=0;startSize=0;swimlaneHead=0;swimlaneBody=0;fillColor=none;collapsible=0;dropTarget=0;points=[[0,0.5],[1,0.5]];portConstraint=eastwest;top=0;left=0;right=0;bottom=0;html=1;" parent="WK9p7y6N7hUQHeRrj1zA-28" vertex="1">
          <mxGeometry y="60" width="180" height="30" as="geometry" />
        </mxCell>
        <mxCell id="V3oC7tbzpYfJNnkAoJJA-20" value="FK" style="shape=partialRectangle;connectable=0;fillColor=none;top=0;left=0;bottom=0;right=0;fontStyle=1;overflow=hidden;html=1;whiteSpace=wrap;" parent="V3oC7tbzpYfJNnkAoJJA-19" vertex="1">
          <mxGeometry width="60" height="30" as="geometry">
            <mxRectangle width="60" height="30" as="alternateBounds" />
          </mxGeometry>
        </mxCell>
        <mxCell id="V3oC7tbzpYfJNnkAoJJA-21" value="IdEmpresa" style="shape=partialRectangle;connectable=0;fillColor=none;top=0;left=0;bottom=0;right=0;align=left;spacingLeft=6;fontStyle=5;overflow=hidden;html=1;whiteSpace=wrap;" parent="V3oC7tbzpYfJNnkAoJJA-19" vertex="1">
          <mxGeometry x="60" width="120" height="30" as="geometry">
            <mxRectangle width="120" height="30" as="alternateBounds" />
          </mxGeometry>
        </mxCell>
        <mxCell id="WK9p7y6N7hUQHeRrj1zA-29" value="" style="shape=tableRow;horizontal=0;startSize=0;swimlaneHead=0;swimlaneBody=0;fillColor=none;collapsible=0;dropTarget=0;points=[[0,0.5],[1,0.5]];portConstraint=eastwest;top=0;left=0;right=0;bottom=0;html=1;" parent="WK9p7y6N7hUQHeRrj1zA-28" vertex="1">
          <mxGeometry y="90" width="180" height="30" as="geometry" />
        </mxCell>
        <mxCell id="WK9p7y6N7hUQHeRrj1zA-30" value="FK" style="shape=partialRectangle;connectable=0;fillColor=none;top=0;left=0;bottom=0;right=0;fontStyle=1;overflow=hidden;html=1;whiteSpace=wrap;" parent="WK9p7y6N7hUQHeRrj1zA-29" vertex="1">
          <mxGeometry width="60" height="30" as="geometry">
            <mxRectangle width="60" height="30" as="alternateBounds" />
          </mxGeometry>
        </mxCell>
        <mxCell id="WK9p7y6N7hUQHeRrj1zA-31" value="IdMarca" style="shape=partialRectangle;connectable=0;fillColor=none;top=0;left=0;bottom=0;right=0;align=left;spacingLeft=6;fontStyle=5;overflow=hidden;html=1;whiteSpace=wrap;" parent="WK9p7y6N7hUQHeRrj1zA-29" vertex="1">
          <mxGeometry x="60" width="120" height="30" as="geometry">
            <mxRectangle width="120" height="30" as="alternateBounds" />
          </mxGeometry>
        </mxCell>
        <mxCell id="WK9p7y6N7hUQHeRrj1zA-32" value="" style="shape=tableRow;horizontal=0;startSize=0;swimlaneHead=0;swimlaneBody=0;fillColor=none;collapsible=0;dropTarget=0;points=[[0,0.5],[1,0.5]];portConstraint=eastwest;top=0;left=0;right=0;bottom=1;html=1;" parent="WK9p7y6N7hUQHeRrj1zA-28" vertex="1">
          <mxGeometry y="120" width="180" height="30" as="geometry" />
        </mxCell>
        <mxCell id="WK9p7y6N7hUQHeRrj1zA-33" value="FK" style="shape=partialRectangle;connectable=0;fillColor=none;top=0;left=0;bottom=0;right=0;fontStyle=1;overflow=hidden;html=1;whiteSpace=wrap;" parent="WK9p7y6N7hUQHeRrj1zA-32" vertex="1">
          <mxGeometry width="60" height="30" as="geometry">
            <mxRectangle width="60" height="30" as="alternateBounds" />
          </mxGeometry>
        </mxCell>
        <mxCell id="WK9p7y6N7hUQHeRrj1zA-34" value="IdModelo" style="shape=partialRectangle;connectable=0;fillColor=none;top=0;left=0;bottom=0;right=0;align=left;spacingLeft=6;fontStyle=5;overflow=hidden;html=1;whiteSpace=wrap;" parent="WK9p7y6N7hUQHeRrj1zA-32" vertex="1">
          <mxGeometry x="60" width="120" height="30" as="geometry">
            <mxRectangle width="120" height="30" as="alternateBounds" />
          </mxGeometry>
        </mxCell>
        <mxCell id="WK9p7y6N7hUQHeRrj1zA-38" value="" style="shape=tableRow;horizontal=0;startSize=0;swimlaneHead=0;swimlaneBody=0;fillColor=none;collapsible=0;dropTarget=0;points=[[0,0.5],[1,0.5]];portConstraint=eastwest;top=0;left=0;right=0;bottom=0;html=1;" parent="WK9p7y6N7hUQHeRrj1zA-28" vertex="1">
          <mxGeometry y="150" width="180" height="30" as="geometry" />
        </mxCell>
        <mxCell id="WK9p7y6N7hUQHeRrj1zA-39" value="" style="shape=partialRectangle;connectable=0;fillColor=none;top=0;left=0;bottom=0;right=0;editable=1;overflow=hidden;html=1;whiteSpace=wrap;" parent="WK9p7y6N7hUQHeRrj1zA-38" vertex="1">
          <mxGeometry width="60" height="30" as="geometry">
            <mxRectangle width="60" height="30" as="alternateBounds" />
          </mxGeometry>
        </mxCell>
        <mxCell id="WK9p7y6N7hUQHeRrj1zA-40" value="Placa" style="shape=partialRectangle;connectable=0;fillColor=none;top=0;left=0;bottom=0;right=0;align=left;spacingLeft=6;overflow=hidden;html=1;whiteSpace=wrap;" parent="WK9p7y6N7hUQHeRrj1zA-38" vertex="1">
          <mxGeometry x="60" width="120" height="30" as="geometry">
            <mxRectangle width="120" height="30" as="alternateBounds" />
          </mxGeometry>
        </mxCell>
        <mxCell id="WK9p7y6N7hUQHeRrj1zA-44" value="" style="edgeStyle=entityRelationEdgeStyle;fontSize=12;html=1;endArrow=ERoneToMany;rounded=0;exitX=1;exitY=0.5;exitDx=0;exitDy=0;entryX=0;entryY=0.5;entryDx=0;entryDy=0;" parent="1" source="WK9p7y6N7hUQHeRrj1zA-2" target="V3oC7tbzpYfJNnkAoJJA-19" edge="1">
          <mxGeometry width="100" height="100" relative="1" as="geometry">
            <mxPoint x="450" y="1460" as="sourcePoint" />
            <mxPoint x="550" y="1360" as="targetPoint" />
          </mxGeometry>
        </mxCell>
        <mxCell id="WK9p7y6N7hUQHeRrj1zA-97" value="Aluguel" style="shape=table;startSize=30;container=1;collapsible=1;childLayout=tableLayout;fixedRows=1;rowLines=0;fontStyle=1;align=center;resizeLast=1;html=1;whiteSpace=wrap;fillColor=#d5e8d4;strokeColor=#82b366;" parent="1" vertex="1">
          <mxGeometry x="220" y="1400" width="180" height="150" as="geometry" />
        </mxCell>
        <mxCell id="WK9p7y6N7hUQHeRrj1zA-98" value="" style="shape=tableRow;horizontal=0;startSize=0;swimlaneHead=0;swimlaneBody=0;fillColor=none;collapsible=0;dropTarget=0;points=[[0,0.5],[1,0.5]];portConstraint=eastwest;top=0;left=0;right=0;bottom=0;html=1;" parent="WK9p7y6N7hUQHeRrj1zA-97" vertex="1">
          <mxGeometry y="30" width="180" height="30" as="geometry" />
        </mxCell>
        <mxCell id="WK9p7y6N7hUQHeRrj1zA-99" value="PK" style="shape=partialRectangle;connectable=0;fillColor=none;top=0;left=0;bottom=0;right=0;fontStyle=1;overflow=hidden;html=1;whiteSpace=wrap;" parent="WK9p7y6N7hUQHeRrj1zA-98" vertex="1">
          <mxGeometry width="60" height="30" as="geometry">
            <mxRectangle width="60" height="30" as="alternateBounds" />
          </mxGeometry>
        </mxCell>
        <mxCell id="WK9p7y6N7hUQHeRrj1zA-100" value="IdAluguel" style="shape=partialRectangle;connectable=0;fillColor=none;top=0;left=0;bottom=0;right=0;align=left;spacingLeft=6;fontStyle=5;overflow=hidden;html=1;whiteSpace=wrap;" parent="WK9p7y6N7hUQHeRrj1zA-98" vertex="1">
          <mxGeometry x="60" width="120" height="30" as="geometry">
            <mxRectangle width="120" height="30" as="alternateBounds" />
          </mxGeometry>
        </mxCell>
        <mxCell id="V3oC7tbzpYfJNnkAoJJA-69" style="shape=tableRow;horizontal=0;startSize=0;swimlaneHead=0;swimlaneBody=0;fillColor=none;collapsible=0;dropTarget=0;points=[[0,0.5],[1,0.5]];portConstraint=eastwest;top=0;left=0;right=0;bottom=0;html=1;" parent="WK9p7y6N7hUQHeRrj1zA-97" vertex="1">
          <mxGeometry y="60" width="180" height="30" as="geometry" />
        </mxCell>
        <mxCell id="V3oC7tbzpYfJNnkAoJJA-70" value="FK" style="shape=partialRectangle;connectable=0;fillColor=none;top=0;left=0;bottom=0;right=0;fontStyle=1;overflow=hidden;html=1;whiteSpace=wrap;" parent="V3oC7tbzpYfJNnkAoJJA-69" vertex="1">
          <mxGeometry width="60" height="30" as="geometry">
            <mxRectangle width="60" height="30" as="alternateBounds" />
          </mxGeometry>
        </mxCell>
        <mxCell id="V3oC7tbzpYfJNnkAoJJA-71" value="IdVeiculo" style="shape=partialRectangle;connectable=0;fillColor=none;top=0;left=0;bottom=0;right=0;align=left;spacingLeft=6;fontStyle=5;overflow=hidden;html=1;whiteSpace=wrap;" parent="V3oC7tbzpYfJNnkAoJJA-69" vertex="1">
          <mxGeometry x="60" width="120" height="30" as="geometry">
            <mxRectangle width="120" height="30" as="alternateBounds" />
          </mxGeometry>
        </mxCell>
        <mxCell id="WK9p7y6N7hUQHeRrj1zA-101" value="" style="shape=tableRow;horizontal=0;startSize=0;swimlaneHead=0;swimlaneBody=0;fillColor=none;collapsible=0;dropTarget=0;points=[[0,0.5],[1,0.5]];portConstraint=eastwest;top=0;left=0;right=0;bottom=1;html=1;" parent="WK9p7y6N7hUQHeRrj1zA-97" vertex="1">
          <mxGeometry y="90" width="180" height="30" as="geometry" />
        </mxCell>
        <mxCell id="WK9p7y6N7hUQHeRrj1zA-102" value="FK" style="shape=partialRectangle;connectable=0;fillColor=none;top=0;left=0;bottom=0;right=0;fontStyle=1;overflow=hidden;html=1;whiteSpace=wrap;" parent="WK9p7y6N7hUQHeRrj1zA-101" vertex="1">
          <mxGeometry width="60" height="30" as="geometry">
            <mxRectangle width="60" height="30" as="alternateBounds" />
          </mxGeometry>
        </mxCell>
        <mxCell id="WK9p7y6N7hUQHeRrj1zA-103" value="IdCliente" style="shape=partialRectangle;connectable=0;fillColor=none;top=0;left=0;bottom=0;right=0;align=left;spacingLeft=6;fontStyle=5;overflow=hidden;html=1;whiteSpace=wrap;" parent="WK9p7y6N7hUQHeRrj1zA-101" vertex="1">
          <mxGeometry x="60" width="120" height="30" as="geometry">
            <mxRectangle width="120" height="30" as="alternateBounds" />
          </mxGeometry>
        </mxCell>
        <mxCell id="WK9p7y6N7hUQHeRrj1zA-104" value="" style="shape=tableRow;horizontal=0;startSize=0;swimlaneHead=0;swimlaneBody=0;fillColor=none;collapsible=0;dropTarget=0;points=[[0,0.5],[1,0.5]];portConstraint=eastwest;top=0;left=0;right=0;bottom=0;html=1;" parent="WK9p7y6N7hUQHeRrj1zA-97" vertex="1">
          <mxGeometry y="120" width="180" height="30" as="geometry" />
        </mxCell>
        <mxCell id="WK9p7y6N7hUQHeRrj1zA-105" value="" style="shape=partialRectangle;connectable=0;fillColor=none;top=0;left=0;bottom=0;right=0;editable=1;overflow=hidden;html=1;whiteSpace=wrap;" parent="WK9p7y6N7hUQHeRrj1zA-104" vertex="1">
          <mxGeometry width="60" height="30" as="geometry">
            <mxRectangle width="60" height="30" as="alternateBounds" />
          </mxGeometry>
        </mxCell>
        <mxCell id="WK9p7y6N7hUQHeRrj1zA-106" value="Preço" style="shape=partialRectangle;connectable=0;fillColor=none;top=0;left=0;bottom=0;right=0;align=left;spacingLeft=6;overflow=hidden;html=1;whiteSpace=wrap;" parent="WK9p7y6N7hUQHeRrj1zA-104" vertex="1">
          <mxGeometry x="60" width="120" height="30" as="geometry">
            <mxRectangle width="120" height="30" as="alternateBounds" />
          </mxGeometry>
        </mxCell>
        <mxCell id="V3oC7tbzpYfJNnkAoJJA-47" value="Modelo" style="shape=table;startSize=30;container=1;collapsible=1;childLayout=tableLayout;fixedRows=1;rowLines=0;fontStyle=1;align=center;resizeLast=1;html=1;fillColor=#d5e8d4;strokeColor=#82b366;" parent="1" vertex="1">
          <mxGeometry x="810" y="1410" width="180" height="90" as="geometry" />
        </mxCell>
        <mxCell id="V3oC7tbzpYfJNnkAoJJA-48" value="" style="shape=tableRow;horizontal=0;startSize=0;swimlaneHead=0;swimlaneBody=0;fillColor=none;collapsible=0;dropTarget=0;points=[[0,0.5],[1,0.5]];portConstraint=eastwest;top=0;left=0;right=0;bottom=1;" parent="V3oC7tbzpYfJNnkAoJJA-47" vertex="1">
          <mxGeometry y="30" width="180" height="30" as="geometry" />
        </mxCell>
        <mxCell id="V3oC7tbzpYfJNnkAoJJA-49" value="PK" style="shape=partialRectangle;connectable=0;fillColor=none;top=0;left=0;bottom=0;right=0;fontStyle=1;overflow=hidden;whiteSpace=wrap;html=1;" parent="V3oC7tbzpYfJNnkAoJJA-48" vertex="1">
          <mxGeometry width="30" height="30" as="geometry">
            <mxRectangle width="30" height="30" as="alternateBounds" />
          </mxGeometry>
        </mxCell>
        <mxCell id="V3oC7tbzpYfJNnkAoJJA-50" value="IdModelo" style="shape=partialRectangle;connectable=0;fillColor=none;top=0;left=0;bottom=0;right=0;align=left;spacingLeft=6;fontStyle=5;overflow=hidden;whiteSpace=wrap;html=1;" parent="V3oC7tbzpYfJNnkAoJJA-48" vertex="1">
          <mxGeometry x="30" width="150" height="30" as="geometry">
            <mxRectangle width="150" height="30" as="alternateBounds" />
          </mxGeometry>
        </mxCell>
        <mxCell id="V3oC7tbzpYfJNnkAoJJA-51" value="" style="shape=tableRow;horizontal=0;startSize=0;swimlaneHead=0;swimlaneBody=0;fillColor=none;collapsible=0;dropTarget=0;points=[[0,0.5],[1,0.5]];portConstraint=eastwest;top=0;left=0;right=0;bottom=0;" parent="V3oC7tbzpYfJNnkAoJJA-47" vertex="1">
          <mxGeometry y="60" width="180" height="30" as="geometry" />
        </mxCell>
        <mxCell id="V3oC7tbzpYfJNnkAoJJA-52" value="" style="shape=partialRectangle;connectable=0;fillColor=none;top=0;left=0;bottom=0;right=0;editable=1;overflow=hidden;whiteSpace=wrap;html=1;" parent="V3oC7tbzpYfJNnkAoJJA-51" vertex="1">
          <mxGeometry width="30" height="30" as="geometry">
            <mxRectangle width="30" height="30" as="alternateBounds" />
          </mxGeometry>
        </mxCell>
        <mxCell id="V3oC7tbzpYfJNnkAoJJA-53" value="NomeModelo" style="shape=partialRectangle;connectable=0;fillColor=none;top=0;left=0;bottom=0;right=0;align=left;spacingLeft=6;overflow=hidden;whiteSpace=wrap;html=1;" parent="V3oC7tbzpYfJNnkAoJJA-51" vertex="1">
          <mxGeometry x="30" width="150" height="30" as="geometry">
            <mxRectangle width="150" height="30" as="alternateBounds" />
          </mxGeometry>
        </mxCell>
        <mxCell id="V3oC7tbzpYfJNnkAoJJA-60" value="Marca" style="shape=table;startSize=30;container=1;collapsible=1;childLayout=tableLayout;fixedRows=1;rowLines=0;fontStyle=1;align=center;resizeLast=1;html=1;fillColor=#d5e8d4;strokeColor=#82b366;" parent="1" vertex="1">
          <mxGeometry x="810" y="1640" width="180" height="90" as="geometry" />
        </mxCell>
        <mxCell id="V3oC7tbzpYfJNnkAoJJA-61" value="" style="shape=tableRow;horizontal=0;startSize=0;swimlaneHead=0;swimlaneBody=0;fillColor=none;collapsible=0;dropTarget=0;points=[[0,0.5],[1,0.5]];portConstraint=eastwest;top=0;left=0;right=0;bottom=1;" parent="V3oC7tbzpYfJNnkAoJJA-60" vertex="1">
          <mxGeometry y="30" width="180" height="30" as="geometry" />
        </mxCell>
        <mxCell id="V3oC7tbzpYfJNnkAoJJA-62" value="PK" style="shape=partialRectangle;connectable=0;fillColor=none;top=0;left=0;bottom=0;right=0;fontStyle=1;overflow=hidden;whiteSpace=wrap;html=1;" parent="V3oC7tbzpYfJNnkAoJJA-61" vertex="1">
          <mxGeometry width="30" height="30" as="geometry">
            <mxRectangle width="30" height="30" as="alternateBounds" />
          </mxGeometry>
        </mxCell>
        <mxCell id="V3oC7tbzpYfJNnkAoJJA-63" value="IdMarca" style="shape=partialRectangle;connectable=0;fillColor=none;top=0;left=0;bottom=0;right=0;align=left;spacingLeft=6;fontStyle=5;overflow=hidden;whiteSpace=wrap;html=1;" parent="V3oC7tbzpYfJNnkAoJJA-61" vertex="1">
          <mxGeometry x="30" width="150" height="30" as="geometry">
            <mxRectangle width="150" height="30" as="alternateBounds" />
          </mxGeometry>
        </mxCell>
        <mxCell id="V3oC7tbzpYfJNnkAoJJA-64" value="" style="shape=tableRow;horizontal=0;startSize=0;swimlaneHead=0;swimlaneBody=0;fillColor=none;collapsible=0;dropTarget=0;points=[[0,0.5],[1,0.5]];portConstraint=eastwest;top=0;left=0;right=0;bottom=0;" parent="V3oC7tbzpYfJNnkAoJJA-60" vertex="1">
          <mxGeometry y="60" width="180" height="30" as="geometry" />
        </mxCell>
        <mxCell id="V3oC7tbzpYfJNnkAoJJA-65" value="" style="shape=partialRectangle;connectable=0;fillColor=none;top=0;left=0;bottom=0;right=0;editable=1;overflow=hidden;whiteSpace=wrap;html=1;" parent="V3oC7tbzpYfJNnkAoJJA-64" vertex="1">
          <mxGeometry width="30" height="30" as="geometry">
            <mxRectangle width="30" height="30" as="alternateBounds" />
          </mxGeometry>
        </mxCell>
        <mxCell id="V3oC7tbzpYfJNnkAoJJA-66" value="NomeMarca" style="shape=partialRectangle;connectable=0;fillColor=none;top=0;left=0;bottom=0;right=0;align=left;spacingLeft=6;overflow=hidden;whiteSpace=wrap;html=1;" parent="V3oC7tbzpYfJNnkAoJJA-64" vertex="1">
          <mxGeometry x="30" width="150" height="30" as="geometry">
            <mxRectangle width="150" height="30" as="alternateBounds" />
          </mxGeometry>
        </mxCell>
        <mxCell id="V3oC7tbzpYfJNnkAoJJA-72" value="Cliente" style="shape=table;startSize=30;container=1;collapsible=1;childLayout=tableLayout;fixedRows=1;rowLines=0;fontStyle=1;align=center;resizeLast=1;html=1;fillColor=#d5e8d4;strokeColor=#82b366;" parent="1" vertex="1">
          <mxGeometry x="-100" y="1550" width="180" height="120" as="geometry" />
        </mxCell>
        <mxCell id="V3oC7tbzpYfJNnkAoJJA-73" value="" style="shape=tableRow;horizontal=0;startSize=0;swimlaneHead=0;swimlaneBody=0;fillColor=none;collapsible=0;dropTarget=0;points=[[0,0.5],[1,0.5]];portConstraint=eastwest;top=0;left=0;right=0;bottom=1;" parent="V3oC7tbzpYfJNnkAoJJA-72" vertex="1">
          <mxGeometry y="30" width="180" height="30" as="geometry" />
        </mxCell>
        <mxCell id="V3oC7tbzpYfJNnkAoJJA-74" value="PK" style="shape=partialRectangle;connectable=0;fillColor=none;top=0;left=0;bottom=0;right=0;fontStyle=1;overflow=hidden;whiteSpace=wrap;html=1;" parent="V3oC7tbzpYfJNnkAoJJA-73" vertex="1">
          <mxGeometry width="30" height="30" as="geometry">
            <mxRectangle width="30" height="30" as="alternateBounds" />
          </mxGeometry>
        </mxCell>
        <mxCell id="V3oC7tbzpYfJNnkAoJJA-75" value="IdCliente" style="shape=partialRectangle;connectable=0;fillColor=none;top=0;left=0;bottom=0;right=0;align=left;spacingLeft=6;fontStyle=5;overflow=hidden;whiteSpace=wrap;html=1;" parent="V3oC7tbzpYfJNnkAoJJA-73" vertex="1">
          <mxGeometry x="30" width="150" height="30" as="geometry">
            <mxRectangle width="150" height="30" as="alternateBounds" />
          </mxGeometry>
        </mxCell>
        <mxCell id="V3oC7tbzpYfJNnkAoJJA-76" value="" style="shape=tableRow;horizontal=0;startSize=0;swimlaneHead=0;swimlaneBody=0;fillColor=none;collapsible=0;dropTarget=0;points=[[0,0.5],[1,0.5]];portConstraint=eastwest;top=0;left=0;right=0;bottom=0;" parent="V3oC7tbzpYfJNnkAoJJA-72" vertex="1">
          <mxGeometry y="60" width="180" height="30" as="geometry" />
        </mxCell>
        <mxCell id="V3oC7tbzpYfJNnkAoJJA-77" value="" style="shape=partialRectangle;connectable=0;fillColor=none;top=0;left=0;bottom=0;right=0;editable=1;overflow=hidden;whiteSpace=wrap;html=1;" parent="V3oC7tbzpYfJNnkAoJJA-76" vertex="1">
          <mxGeometry width="30" height="30" as="geometry">
            <mxRectangle width="30" height="30" as="alternateBounds" />
          </mxGeometry>
        </mxCell>
        <mxCell id="V3oC7tbzpYfJNnkAoJJA-78" value="Nome" style="shape=partialRectangle;connectable=0;fillColor=none;top=0;left=0;bottom=0;right=0;align=left;spacingLeft=6;overflow=hidden;whiteSpace=wrap;html=1;" parent="V3oC7tbzpYfJNnkAoJJA-76" vertex="1">
          <mxGeometry x="30" width="150" height="30" as="geometry">
            <mxRectangle width="150" height="30" as="alternateBounds" />
          </mxGeometry>
        </mxCell>
        <mxCell id="V3oC7tbzpYfJNnkAoJJA-85" style="shape=tableRow;horizontal=0;startSize=0;swimlaneHead=0;swimlaneBody=0;fillColor=none;collapsible=0;dropTarget=0;points=[[0,0.5],[1,0.5]];portConstraint=eastwest;top=0;left=0;right=0;bottom=0;" parent="V3oC7tbzpYfJNnkAoJJA-72" vertex="1">
          <mxGeometry y="90" width="180" height="30" as="geometry" />
        </mxCell>
        <mxCell id="V3oC7tbzpYfJNnkAoJJA-86" style="shape=partialRectangle;connectable=0;fillColor=none;top=0;left=0;bottom=0;right=0;editable=1;overflow=hidden;whiteSpace=wrap;html=1;" parent="V3oC7tbzpYfJNnkAoJJA-85" vertex="1">
          <mxGeometry width="30" height="30" as="geometry">
            <mxRectangle width="30" height="30" as="alternateBounds" />
          </mxGeometry>
        </mxCell>
        <mxCell id="V3oC7tbzpYfJNnkAoJJA-87" value="Cpf" style="shape=partialRectangle;connectable=0;fillColor=none;top=0;left=0;bottom=0;right=0;align=left;spacingLeft=6;overflow=hidden;whiteSpace=wrap;html=1;" parent="V3oC7tbzpYfJNnkAoJJA-85" vertex="1">
          <mxGeometry x="30" width="150" height="30" as="geometry">
            <mxRectangle width="150" height="30" as="alternateBounds" />
          </mxGeometry>
        </mxCell>
        <mxCell id="V3oC7tbzpYfJNnkAoJJA-91" value="" style="edgeStyle=entityRelationEdgeStyle;fontSize=12;html=1;endArrow=ERoneToMany;rounded=0;exitX=0;exitY=0.5;exitDx=0;exitDy=0;entryX=1;entryY=0.5;entryDx=0;entryDy=0;" parent="1" source="V3oC7tbzpYfJNnkAoJJA-48" target="WK9p7y6N7hUQHeRrj1zA-32" edge="1">
          <mxGeometry width="100" height="100" relative="1" as="geometry">
            <mxPoint x="710" y="1500" as="sourcePoint" />
            <mxPoint x="730" y="1570" as="targetPoint" />
          </mxGeometry>
        </mxCell>
        <mxCell id="V3oC7tbzpYfJNnkAoJJA-92" value="" style="edgeStyle=entityRelationEdgeStyle;fontSize=12;html=1;endArrow=ERoneToMany;rounded=0;entryX=1;entryY=0.5;entryDx=0;entryDy=0;exitX=0;exitY=0.5;exitDx=0;exitDy=0;" parent="1" source="V3oC7tbzpYfJNnkAoJJA-61" target="WK9p7y6N7hUQHeRrj1zA-29" edge="1">
          <mxGeometry width="100" height="100" relative="1" as="geometry">
            <mxPoint x="760" y="1690" as="sourcePoint" />
            <mxPoint x="860" y="1590" as="targetPoint" />
          </mxGeometry>
        </mxCell>
        <mxCell id="V3oC7tbzpYfJNnkAoJJA-94" value="" style="edgeStyle=entityRelationEdgeStyle;fontSize=12;html=1;endArrow=ERoneToMany;rounded=0;exitX=0;exitY=0.5;exitDx=0;exitDy=0;entryX=1;entryY=0.5;entryDx=0;entryDy=0;" parent="1" source="V3oC7tbzpYfJNnkAoJJA-26" target="WK9p7y6N7hUQHeRrj1zA-98" edge="1">
          <mxGeometry width="100" height="100" relative="1" as="geometry">
            <mxPoint x="430" y="1560" as="sourcePoint" />
            <mxPoint x="530" y="1460" as="targetPoint" />
          </mxGeometry>
        </mxCell>
        <mxCell id="V3oC7tbzpYfJNnkAoJJA-95" value="" style="edgeStyle=entityRelationEdgeStyle;fontSize=12;html=1;endArrow=ERoneToMany;rounded=0;entryX=0;entryY=0.5;entryDx=0;entryDy=0;exitX=1;exitY=0.5;exitDx=0;exitDy=0;" parent="1" source="V3oC7tbzpYfJNnkAoJJA-73" target="WK9p7y6N7hUQHeRrj1zA-101" edge="1">
          <mxGeometry width="100" height="100" relative="1" as="geometry">
            <mxPoint x="90" y="1460" as="sourcePoint" />
            <mxPoint x="180" y="1350" as="targetPoint" />
          </mxGeometry>
        </mxCell>
        <mxCell id="V3oC7tbzpYfJNnkAoJJA-96" value="&lt;table xmlns=&quot;http://www.w3.org/1999/xhtml&quot; cellspacing=&quot;0&quot; cellpadding=&quot;0&quot; dir=&quot;ltr&quot; border=&quot;1&quot; style=&quot;table-layout:fixed;font-size:10pt;font-family:Arial;width:0px;border-collapse:collapse;border:none&quot;&gt;&lt;colgroup&gt;&lt;col width=&quot;100&quot;&gt;&lt;col width=&quot;100&quot;&gt;&lt;col width=&quot;100&quot;&gt;&lt;col width=&quot;100&quot;&gt;&lt;col width=&quot;143&quot;&gt;&lt;col width=&quot;130&quot;&gt;&lt;col width=&quot;100&quot;&gt;&lt;col width=&quot;100&quot;&gt;&lt;col width=&quot;100&quot;&gt;&lt;col width=&quot;100&quot;&gt;&lt;/colgroup&gt;&lt;tbody&gt;&lt;tr style=&quot;height:21px;&quot;&gt;&lt;td style=&quot;border-top:1px solid #000000;border-right:1px solid #000000;border-bottom:1px solid #000000;border-left:1px solid #000000;overflow:hidden;padding:2px 3px 2px 3px;vertical-align:bottom;text-align:center;&quot; rowspan=&quot;1&quot; colspan=&quot;4&quot; data-sheets-value=&quot;{&amp;quot;1&amp;quot;:2,&amp;quot;2&amp;quot;:&amp;quot;Empresa&amp;quot;}&quot;&gt;Empresa&lt;/td&gt;&lt;td style=&quot;border-right:1px solid #000000;overflow:hidden;padding:2px 3px 2px 3px;vertical-align:bottom;&quot;&gt;&lt;/td&gt;&lt;td style=&quot;border-top:1px solid #000000;border-right:1px solid #000000;border-bottom:1px solid #000000;overflow:hidden;padding:2px 3px 2px 3px;vertical-align:bottom;text-align:center;&quot; rowspan=&quot;1&quot; colspan=&quot;5&quot; data-sheets-value=&quot;{&amp;quot;1&amp;quot;:2,&amp;quot;2&amp;quot;:&amp;quot;Veiculo&amp;quot;}&quot;&gt;Veiculo&lt;/td&gt;&lt;/tr&gt;&lt;tr style=&quot;height:21px;&quot;&gt;&lt;td style=&quot;border-right:1px solid #000000;border-bottom:1px solid #000000;border-left:1px solid #000000;overflow:hidden;padding:2px 3px 2px 3px;vertical-align:bottom;&quot; data-sheets-value=&quot;{&amp;quot;1&amp;quot;:2,&amp;quot;2&amp;quot;:&amp;quot;IdEmpresa&amp;quot;}&quot;&gt;IdEmpresa&lt;/td&gt;&lt;td style=&quot;border-right:1px solid #000000;border-bottom:1px solid #000000;overflow:hidden;padding:2px 3px 2px 3px;vertical-align:bottom;&quot; data-sheets-value=&quot;{&amp;quot;1&amp;quot;:2,&amp;quot;2&amp;quot;:&amp;quot;Rua&amp;quot;}&quot;&gt;Rua&lt;/td&gt;&lt;td style=&quot;border-right:1px solid #000000;border-bottom:1px solid #000000;overflow:hidden;padding:2px 3px 2px 3px;vertical-align:bottom;&quot; data-sheets-value=&quot;{&amp;quot;1&amp;quot;:2,&amp;quot;2&amp;quot;:&amp;quot;Bairro&amp;quot;}&quot;&gt;Bairro&lt;/td&gt;&lt;td style=&quot;border-right:1px solid #000000;border-bottom:1px solid #000000;overflow:hidden;padding:2px 3px 2px 3px;vertical-align:bottom;&quot; data-sheets-value=&quot;{&amp;quot;1&amp;quot;:2,&amp;quot;2&amp;quot;:&amp;quot;Cep&amp;quot;}&quot;&gt;Cep&lt;/td&gt;&lt;td style=&quot;border-right:1px solid #000000;overflow:hidden;padding:2px 3px 2px 3px;vertical-align:bottom;&quot;&gt;&lt;/td&gt;&lt;td style=&quot;border-right:1px solid #000000;border-bottom:1px solid #000000;overflow:hidden;padding:2px 3px 2px 3px;vertical-align:bottom;&quot; data-sheets-value=&quot;{&amp;quot;1&amp;quot;:2,&amp;quot;2&amp;quot;:&amp;quot;IdVeiculo&amp;quot;}&quot;&gt;IdVeiculo&lt;/td&gt;&lt;td style=&quot;border-right:1px solid #000000;border-bottom:1px solid #000000;overflow:hidden;padding:2px 3px 2px 3px;vertical-align:bottom;&quot; data-sheets-value=&quot;{&amp;quot;1&amp;quot;:2,&amp;quot;2&amp;quot;:&amp;quot;IdEmpresa&amp;quot;}&quot;&gt;IdEmpresa&lt;/td&gt;&lt;td style=&quot;border-right:1px solid #000000;border-bottom:1px solid #000000;overflow:hidden;padding:2px 3px 2px 3px;vertical-align:bottom;&quot; data-sheets-value=&quot;{&amp;quot;1&amp;quot;:2,&amp;quot;2&amp;quot;:&amp;quot;IdMarca&amp;quot;}&quot;&gt;IdMarca&lt;/td&gt;&lt;td style=&quot;border-right:1px solid #000000;border-bottom:1px solid #000000;overflow:hidden;padding:2px 3px 2px 3px;vertical-align:bottom;&quot; data-sheets-value=&quot;{&amp;quot;1&amp;quot;:2,&amp;quot;2&amp;quot;:&amp;quot;IdModelo&amp;quot;}&quot;&gt;IdModelo&lt;/td&gt;&lt;td style=&quot;border-right:1px solid #000000;border-bottom:1px solid #000000;overflow:hidden;padding:2px 3px 2px 3px;vertical-align:bottom;&quot; data-sheets-value=&quot;{&amp;quot;1&amp;quot;:2,&amp;quot;2&amp;quot;:&amp;quot;Placa&amp;quot;}&quot;&gt;Placa&lt;/td&gt;&lt;/tr&gt;&lt;tr style=&quot;height:21px;&quot;&gt;&lt;td style=&quot;border-right:1px solid #000000;border-bottom:1px solid #000000;border-left:1px solid #000000;overflow:hidden;padding:2px 3px 2px 3px;vertical-align:bottom;&quot; data-sheets-value=&quot;{&amp;quot;1&amp;quot;:3,&amp;quot;3&amp;quot;:1}&quot;&gt;1&lt;/td&gt;&lt;td style=&quot;border-right:1px solid #000000;border-bottom:1px solid #000000;overflow:hidden;padding:2px 3px 2px 3px;vertical-align:bottom;&quot; data-sheets-value=&quot;{&amp;quot;1&amp;quot;:2,&amp;quot;2&amp;quot;:&amp;quot;Rua Maria F.&amp;quot;}&quot;&gt;Rua Maria F.&lt;/td&gt;&lt;td style=&quot;border-right:1px solid #000000;border-bottom:1px solid #000000;overflow:hidden;padding:2px 3px 2px 3px;vertical-align:bottom;&quot; data-sheets-value=&quot;{&amp;quot;1&amp;quot;:2,&amp;quot;2&amp;quot;:&amp;quot;Jardim Bela&amp;quot;}&quot;&gt;Jardim Bela&lt;/td&gt;&lt;td style=&quot;border-right:1px solid #000000;border-bottom:1px solid #000000;overflow:hidden;padding:2px 3px 2px 3px;vertical-align:bottom;&quot; data-sheets-value=&quot;{&amp;quot;1&amp;quot;:2,&amp;quot;2&amp;quot;:&amp;quot;09951-340&amp;quot;}&quot;&gt;09951-340&lt;/td&gt;&lt;td style=&quot;border-right:1px solid #000000;overflow:hidden;padding:2px 3px 2px 3px;vertical-align:bottom;&quot;&gt;&lt;/td&gt;&lt;td style=&quot;border-right:1px solid #000000;border-bottom:1px solid #000000;overflow:hidden;padding:2px 3px 2px 3px;vertical-align:bottom;&quot; data-sheets-value=&quot;{&amp;quot;1&amp;quot;:3,&amp;quot;3&amp;quot;:11}&quot;&gt;10&lt;/td&gt;&lt;td style=&quot;border-right:1px solid #000000;border-bottom:1px solid #000000;overflow:hidden;padding:2px 3px 2px 3px;vertical-align:bottom;&quot; data-sheets-value=&quot;{&amp;quot;1&amp;quot;:3,&amp;quot;3&amp;quot;:1}&quot;&gt;1&lt;/td&gt;&lt;td style=&quot;border-right:1px solid #000000;border-bottom:1px solid #000000;overflow:hidden;padding:2px 3px 2px 3px;vertical-align:bottom;&quot; data-sheets-value=&quot;{&amp;quot;1&amp;quot;:3,&amp;quot;3&amp;quot;:4}&quot;&gt;4&lt;/td&gt;&lt;td style=&quot;border-right:1px solid #000000;border-bottom:1px solid #000000;overflow:hidden;padding:2px 3px 2px 3px;vertical-align:bottom;&quot; data-sheets-value=&quot;{&amp;quot;1&amp;quot;:3,&amp;quot;3&amp;quot;:7}&quot;&gt;13&lt;/td&gt;&lt;td style=&quot;border-right:1px solid #000000;border-bottom:1px solid #000000;overflow:hidden;padding:2px 3px 2px 3px;vertical-align:bottom;&quot; data-sheets-value=&quot;{&amp;quot;1&amp;quot;:2,&amp;quot;2&amp;quot;:&amp;quot;5555-5555&amp;quot;}&quot;&gt;5555-5555&lt;/td&gt;&lt;/tr&gt;&lt;tr style=&quot;height:21px;&quot;&gt;&lt;td style=&quot;border-right:1px solid #000000;border-bottom:1px solid #000000;border-left:1px solid #000000;overflow:hidden;padding:2px 3px 2px 3px;vertical-align:bottom;&quot; data-sheets-value=&quot;{&amp;quot;1&amp;quot;:3,&amp;quot;3&amp;quot;:2}&quot;&gt;2&lt;/td&gt;&lt;td style=&quot;border-right:1px solid #000000;border-bottom:1px solid #000000;overflow:hidden;padding:2px 3px 2px 3px;vertical-align:bottom;&quot; data-sheets-value=&quot;{&amp;quot;1&amp;quot;:2,&amp;quot;2&amp;quot;:&amp;quot;Rua Fernandes F.&amp;quot;}&quot;&gt;Rua Fer. F.&lt;/td&gt;&lt;td style=&quot;border-right:1px solid #000000;border-bottom:1px solid #000000;overflow:hidden;padding:2px 3px 2px 3px;vertical-align:bottom;&quot; data-sheets-value=&quot;{&amp;quot;1&amp;quot;:2,&amp;quot;2&amp;quot;:&amp;quot;Bela Vista&amp;quot;}&quot;&gt;Bela Vista&lt;/td&gt;&lt;td style=&quot;border-right:1px solid #000000;border-bottom:1px solid #000000;overflow:hidden;padding:2px 3px 2px 3px;vertical-align:bottom;&quot; data-sheets-value=&quot;{&amp;quot;1&amp;quot;:2,&amp;quot;2&amp;quot;:&amp;quot;44444-444&amp;quot;}&quot;&gt;44444-444&lt;/td&gt;&lt;td style=&quot;border-right:1px solid #000000;overflow:hidden;padding:2px 3px 2px 3px;vertical-align:bottom;&quot;&gt;&lt;/td&gt;&lt;td style=&quot;border-right:1px solid #000000;border-bottom:1px solid #000000;overflow:hidden;padding:2px 3px 2px 3px;vertical-align:bottom;&quot; data-sheets-value=&quot;{&amp;quot;1&amp;quot;:3,&amp;quot;3&amp;quot;:22}&quot;&gt;11&lt;/td&gt;&lt;td style=&quot;border-right:1px solid #000000;border-bottom:1px solid #000000;overflow:hidden;padding:2px 3px 2px 3px;vertical-align:bottom;&quot; data-sheets-value=&quot;{&amp;quot;1&amp;quot;:3,&amp;quot;3&amp;quot;:2}&quot;&gt;2&lt;/td&gt;&lt;td style=&quot;border-right:1px solid #000000;border-bottom:1px solid #000000;overflow:hidden;padding:2px 3px 2px 3px;vertical-align:bottom;&quot; data-sheets-value=&quot;{&amp;quot;1&amp;quot;:3,&amp;quot;3&amp;quot;:5}&quot;&gt;5&lt;/td&gt;&lt;td style=&quot;border-right:1px solid #000000;border-bottom:1px solid #000000;overflow:hidden;padding:2px 3px 2px 3px;vertical-align:bottom;&quot; data-sheets-value=&quot;{&amp;quot;1&amp;quot;:3,&amp;quot;3&amp;quot;:8}&quot;&gt;14&lt;/td&gt;&lt;td style=&quot;border-right:1px solid #000000;border-bottom:1px solid #000000;overflow:hidden;padding:2px 3px 2px 3px;vertical-align:bottom;&quot; data-sheets-value=&quot;{&amp;quot;1&amp;quot;:2,&amp;quot;2&amp;quot;:&amp;quot;4444-4444&amp;quot;}&quot;&gt;4444-4444&lt;/td&gt;&lt;/tr&gt;&lt;tr style=&quot;height:21px;&quot;&gt;&lt;td style=&quot;border-right:1px solid #000000;border-bottom:1px solid #000000;border-left:1px solid #000000;overflow:hidden;padding:2px 3px 2px 3px;vertical-align:bottom;&quot; data-sheets-value=&quot;{&amp;quot;1&amp;quot;:3,&amp;quot;3&amp;quot;:3}&quot;&gt;3&lt;/td&gt;&lt;td style=&quot;border-right:1px solid #000000;border-bottom:1px solid #000000;overflow:hidden;padding:2px 3px 2px 3px;vertical-align:bottom;&quot; data-sheets-value=&quot;{&amp;quot;1&amp;quot;:2,&amp;quot;2&amp;quot;:&amp;quot;Rua Maria S.&amp;quot;}&quot;&gt;Rua Maria S.&lt;/td&gt;&lt;td style=&quot;border-right:1px solid #000000;border-bottom:1px solid #000000;overflow:hidden;padding:2px 3px 2px 3px;vertical-align:bottom;&quot; data-sheets-value=&quot;{&amp;quot;1&amp;quot;:2,&amp;quot;2&amp;quot;:&amp;quot;Vila Madalena&amp;quot;}&quot;&gt;Vila Madalena&lt;/td&gt;&lt;td style=&quot;border-right:1px solid #000000;border-bottom:1px solid #000000;overflow:hidden;padding:2px 3px 2px 3px;vertical-align:bottom;&quot; data-sheets-value=&quot;{&amp;quot;1&amp;quot;:2,&amp;quot;2&amp;quot;:&amp;quot;33333-333&amp;quot;}&quot;&gt;33333-333&lt;/td&gt;&lt;td style=&quot;border-right:1px solid #000000;overflow:hidden;padding:2px 3px 2px 3px;vertical-align:bottom;&quot;&gt;&lt;/td&gt;&lt;td style=&quot;border-right:1px solid #000000;border-bottom:1px solid #000000;overflow:hidden;padding:2px 3px 2px 3px;vertical-align:bottom;&quot; data-sheets-value=&quot;{&amp;quot;1&amp;quot;:3,&amp;quot;3&amp;quot;:33}&quot;&gt;12&lt;/td&gt;&lt;td style=&quot;border-right:1px solid #000000;border-bottom:1px solid #000000;overflow:hidden;padding:2px 3px 2px 3px;vertical-align:bottom;&quot; data-sheets-value=&quot;{&amp;quot;1&amp;quot;:3,&amp;quot;3&amp;quot;:3}&quot;&gt;3&lt;/td&gt;&lt;td style=&quot;border-right:1px solid #000000;border-bottom:1px solid #000000;overflow:hidden;padding:2px 3px 2px 3px;vertical-align:bottom;&quot; data-sheets-value=&quot;{&amp;quot;1&amp;quot;:3,&amp;quot;3&amp;quot;:6}&quot;&gt;6&lt;/td&gt;&lt;td style=&quot;border-right:1px solid #000000;border-bottom:1px solid #000000;overflow:hidden;padding:2px 3px 2px 3px;vertical-align:bottom;&quot; data-sheets-value=&quot;{&amp;quot;1&amp;quot;:3,&amp;quot;3&amp;quot;:9}&quot;&gt;15&lt;/td&gt;&lt;td style=&quot;border-right:1px solid #000000;border-bottom:1px solid #000000;overflow:hidden;padding:2px 3px 2px 3px;vertical-align:bottom;&quot; data-sheets-value=&quot;{&amp;quot;1&amp;quot;:2,&amp;quot;2&amp;quot;:&amp;quot;3333-3333&amp;quot;}&quot;&gt;3333-3333&lt;/td&gt;&lt;/tr&gt;&lt;tr style=&quot;height:21px;&quot;&gt;&lt;td style=&quot;border-bottom:1px solid #000000;overflow:hidden;padding:2px 3px 2px 3px;vertical-align:bottom;&quot;&gt;&lt;/td&gt;&lt;td style=&quot;border-bottom:1px solid #000000;overflow:hidden;padding:2px 3px 2px 3px;vertical-align:bottom;&quot;&gt;&lt;/td&gt;&lt;td style=&quot;border-bottom:1px solid #000000;overflow:hidden;padding:2px 3px 2px 3px;vertical-align:bottom;&quot;&gt;&lt;/td&gt;&lt;td style=&quot;border-bottom:1px solid #000000;overflow:hidden;padding:2px 3px 2px 3px;vertical-align:bottom;&quot;&gt;&lt;/td&gt;&lt;td style=&quot;overflow:hidden;padding:2px 3px 2px 3px;vertical-align:bottom;&quot;&gt;&lt;/td&gt;&lt;td style=&quot;border-bottom:1px solid #000000;overflow:hidden;padding:2px 3px 2px 3px;vertical-align:bottom;&quot;&gt;&lt;/td&gt;&lt;td style=&quot;border-bottom:1px solid #000000;overflow:hidden;padding:2px 3px 2px 3px;vertical-align:bottom;&quot;&gt;&lt;/td&gt;&lt;td style=&quot;border-bottom:1px solid #000000;overflow:hidden;padding:2px 3px 2px 3px;vertical-align:bottom;&quot;&gt;&lt;/td&gt;&lt;td style=&quot;border-bottom:1px solid #000000;overflow:hidden;padding:2px 3px 2px 3px;vertical-align:bottom;&quot;&gt;&lt;/td&gt;&lt;td style=&quot;overflow:hidden;padding:2px 3px 2px 3px;vertical-align:bottom;&quot;&gt;&lt;/td&gt;&lt;/tr&gt;&lt;tr style=&quot;height:21px;&quot;&gt;&lt;td style=&quot;border-right:1px solid #000000;border-bottom:1px solid #000000;border-left:1px solid #000000;overflow:hidden;padding:2px 3px 2px 3px;vertical-align:bottom;text-align:center;&quot; rowspan=&quot;1&quot; colspan=&quot;4&quot; data-sheets-value=&quot;{&amp;quot;1&amp;quot;:2,&amp;quot;2&amp;quot;:&amp;quot;Marca&amp;quot;}&quot;&gt;Marca&lt;/td&gt;&lt;td style=&quot;border-right:1px solid #000000;overflow:hidden;padding:2px 3px 2px 3px;vertical-align:bottom;&quot;&gt;&lt;/td&gt;&lt;td style=&quot;border-right:1px solid #000000;border-bottom:1px solid #000000;overflow:hidden;padding:2px 3px 2px 3px;vertical-align:bottom;text-align:center;&quot; rowspan=&quot;1&quot; colspan=&quot;4&quot; data-sheets-value=&quot;{&amp;quot;1&amp;quot;:2,&amp;quot;2&amp;quot;:&amp;quot;Modelo&amp;quot;}&quot;&gt;Modelo&lt;/td&gt;&lt;td style=&quot;overflow:hidden;padding:2px 3px 2px 3px;vertical-align:bottom;&quot;&gt;&lt;/td&gt;&lt;/tr&gt;&lt;tr style=&quot;height:21px;&quot;&gt;&lt;td style=&quot;border-right:1px solid #000000;border-bottom:1px solid #000000;border-left:1px solid #000000;overflow:hidden;padding:2px 3px 2px 3px;vertical-align:bottom;&quot; data-sheets-value=&quot;{&amp;quot;1&amp;quot;:2,&amp;quot;2&amp;quot;:&amp;quot;IdMarca&amp;quot;}&quot;&gt;IdMarca&lt;/td&gt;&lt;td style=&quot;border-right:1px solid #000000;border-bottom:1px solid #000000;overflow:hidden;padding:2px 3px 2px 3px;vertical-align:bottom;&quot; rowspan=&quot;1&quot; colspan=&quot;3&quot; data-sheets-value=&quot;{&amp;quot;1&amp;quot;:2,&amp;quot;2&amp;quot;:&amp;quot;Nome Marca&amp;quot;}&quot;&gt;Nome Marca&lt;/td&gt;&lt;td style=&quot;border-right:1px solid #000000;overflow:hidden;padding:2px 3px 2px 3px;vertical-align:bottom;&quot;&gt;&lt;/td&gt;&lt;td style=&quot;border-right:1px solid #000000;border-bottom:1px solid #000000;overflow:hidden;padding:2px 3px 2px 3px;vertical-align:bottom;&quot; data-sheets-value=&quot;{&amp;quot;1&amp;quot;:2,&amp;quot;2&amp;quot;:&amp;quot;IdModelo&amp;quot;}&quot;&gt;IdModelo&lt;/td&gt;&lt;td style=&quot;border-right:1px solid #000000;border-bottom:1px solid #000000;overflow:hidden;padding:2px 3px 2px 3px;vertical-align:bottom;&quot; rowspan=&quot;1&quot; colspan=&quot;3&quot; data-sheets-value=&quot;{&amp;quot;1&amp;quot;:2,&amp;quot;2&amp;quot;:&amp;quot;Nome Marca&amp;quot;}&quot;&gt;Nome Modelo&lt;/td&gt;&lt;td style=&quot;overflow:hidden;padding:2px 3px 2px 3px;vertical-align:bottom;&quot;&gt;&lt;br&gt;&lt;/td&gt;&lt;/tr&gt;&lt;tr style=&quot;height:21px;&quot;&gt;&lt;td style=&quot;border-right:1px solid #000000;border-bottom:1px solid #000000;border-left:1px solid #000000;overflow:hidden;padding:2px 3px 2px 3px;vertical-align:bottom;&quot; data-sheets-value=&quot;{&amp;quot;1&amp;quot;:3,&amp;quot;3&amp;quot;:4}&quot;&gt;4&lt;/td&gt;&lt;td style=&quot;border-right:1px solid #000000;border-bottom:1px solid #000000;overflow:hidden;padding:2px 3px 2px 3px;vertical-align:bottom;&quot; rowspan=&quot;1&quot; colspan=&quot;3&quot; data-sheets-value=&quot;{&amp;quot;1&amp;quot;:2,&amp;quot;2&amp;quot;:&amp;quot;Volkswagen&amp;quot;}&quot;&gt;Volkswagen&lt;/td&gt;&lt;td style=&quot;border-right:1px solid #000000;overflow:hidden;padding:2px 3px 2px 3px;vertical-align:bottom;&quot;&gt;&lt;/td&gt;&lt;td style=&quot;border-right:1px solid #000000;border-bottom:1px solid #000000;overflow:hidden;padding:2px 3px 2px 3px;vertical-align:bottom;&quot; data-sheets-value=&quot;{&amp;quot;1&amp;quot;:3,&amp;quot;3&amp;quot;:7}&quot;&gt;13&lt;/td&gt;&lt;td style=&quot;border-right:1px solid #000000;border-bottom:1px solid #000000;overflow:hidden;padding:2px 3px 2px 3px;vertical-align:bottom;&quot; rowspan=&quot;1&quot; colspan=&quot;3&quot; data-sheets-value=&quot;{&amp;quot;1&amp;quot;:2,&amp;quot;2&amp;quot;:&amp;quot;Jetta&amp;quot;}&quot;&gt;Jetta&lt;/td&gt;&lt;td style=&quot;overflow:hidden;padding:2px 3px 2px 3px;vertical-align:bottom;&quot;&gt;&lt;/td&gt;&lt;/tr&gt;&lt;tr style=&quot;height:21px;&quot;&gt;&lt;td style=&quot;border-right:1px solid #000000;border-bottom:1px solid #000000;border-left:1px solid #000000;overflow:hidden;padding:2px 3px 2px 3px;vertical-align:bottom;&quot; data-sheets-value=&quot;{&amp;quot;1&amp;quot;:3,&amp;quot;3&amp;quot;:5}&quot;&gt;5&lt;/td&gt;&lt;td style=&quot;border-right:1px solid #000000;border-bottom:1px solid #000000;overflow:hidden;padding:2px 3px 2px 3px;vertical-align:bottom;&quot; rowspan=&quot;1&quot; colspan=&quot;3&quot; data-sheets-value=&quot;{&amp;quot;1&amp;quot;:2,&amp;quot;2&amp;quot;:&amp;quot;Fiat&amp;quot;}&quot;&gt;Fiat&lt;/td&gt;&lt;td style=&quot;border-right:1px solid #000000;overflow:hidden;padding:2px 3px 2px 3px;vertical-align:bottom;&quot;&gt;&lt;/td&gt;&lt;td style=&quot;border-right:1px solid #000000;border-bottom:1px solid #000000;overflow:hidden;padding:2px 3px 2px 3px;vertical-align:bottom;&quot; data-sheets-value=&quot;{&amp;quot;1&amp;quot;:3,&amp;quot;3&amp;quot;:8}&quot;&gt;14&lt;/td&gt;&lt;td style=&quot;border-right:1px solid #000000;border-bottom:1px solid #000000;overflow:hidden;padding:2px 3px 2px 3px;vertical-align:bottom;&quot; rowspan=&quot;1&quot; colspan=&quot;3&quot; data-sheets-value=&quot;{&amp;quot;1&amp;quot;:2,&amp;quot;2&amp;quot;:&amp;quot;Argo&amp;quot;}&quot;&gt;Argo&lt;/td&gt;&lt;td style=&quot;overflow:hidden;padding:2px 3px 2px 3px;vertical-align:bottom;&quot;&gt;&lt;/td&gt;&lt;/tr&gt;&lt;tr style=&quot;height:21px;&quot;&gt;&lt;td style=&quot;border-right:1px solid #000000;border-bottom:1px solid #000000;border-left:1px solid #000000;overflow:hidden;padding:2px 3px 2px 3px;vertical-align:bottom;&quot; data-sheets-value=&quot;{&amp;quot;1&amp;quot;:3,&amp;quot;3&amp;quot;:6}&quot;&gt;6&lt;/td&gt;&lt;td style=&quot;border-right:1px solid #000000;border-bottom:1px solid #000000;overflow:hidden;padding:2px 3px 2px 3px;vertical-align:bottom;&quot; rowspan=&quot;1&quot; colspan=&quot;3&quot; data-sheets-value=&quot;{&amp;quot;1&amp;quot;:2,&amp;quot;2&amp;quot;:&amp;quot;Toyota&amp;quot;}&quot;&gt;Toyota&lt;/td&gt;&lt;td style=&quot;border-right:1px solid #000000;overflow:hidden;padding:2px 3px 2px 3px;vertical-align:bottom;&quot;&gt;&lt;/td&gt;&lt;td style=&quot;border-right:1px solid #000000;border-bottom:1px solid #000000;overflow:hidden;padding:2px 3px 2px 3px;vertical-align:bottom;&quot; data-sheets-value=&quot;{&amp;quot;1&amp;quot;:3,&amp;quot;3&amp;quot;:9}&quot;&gt;15&lt;/td&gt;&lt;td style=&quot;border-right:1px solid #000000;border-bottom:1px solid #000000;overflow:hidden;padding:2px 3px 2px 3px;vertical-align:bottom;&quot; rowspan=&quot;1&quot; colspan=&quot;3&quot; data-sheets-value=&quot;{&amp;quot;1&amp;quot;:2,&amp;quot;2&amp;quot;:&amp;quot;Supra&amp;quot;}&quot;&gt;Supra&lt;/td&gt;&lt;td style=&quot;overflow:hidden;padding:2px 3px 2px 3px;vertical-align:bottom;&quot;&gt;&lt;/td&gt;&lt;/tr&gt;&lt;tr style=&quot;height:21px;&quot;&gt;&lt;td style=&quot;border-bottom:1px solid #000000;overflow:hidden;padding:2px 3px 2px 3px;vertical-align:bottom;&quot;&gt;&lt;/td&gt;&lt;td style=&quot;border-bottom:1px solid #000000;overflow:hidden;padding:2px 3px 2px 3px;vertical-align:bottom;&quot;&gt;&lt;/td&gt;&lt;td style=&quot;border-bottom:1px solid #000000;overflow:hidden;padding:2px 3px 2px 3px;vertical-align:bottom;&quot;&gt;&lt;/td&gt;&lt;td style=&quot;border-bottom:1px solid #000000;overflow:hidden;padding:2px 3px 2px 3px;vertical-align:bottom;&quot;&gt;&lt;/td&gt;&lt;td style=&quot;overflow:hidden;padding:2px 3px 2px 3px;vertical-align:bottom;&quot;&gt;&lt;/td&gt;&lt;td style=&quot;border-bottom:1px solid #000000;overflow:hidden;padding:2px 3px 2px 3px;vertical-align:bottom;&quot;&gt;&lt;/td&gt;&lt;td style=&quot;border-bottom:1px solid #000000;overflow:hidden;padding:2px 3px 2px 3px;vertical-align:bottom;&quot;&gt;&lt;/td&gt;&lt;td style=&quot;border-bottom:1px solid #000000;overflow:hidden;padding:2px 3px 2px 3px;vertical-align:bottom;&quot;&gt;&lt;/td&gt;&lt;td style=&quot;border-bottom:1px solid #000000;overflow:hidden;padding:2px 3px 2px 3px;vertical-align:bottom;&quot;&gt;&lt;/td&gt;&lt;td style=&quot;overflow:hidden;padding:2px 3px 2px 3px;vertical-align:bottom;&quot;&gt;&lt;/td&gt;&lt;/tr&gt;&lt;tr style=&quot;height:21px;&quot;&gt;&lt;td style=&quot;border-right:1px solid #000000;border-bottom:1px solid #000000;border-left:1px solid #000000;overflow:hidden;padding:2px 3px 2px 3px;vertical-align:bottom;text-align:center;&quot; rowspan=&quot;1&quot; colspan=&quot;4&quot; data-sheets-value=&quot;{&amp;quot;1&amp;quot;:2,&amp;quot;2&amp;quot;:&amp;quot;Cliente&amp;quot;}&quot;&gt;Cliente&lt;/td&gt;&lt;td style=&quot;border-right:1px solid #000000;overflow:hidden;padding:2px 3px 2px 3px;vertical-align:bottom;&quot;&gt;&lt;/td&gt;&lt;td style=&quot;border-right:1px solid #000000;border-bottom:1px solid #000000;overflow:hidden;padding:2px 3px 2px 3px;vertical-align:bottom;text-align:center;&quot; rowspan=&quot;1&quot; colspan=&quot;4&quot; data-sheets-value=&quot;{&amp;quot;1&amp;quot;:2,&amp;quot;2&amp;quot;:&amp;quot;Aluguel&amp;quot;}&quot;&gt;Aluguel&lt;/td&gt;&lt;td style=&quot;overflow:hidden;padding:2px 3px 2px 3px;vertical-align:bottom;&quot;&gt;&lt;/td&gt;&lt;/tr&gt;&lt;tr style=&quot;height:21px;&quot;&gt;&lt;td style=&quot;border-right:1px solid #000000;border-bottom:1px solid #000000;border-left:1px solid #000000;overflow:hidden;padding:2px 3px 2px 3px;vertical-align:bottom;&quot; data-sheets-value=&quot;{&amp;quot;1&amp;quot;:2,&amp;quot;2&amp;quot;:&amp;quot;IdCliente&amp;quot;}&quot;&gt;IdCliente&lt;/td&gt;&lt;td style=&quot;border-right:1px solid #000000;border-bottom:1px solid #000000;overflow:hidden;padding:2px 3px 2px 3px;vertical-align:bottom;&quot; rowspan=&quot;1&quot; colspan=&quot;2&quot; data-sheets-value=&quot;{&amp;quot;1&amp;quot;:2,&amp;quot;2&amp;quot;:&amp;quot;Nome&amp;quot;}&quot;&gt;Nome&lt;/td&gt;&lt;td style=&quot;border-right:1px solid #000000;border-bottom:1px solid #000000;overflow:hidden;padding:2px 3px 2px 3px;vertical-align:bottom;&quot; data-sheets-value=&quot;{&amp;quot;1&amp;quot;:2,&amp;quot;2&amp;quot;:&amp;quot;Cpf&amp;quot;}&quot;&gt;Cpf&lt;/td&gt;&lt;td style=&quot;border-right:1px solid #000000;overflow:hidden;padding:2px 3px 2px 3px;vertical-align:bottom;&quot;&gt;&lt;/td&gt;&lt;td style=&quot;border-right:1px solid #000000;border-bottom:1px solid #000000;overflow:hidden;padding:2px 3px 2px 3px;vertical-align:bottom;&quot; data-sheets-value=&quot;{&amp;quot;1&amp;quot;:2,&amp;quot;2&amp;quot;:&amp;quot;IdAluguel&amp;quot;}&quot;&gt;IdAluguel&lt;/td&gt;&lt;td style=&quot;border-right:1px solid #000000;border-bottom:1px solid #000000;overflow:hidden;padding:2px 3px 2px 3px;vertical-align:bottom;&quot; data-sheets-value=&quot;{&amp;quot;1&amp;quot;:2,&amp;quot;2&amp;quot;:&amp;quot;IdVeiculo&amp;quot;}&quot;&gt;IdVeiculo&lt;/td&gt;&lt;td style=&quot;border-right:1px solid #000000;border-bottom:1px solid #000000;overflow:hidden;padding:2px 3px 2px 3px;vertical-align:bottom;&quot; data-sheets-value=&quot;{&amp;quot;1&amp;quot;:2,&amp;quot;2&amp;quot;:&amp;quot;IdCliente&amp;quot;}&quot;&gt;IdCliente&lt;/td&gt;&lt;td style=&quot;border-right:1px solid #000000;border-bottom:1px solid #000000;overflow:hidden;padding:2px 3px 2px 3px;vertical-align:bottom;&quot; data-sheets-value=&quot;{&amp;quot;1&amp;quot;:2,&amp;quot;2&amp;quot;:&amp;quot;Preço&amp;quot;}&quot;&gt;Preço&lt;/td&gt;&lt;td style=&quot;overflow:hidden;padding:2px 3px 2px 3px;vertical-align:bottom;&quot;&gt;&lt;/td&gt;&lt;/tr&gt;&lt;tr style=&quot;height:21px;&quot;&gt;&lt;td style=&quot;border-right:1px solid #000000;border-bottom:1px solid #000000;border-left:1px solid #000000;overflow:hidden;padding:2px 3px 2px 3px;vertical-align:bottom;&quot; data-sheets-value=&quot;{&amp;quot;1&amp;quot;:3,&amp;quot;3&amp;quot;:777}&quot;&gt;7&lt;/td&gt;&lt;td style=&quot;border-right:1px solid #000000;border-bottom:1px solid #000000;overflow:hidden;padding:2px 3px 2px 3px;vertical-align:bottom;&quot; rowspan=&quot;1&quot; colspan=&quot;2&quot; data-sheets-value=&quot;{&amp;quot;1&amp;quot;:2,&amp;quot;2&amp;quot;:&amp;quot;José Roberto&amp;quot;}&quot;&gt;José Roberto&lt;/td&gt;&lt;td style=&quot;border-right:1px solid #000000;border-bottom:1px solid #000000;overflow:hidden;padding:2px 3px 2px 3px;vertical-align:bottom;text-align:right;&quot; data-sheets-value=&quot;{&amp;quot;1&amp;quot;:3,&amp;quot;3&amp;quot;:555555}&quot;&gt;555555&lt;/td&gt;&lt;td style=&quot;border-right:1px solid #000000;overflow:hidden;padding:2px 3px 2px 3px;vertical-align:bottom;&quot;&gt;&lt;/td&gt;&lt;td style=&quot;border-right:1px solid #000000;border-bottom:1px solid #000000;overflow:hidden;padding:2px 3px 2px 3px;vertical-align:bottom;&quot; data-sheets-value=&quot;{&amp;quot;1&amp;quot;:3,&amp;quot;3&amp;quot;:999}&quot;&gt;16&lt;/td&gt;&lt;td style=&quot;border-right:1px solid #000000;border-bottom:1px solid #000000;overflow:hidden;padding:2px 3px 2px 3px;vertical-align:bottom;&quot; data-sheets-value=&quot;{&amp;quot;1&amp;quot;:3,&amp;quot;3&amp;quot;:11}&quot;&gt;10&lt;/td&gt;&lt;td style=&quot;border-right:1px solid #000000;border-bottom:1px solid #000000;overflow:hidden;padding:2px 3px 2px 3px;vertical-align:bottom;text-align:right;&quot; data-sheets-value=&quot;{&amp;quot;1&amp;quot;:3,&amp;quot;3&amp;quot;:777}&quot;&gt;7&lt;/td&gt;&lt;td style=&quot;border-right:1px solid #000000;border-bottom:1px solid #000000;overflow:hidden;padding:2px 3px 2px 3px;vertical-align:bottom;&quot; data-sheets-value=&quot;{&amp;quot;1&amp;quot;:2,&amp;quot;2&amp;quot;:&amp;quot;R$70000&amp;quot;}&quot;&gt;R$70000&lt;/td&gt;&lt;td style=&quot;overflow:hidden;padding:2px 3px 2px 3px;vertical-align:bottom;&quot;&gt;&lt;/td&gt;&lt;/tr&gt;&lt;tr style=&quot;height:21px;&quot;&gt;&lt;td style=&quot;border-right:1px solid #000000;border-bottom:1px solid #000000;border-left:1px solid #000000;overflow:hidden;padding:2px 3px 2px 3px;vertical-align:bottom;&quot; data-sheets-value=&quot;{&amp;quot;1&amp;quot;:3,&amp;quot;3&amp;quot;:666}&quot;&gt;8&lt;/td&gt;&lt;td style=&quot;border-right:1px solid #000000;border-bottom:1px solid #000000;overflow:hidden;padding:2px 3px 2px 3px;vertical-align:bottom;&quot; rowspan=&quot;1&quot; colspan=&quot;2&quot; data-sheets-value=&quot;{&amp;quot;1&amp;quot;:2,&amp;quot;2&amp;quot;:&amp;quot;Lucas Oliveira&amp;quot;}&quot;&gt;Lucas Oliveira&lt;/td&gt;&lt;td style=&quot;border-right:1px solid #000000;border-bottom:1px solid #000000;overflow:hidden;padding:2px 3px 2px 3px;vertical-align:bottom;text-align:right;&quot; data-sheets-value=&quot;{&amp;quot;1&amp;quot;:3,&amp;quot;3&amp;quot;:555555}&quot;&gt;555555&lt;/td&gt;&lt;td style=&quot;border-right:1px solid #000000;overflow:hidden;padding:2px 3px 2px 3px;vertical-align:bottom;&quot;&gt;&lt;/td&gt;&lt;td style=&quot;border-right:1px solid #000000;border-bottom:1px solid #000000;overflow:hidden;padding:2px 3px 2px 3px;vertical-align:bottom;&quot; data-sheets-value=&quot;{&amp;quot;1&amp;quot;:3,&amp;quot;3&amp;quot;:888}&quot;&gt;17&lt;/td&gt;&lt;td style=&quot;border-right:1px solid #000000;border-bottom:1px solid #000000;overflow:hidden;padding:2px 3px 2px 3px;vertical-align:bottom;&quot; data-sheets-value=&quot;{&amp;quot;1&amp;quot;:3,&amp;quot;3&amp;quot;:22}&quot;&gt;11&lt;/td&gt;&lt;td style=&quot;border-right:1px solid #000000;border-bottom:1px solid #000000;overflow:hidden;padding:2px 3px 2px 3px;vertical-align:bottom;text-align:right;&quot; data-sheets-value=&quot;{&amp;quot;1&amp;quot;:3,&amp;quot;3&amp;quot;:666}&quot;&gt;8&lt;/td&gt;&lt;td style=&quot;border-right:1px solid #000000;border-bottom:1px solid #000000;overflow:hidden;padding:2px 3px 2px 3px;vertical-align:bottom;&quot; data-sheets-value=&quot;{&amp;quot;1&amp;quot;:2,&amp;quot;2&amp;quot;:&amp;quot;R$80000&amp;quot;}&quot;&gt;R$80000&lt;/td&gt;&lt;td style=&quot;overflow:hidden;padding:2px 3px 2px 3px;vertical-align:bottom;&quot;&gt;&lt;/td&gt;&lt;/tr&gt;&lt;tr style=&quot;height:21px;&quot;&gt;&lt;td style=&quot;border-right:1px solid #000000;border-bottom:1px solid #000000;border-left:1px solid #000000;overflow:hidden;padding:2px 3px 2px 3px;vertical-align:bottom;&quot; data-sheets-value=&quot;{&amp;quot;1&amp;quot;:3,&amp;quot;3&amp;quot;:555}&quot;&gt;9&lt;/td&gt;&lt;td style=&quot;border-right:1px solid #000000;border-bottom:1px solid #000000;overflow:hidden;padding:2px 3px 2px 3px;vertical-align:bottom;&quot; rowspan=&quot;1&quot; colspan=&quot;2&quot; data-sheets-value=&quot;{&amp;quot;1&amp;quot;:2,&amp;quot;2&amp;quot;:&amp;quot;Paulo Gonçalves&amp;quot;}&quot;&gt;Paulo Gonçalves&lt;/td&gt;&lt;td style=&quot;border-right:1px solid #000000;border-bottom:1px solid #000000;overflow:hidden;padding:2px 3px 2px 3px;vertical-align:bottom;text-align:right;&quot; data-sheets-value=&quot;{&amp;quot;1&amp;quot;:3,&amp;quot;3&amp;quot;:555555}&quot;&gt;555555&lt;/td&gt;&lt;td style=&quot;border-right:1px solid #000000;overflow:hidden;padding:2px 3px 2px 3px;vertical-align:bottom;&quot;&gt;&lt;/td&gt;&lt;td style=&quot;border-right:1px solid #000000;border-bottom:1px solid #000000;overflow:hidden;padding:2px 3px 2px 3px;vertical-align:bottom;&quot; data-sheets-value=&quot;{&amp;quot;1&amp;quot;:3,&amp;quot;3&amp;quot;:777}&quot;&gt;18&lt;/td&gt;&lt;td style=&quot;border-right:1px solid #000000;border-bottom:1px solid #000000;overflow:hidden;padding:2px 3px 2px 3px;vertical-align:bottom;&quot; data-sheets-value=&quot;{&amp;quot;1&amp;quot;:3,&amp;quot;3&amp;quot;:33}&quot;&gt;12&lt;/td&gt;&lt;td style=&quot;border-right:1px solid #000000;border-bottom:1px solid #000000;overflow:hidden;padding:2px 3px 2px 3px;vertical-align:bottom;text-align:right;&quot; data-sheets-value=&quot;{&amp;quot;1&amp;quot;:3,&amp;quot;3&amp;quot;:555}&quot;&gt;9&lt;/td&gt;&lt;td style=&quot;border-right:1px solid #000000;border-bottom:1px solid #000000;overflow:hidden;padding:2px 3px 2px 3px;vertical-align:bottom;&quot; data-sheets-value=&quot;{&amp;quot;1&amp;quot;:2,&amp;quot;2&amp;quot;:&amp;quot;R$90000&amp;quot;}&quot;&gt;R$90000&lt;/td&gt;&lt;td style=&quot;overflow:hidden;padding:2px 3px 2px 3px;vertical-align:bottom;&quot;&gt;&lt;/td&gt;&lt;/tr&gt;&lt;/tbody&gt;&lt;/table&gt;" style="text;whiteSpace=wrap;html=1;" parent="1" vertex="1">
          <mxGeometry x="-140" y="2050" width="560" height="400" as="geometry" />
        </mxCell>
        <mxCell id="x2x9MnoCtmFtkNIcK7sk-1" value="&lt;font style=&quot;font-size: 14px;&quot;&gt;&lt;font style=&quot;vertical-align: inherit;&quot;&gt;&lt;font style=&quot;vertical-align: inherit;&quot;&gt;&lt;font style=&quot;vertical-align: inherit; font-size: 21px;&quot;&gt;&lt;font style=&quot;vertical-align: inherit; font-size: 21px;&quot;&gt;&lt;font style=&quot;vertical-align: inherit; font-size: 21px;&quot;&gt;&lt;font style=&quot;vertical-align: inherit; font-size: 21px;&quot;&gt;&lt;font style=&quot;vertical-align: inherit;&quot;&gt;&lt;font style=&quot;vertical-align: inherit;&quot;&gt;CONCEITUAL&lt;/font&gt;&lt;/font&gt;&lt;/font&gt;&lt;/font&gt;&lt;/font&gt;&lt;/font&gt;&lt;/font&gt;&lt;/font&gt;&lt;/font&gt;" style="rounded=0;whiteSpace=wrap;html=1;labelBackgroundColor=none;fontSize=14;fillColor=#d5e8d4;strokeColor=#82b366;gradientDirection=east;" parent="1" vertex="1">
          <mxGeometry x="254" y="620" width="320" height="85" as="geometry" />
        </mxCell>
        <mxCell id="x2x9MnoCtmFtkNIcK7sk-2" value="&lt;font style=&quot;font-size: 14px;&quot;&gt;&lt;font style=&quot;vertical-align: inherit;&quot;&gt;&lt;font style=&quot;vertical-align: inherit;&quot;&gt;&lt;font style=&quot;vertical-align: inherit; font-size: 21px;&quot;&gt;&lt;font style=&quot;vertical-align: inherit; font-size: 21px;&quot;&gt;&lt;font style=&quot;vertical-align: inherit; font-size: 21px;&quot;&gt;&lt;font style=&quot;vertical-align: inherit; font-size: 21px;&quot;&gt;&lt;font style=&quot;vertical-align: inherit;&quot;&gt;&lt;font style=&quot;vertical-align: inherit;&quot;&gt;&lt;font style=&quot;vertical-align: inherit;&quot;&gt;&lt;font style=&quot;vertical-align: inherit;&quot;&gt;&lt;font style=&quot;vertical-align: inherit;&quot;&gt;&lt;font style=&quot;vertical-align: inherit;&quot;&gt;LÓGICO&lt;/font&gt;&lt;/font&gt;&lt;/font&gt;&lt;/font&gt;&lt;/font&gt;&lt;/font&gt;&lt;/font&gt;&lt;/font&gt;&lt;/font&gt;&lt;/font&gt;&lt;/font&gt;&lt;/font&gt;&lt;/font&gt;" style="rounded=0;whiteSpace=wrap;html=1;labelBackgroundColor=none;fontSize=14;fillColor=#d5e8d4;strokeColor=#82b366;gradientDirection=east;" parent="1" vertex="1">
          <mxGeometry x="254" y="1290" width="320" height="85" as="geometry" />
        </mxCell>
        <mxCell id="x2x9MnoCtmFtkNIcK7sk-3" value="&lt;span style=&quot;font-size: 21px;&quot;&gt;&lt;font style=&quot;vertical-align: inherit;&quot;&gt;&lt;font style=&quot;vertical-align: inherit;&quot;&gt;FÍSICO&lt;/font&gt;&lt;/font&gt;&lt;/span&gt;" style="rounded=0;whiteSpace=wrap;html=1;labelBackgroundColor=none;fontSize=14;fillColor=#d5e8d4;strokeColor=#82b366;gradientDirection=east;" parent="1" vertex="1">
          <mxGeometry x="254" y="1940" width="320" height="85" as="geometry" />
        </mxCell>
      </root>
    </mxGraphModel>
  </diagram>
</mxfile>
